{"glyphs":{"0":{"ha":929,"x_min":61,"x_max":871,"o":"m 146 744 q 218 844 176 801 q 439 939 311 939 q 649 898 567 939 q 782 793 732 857 q 871 503 871 676 q 743 146 871 310 q 603 35 685 72 q 443 -1 522 -1 q 297 31 364 -1 q 177 116 229 63 q 93 238 125 169 q 61 372 61 307 q 69 501 61 438 q 97 626 78 564 q 146 744 115 688 m 311 382 q 338 231 310 314 q 415 69 361 160 q 460 60 421 60 q 542 76 499 60 q 597 145 585 93 q 615 233 608 197 q 626 303 624 269 q 632 421 632 361 q 631 522 632 481 q 624 610 629 564 q 607 706 618 657 q 579 792 596 753 q 475 876 540 876 q 376 813 418 876 q 331 615 331 742 q 321 507 331 563 q 311 382 311 451 z "},"1":{"ha":729,"x_min":31,"x_max":714,"o":"m 67 -18 q 50 13 50 -7 q 67 43 50 35 q 172 51 124 43 q 222 60 219 58 q 225 157 222 104 q 228 264 225 210 q 232 415 232 365 l 232 450 q 231 482 231 467 q 233 519 231 503 l 239 581 q 243 643 243 615 q 238 694 243 675 q 167 689 199 694 q 83 683 135 683 q 31 721 31 683 q 40 738 31 731 q 57 746 49 744 l 71 746 q 200 757 165 746 q 254 775 235 767 l 289 789 q 307 797 304 794 l 526 967 l 564 967 q 568 924 564 947 q 569 907 569 915 q 565 881 569 893 l 563 656 q 550 381 563 542 q 533 171 536 221 q 529 81 529 107 q 532 61 529 61 l 688 43 q 709 31 704 40 q 714 12 714 22 q 713 -8 714 1 q 701 -18 713 -18 l 628 -14 l 167 -18 l 67 -18 z "},"2":{"ha":836,"x_min":53,"x_max":772,"o":"m 364 0 q 279 10 325 10 q 193 4 233 10 q 122 -1 153 -1 q 81 6 90 -1 q 71 39 71 14 q 94 57 71 49 q 153 75 119 67 l 225 92 q 275 106 261 100 q 307 122 290 111 l 344 146 q 442 210 435 200 q 450 232 450 221 l 449 267 q 460 874 460 617 q 453 886 460 885 q 429 888 446 888 q 371 879 413 888 q 289 856 329 872 q 190 758 190 817 q 258 639 190 700 q 294 611 276 622 l 296 603 q 214 528 294 578 q 120 481 138 481 q 90 497 103 481 q 68 536 76 514 q 53 606 53 578 l 53 647 l 58 672 q 79 732 65 699 q 344 928 194 893 q 463 940 399 940 q 574 911 526 940 q 653 836 621 881 q 717 629 717 746 l 639 396 q 329 69 528 176 l 329 61 q 399 46 329 50 q 471 42 468 42 l 692 51 q 697 104 694 69 q 707 174 700 139 q 772 260 724 260 l 768 164 l 764 121 q 758 69 761 94 q 753 26 756 44 q 750 8 751 8 l 743 0 l 364 0 z "},"3":{"ha":814,"x_min":56,"x_max":756,"o":"m 696 851 l 694 847 l 694 844 l 504 611 l 504 594 q 686 478 615 569 q 756 288 756 388 q 721 139 756 189 q 629 61 686 89 q 357 17 538 17 q 164 54 247 17 q 56 203 56 103 q 58 229 56 217 q 81 242 60 242 q 115 224 101 242 q 139 185 128 207 l 158 142 q 186 111 169 119 q 342 76 258 76 l 376 78 l 385 86 l 385 100 l 386 161 l 386 188 q 376 508 386 388 q 338 496 357 508 q 282 472 303 472 q 253 475 261 472 q 246 498 246 478 q 259 532 246 518 q 290 555 272 546 q 327 571 308 564 q 358 585 346 578 l 360 642 q 342 844 360 736 q 254 854 314 854 l 151 853 l 133 844 q 138 782 138 824 q 118 714 138 740 q 97 715 108 714 q 83 732 85 717 l 75 886 q 153 914 75 914 q 303 901 218 914 q 526 878 461 878 l 658 888 q 696 851 696 888 z "},"4":{"ha":860,"x_min":-3,"x_max":819,"o":"m 808 56 q 817 33 817 56 l 817 18 q 808 0 817 3 q 168 -18 511 -18 q 129 -14 149 -18 q 110 16 110 -10 q 128 47 110 42 q 160 51 146 51 q 208 53 172 51 l 283 56 q 356 58 325 57 l 386 60 l 394 68 l 396 164 q 371 328 396 328 q 335 318 353 328 l 42 318 q 15 327 32 318 q -3 349 -3 336 l -3 351 q -1 353 -3 353 l 540 982 l 550 983 q 594 933 581 983 q 606 849 606 897 q 601 783 606 800 l 644 413 q 643 406 643 411 l 643 396 q 654 369 643 369 l 757 369 q 762 379 758 369 q 765 400 765 389 q 760 429 765 411 q 756 456 756 447 q 778 474 756 472 q 819 376 819 474 l 817 328 l 800 310 l 644 293 q 643 281 643 286 l 643 260 q 652 157 643 207 q 661 56 661 107 l 808 56 m 93 378 l 372 378 q 361 521 372 450 q 350 664 350 592 l 335 664 l 93 378 z "},"5":{"ha":861,"x_min":19,"x_max":832,"o":"m 831 788 q 783 679 831 679 q 769 680 778 679 q 761 689 761 681 l 761 853 l 436 808 l 338 507 l 486 492 l 658 404 q 721 257 721 374 q 689 125 719 176 q 658 94 678 106 l 460 -26 q 404 -39 425 -36 q 361 -42 383 -42 q 360 -43 360 -42 q 281 -28 338 -44 q 163 17 221 -11 q 62 85 104 46 q 19 166 19 125 q 51 207 19 207 q 90 181 86 207 l 203 68 q 340 25 240 28 q 390 24 365 25 q 425 35 415 24 l 428 133 q 400 447 428 265 l 361 449 q 274 436 319 450 q 156 411 188 411 q 120 417 125 411 q 115 438 115 422 l 115 468 q 124 492 115 483 l 176 810 q 175 823 175 814 q 179 847 175 832 q 192 875 183 861 q 231 906 210 906 l 246 904 l 340 878 q 376 876 363 876 l 486 876 q 572 879 535 876 q 728 925 689 886 q 787 965 767 964 q 816 948 807 965 q 828 908 825 931 q 832 869 831 889 q 831 861 831 864 l 831 825 l 831 788 z "},"6":{"ha":801,"x_min":54,"x_max":757,"o":"m 689 714 q 650 724 663 714 q 571 857 628 821 q 510 871 549 871 q 438 858 471 871 q 399 793 404 844 l 379 568 l 388 514 q 418 517 397 514 l 451 522 q 469 525 464 525 q 494 519 475 525 l 538 504 q 615 474 600 483 l 658 431 q 706 382 683 408 q 757 256 757 321 q 728 139 757 190 q 651 53 699 88 q 419 -18 554 -18 l 401 -18 l 240 26 q 213 47 235 28 q 79 242 124 119 q 54 360 54 311 q 63 468 54 418 q 76 525 72 518 l 185 732 l 374 913 q 497 942 403 942 q 529 940 513 942 q 586 939 560 939 l 636 892 q 672 849 658 871 q 694 800 686 826 q 701 744 701 774 q 689 714 701 714 m 511 240 l 510 260 q 463 457 494 457 l 394 457 l 379 439 l 350 164 l 350 136 l 347 56 q 349 43 347 46 l 454 43 l 482 76 q 502 156 493 88 q 511 240 511 225 z "},"7":{"ha":861,"x_min":17,"x_max":847,"o":"m 586 69 q 604 43 604 69 q 568 13 604 19 q 476 6 532 6 l 363 6 q 35 17 190 6 q 19 28 22 24 q 17 42 17 32 q 47 81 17 75 q 121 86 76 86 l 172 86 l 181 94 l 319 396 l 242 396 q 232 428 232 396 q 250 461 232 461 l 349 461 l 503 824 l 285 886 l 279 886 l 271 888 q 250 883 256 888 q 236 867 244 878 l 219 842 l 201 810 q 172 758 176 768 l 171 736 q 181 701 171 717 q 192 668 192 686 q 176 643 192 650 q 151 636 161 636 q 128 647 140 636 q 108 674 115 658 q 94 734 94 704 q 107 792 94 764 q 138 845 119 819 q 175 894 156 871 q 207 939 194 918 q 236 956 222 953 q 263 957 251 957 l 282 957 q 293 956 290 957 l 492 886 l 501 886 l 544 885 l 610 885 q 657 886 638 883 q 723 903 686 889 q 768 924 760 917 q 784 932 776 932 q 801 928 792 932 q 821 918 811 924 q 844 896 847 903 l 660 422 l 740 422 q 747 413 743 422 q 750 401 750 403 q 743 389 750 399 q 732 379 736 379 l 629 353 l 494 69 l 586 69 z "},"8":{"ha":832,"x_min":6,"x_max":768,"o":"m 757 267 l 739 138 q 708 63 729 99 q 679 25 686 28 l 499 -61 l 378 -78 q 335 -69 361 -71 q 285 -60 308 -67 q 224 -29 261 -53 q 153 25 186 -6 q 76 163 75 99 q 29 170 53 164 q 6 206 6 176 q 60 247 6 247 l 86 247 q 144 400 86 321 q 265 515 194 467 l 267 521 q 260 533 267 524 q 249 550 253 543 l 197 714 q 179 739 179 722 q 181 759 179 756 q 188 766 183 763 q 199 775 192 769 q 225 806 206 778 l 267 863 q 311 911 288 892 q 463 947 357 947 q 628 913 558 947 q 636 904 632 904 q 726 836 707 860 q 768 710 768 788 q 654 472 768 544 q 636 469 646 472 q 626 461 626 465 q 639 446 625 456 l 669 424 q 722 369 713 392 q 728 353 724 367 l 738 324 l 749 292 l 757 267 m 353 138 q 407 -18 353 -18 q 614 50 531 -18 q 697 228 697 118 q 643 372 697 314 q 500 432 588 433 q 386 311 431 432 q 353 138 353 219 m 438 638 l 438 586 q 467 511 436 531 q 522 499 483 500 q 597 514 561 497 q 658 556 633 528 q 713 693 714 614 q 653 835 714 776 q 507 896 590 896 q 453 789 474 896 q 438 638 438 710 z "},"9":{"ha":825,"x_min":35,"x_max":769,"o":"m 286 7 q 243 38 243 7 q 269 86 243 68 l 390 336 l 390 349 q 190 368 242 349 q 102 422 138 388 q 38 517 67 456 l 35 571 l 35 585 q 106 806 35 717 q 167 869 153 865 l 374 939 q 429 943 382 943 q 531 928 476 943 q 622 878 585 914 q 769 518 769 736 q 718 318 769 447 q 700 286 710 297 q 683 249 685 268 q 528 85 604 140 q 485 61 503 67 l 294 8 q 292 7 293 7 l 286 7 m 269 585 q 267 559 267 574 q 272 517 267 544 q 288 467 279 489 q 321 413 307 411 l 408 413 q 416 426 410 413 q 428 459 422 440 q 439 499 433 478 q 447 539 444 519 q 453 619 453 567 q 449 701 453 672 q 436 753 444 731 q 374 836 421 792 q 321 793 333 836 l 269 585 z "}," ":{"ha":333,"x_min":0,"x_max":0,"o":""},"!":{"ha":447,"x_min":68,"x_max":389,"o":"m 121 226 q 243 260 168 260 q 331 192 306 258 q 346 107 347 150 q 335 45 344 64 q 308 14 325 26 q 235 -10 275 -10 q 167 -1 194 -10 q 118 25 140 8 q 82 65 96 42 q 68 122 68 89 q 83 183 68 156 q 121 226 97 210 m 93 615 l 121 904 q 208 956 136 956 q 372 889 328 956 q 388 828 389 864 l 301 413 q 276 360 294 386 q 220 335 257 335 q 157 367 183 335 q 117 444 131 400 q 93 615 94 517 z "},"\"":{"ha":671,"x_min":47,"x_max":615,"o":"m 204 558 l 125 560 q 89 588 103 567 q 65 629 75 610 q 81 633 79 629 q 83 656 83 636 q 78 708 83 676 q 65 772 72 742 q 47 899 47 853 q 58 938 47 931 q 92 946 69 946 l 264 931 q 281 906 281 926 q 256 568 281 806 q 204 558 240 558 m 539 558 l 460 560 q 401 629 426 569 q 416 633 414 629 q 418 656 418 636 q 413 708 418 676 q 400 772 407 742 q 382 899 382 853 q 393 938 382 931 q 426 946 404 946 l 599 931 q 615 906 615 926 q 590 568 615 806 q 539 558 575 558 z "},"#":{"ha":782,"x_min":38,"x_max":728,"o":"m 425 257 l 418 258 q 399 255 413 257 q 369 249 385 253 q 341 244 354 246 q 318 238 328 242 q 300 206 308 235 q 286 142 292 176 q 278 44 278 88 q 283 -6 279 1 q 288 -26 288 -14 q 276 -50 288 -37 q 254 -62 265 -62 q 219 -28 219 -62 q 231 101 219 36 q 243 229 243 165 l 211 231 l 175 232 q 139 227 147 232 q 131 203 131 222 q 133 179 131 183 q 117 202 121 188 q 99 224 114 217 q 77 231 88 228 q 58 240 67 235 q 38 277 39 253 q 51 301 38 301 l 156 292 q 203 301 188 292 l 150 396 q 133 394 144 394 q 89 426 89 394 q 167 472 89 469 q 194 475 183 472 q 225 478 206 475 q 306 490 264 482 l 392 817 q 418 836 396 836 q 435 804 435 836 l 433 792 l 365 515 l 365 501 l 415 499 q 486 533 478 499 l 556 800 q 570 828 558 811 q 594 844 582 844 q 611 835 606 844 q 617 815 617 825 l 615 800 l 532 513 l 693 513 q 718 501 708 513 q 728 469 728 490 q 711 447 728 447 l 521 447 l 494 318 l 685 301 q 701 294 690 300 q 711 282 711 288 q 707 263 711 276 q 701 249 703 249 l 481 249 l 433 25 l 433 15 q 444 -18 433 -3 q 454 -51 454 -33 q 426 -57 439 -51 q 399 -62 414 -62 q 374 -22 374 -62 l 375 0 l 425 240 l 425 257 m 144 168 q 141 164 144 164 q 138 167 138 164 q 140 171 138 171 q 144 169 143 171 l 144 168 m 172 411 q 194 360 172 390 q 254 300 236 300 q 288 381 281 300 q 289 406 289 397 q 267 422 289 422 q 222 417 246 422 q 172 411 197 411 m 318 307 q 433 318 393 307 q 460 403 449 317 q 463 440 463 425 q 349 431 417 440 q 318 307 318 367 z "},"$":{"ha":657,"x_min":46,"x_max":604,"o":"m 604 815 l 604 797 l 590 768 l 549 689 q 529 651 532 658 q 510 631 522 636 q 488 647 501 631 q 474 667 474 663 q 481 704 474 688 q 492 724 489 721 q 433 742 464 740 q 381 744 401 744 q 325 742 328 744 l 306 706 l 306 482 q 346 468 324 478 q 399 445 393 449 q 418 436 406 442 q 442 424 431 431 q 463 414 454 418 q 475 407 472 410 q 494 389 479 403 l 528 357 l 561 322 l 588 294 q 604 227 604 276 q 580 146 604 178 q 517 98 556 114 q 433 76 479 82 q 343 57 386 69 q 321 29 322 50 l 321 13 l 321 -15 q 320 -57 324 -39 q 289 -75 317 -75 q 267 -72 278 -75 q 248 -42 253 -68 q 240 1 243 -17 q 233 57 233 46 q 111 94 178 94 l 103 94 l 47 75 q 46 89 46 78 l 46 103 q 93 228 46 157 q 121 260 107 247 q 117 265 124 263 q 114 268 111 268 q 126 208 114 242 q 140 169 138 174 q 152 159 143 165 q 172 147 161 153 q 211 131 200 133 q 243 131 222 129 q 288 135 264 132 q 333 140 313 138 q 363 143 354 143 l 363 408 q 260 436 363 424 q 195 446 207 443 q 162 460 183 449 q 118 489 140 472 q 65 560 65 529 q 78 624 65 590 q 110 686 90 656 q 214 779 150 744 l 269 797 q 292 807 278 800 q 306 816 306 814 q 310 832 307 818 q 317 861 314 846 l 322 890 q 326 911 325 903 q 343 964 332 940 q 357 971 349 968 l 372 976 q 390 979 381 979 l 390 815 q 408 806 390 813 q 436 797 425 799 l 458 796 l 506 796 q 529 797 528 796 q 536 803 531 797 q 548 816 542 810 q 559 828 554 822 q 567 834 564 833 q 583 828 569 835 q 604 815 597 821 z "},"%":{"ha":1101,"x_min":46,"x_max":1057,"o":"m 340 -33 l 440 -24 q 430 -66 440 -46 q 392 -86 419 -86 l 150 -86 q 132 -78 140 -86 q 124 -60 124 -69 q 150 -25 124 -32 q 172 -22 156 -24 q 206 -17 189 -19 l 239 -11 q 263 -8 256 -8 l 711 742 l 615 758 q 607 774 607 760 q 619 798 607 789 q 642 810 631 807 q 664 808 647 808 l 722 808 q 757 809 747 808 q 782 819 767 810 q 805 828 797 828 q 820 823 813 828 q 839 818 828 818 l 908 828 l 911 828 q 933 820 922 828 q 943 801 943 813 q 936 783 943 789 q 920 773 929 776 q 901 769 911 769 q 882 767 890 768 q 858 761 872 764 l 831 756 l 796 750 l 769 724 l 314 -17 q 313 -19 313 -18 q 323 -30 313 -26 q 340 -33 333 -33 m 828 399 q 1057 229 1057 399 q 1049 175 1057 204 q 1024 104 1042 146 q 979 33 1007 63 q 815 -26 922 -26 q 683 31 738 -26 q 631 167 631 86 q 686 324 631 253 q 828 399 744 399 m 917 203 q 858 346 917 346 q 797 285 817 346 q 786 189 786 246 l 788 146 q 813 70 797 106 q 831 35 828 35 l 839 35 q 857 47 843 36 l 879 65 q 899 86 888 72 q 917 203 917 111 m 47 529 l 46 565 l 46 578 q 70 706 46 650 q 150 810 94 761 q 249 828 186 828 q 353 765 292 828 q 410 672 411 706 l 410 569 l 340 440 q 250 382 314 396 q 210 378 231 378 q 164 392 189 378 q 117 425 139 406 q 47 517 78 461 l 47 529 m 254 758 q 214 704 224 758 q 210 658 210 682 l 210 619 q 210 580 210 597 q 211 544 211 563 q 219 465 213 524 q 255 556 249 515 q 263 625 261 596 q 264 694 264 654 q 254 758 264 733 z "},"&":{"ha":999,"x_min":50,"x_max":976,"o":"m 764 76 q 663 108 694 103 q 625 89 657 108 l 569 51 l 532 32 q 457 1 493 7 q 381 -6 421 -6 l 331 -6 q 129 65 206 -6 q 50 260 50 139 l 50 289 q 51 313 50 308 q 61 336 53 317 q 83 379 72 356 l 106 425 q 136 472 122 456 l 164 504 q 200 550 199 544 q 201 564 201 556 l 201 583 l 200 689 l 200 700 q 208 747 200 708 q 223 814 215 785 q 247 872 231 843 q 292 919 264 903 q 446 943 333 944 q 510 931 485 943 q 607 865 538 917 q 643 765 643 840 q 568 594 643 694 q 508 526 540 557 l 414 433 q 365 385 375 394 q 561 236 419 317 q 644 197 631 197 q 681 217 657 197 q 731 265 706 238 q 792 365 790 333 l 793 400 l 793 492 l 792 533 q 699 571 776 560 l 699 607 l 976 607 l 976 571 q 921 563 953 571 q 883 551 889 554 q 871 522 878 547 q 858 464 864 497 q 847 329 847 383 q 838 320 844 326 q 828 311 831 314 l 735 181 l 735 171 q 761 138 735 146 q 819 124 788 129 q 878 111 851 119 q 904 77 904 103 q 872 51 904 51 q 814 59 839 51 q 764 76 789 67 m 333 92 q 361 72 344 81 q 422 51 399 51 q 457 59 426 51 q 495 69 488 67 q 519 80 503 72 q 551 97 536 88 q 590 135 590 122 q 511 194 590 143 q 422 253 431 246 l 397 272 l 365 299 q 313 331 322 331 q 295 316 304 331 q 281 281 286 301 q 274 241 276 261 q 272 199 272 221 q 278 153 272 178 q 301 114 283 128 l 333 92 m 342 871 q 296 831 311 856 q 272 689 272 790 l 272 607 l 346 656 q 415 711 383 681 q 494 865 488 779 q 460 883 478 882 q 407 885 443 885 q 342 871 371 885 z "},"'":{"ha":336,"x_min":47,"x_max":281,"o":"m 204 558 l 125 560 q 89 588 103 567 q 65 629 75 610 q 81 633 79 629 q 83 656 83 636 q 78 708 83 676 q 65 772 72 742 q 47 899 47 853 q 58 938 47 931 q 92 946 69 946 l 264 931 q 281 906 281 926 q 256 568 281 806 q 204 558 240 558 z "},"(":{"ha":556,"x_min":33,"x_max":553,"o":"m 493 967 q 518 947 518 967 q 486 919 518 931 q 456 909 472 914 q 422 896 439 904 q 256 589 265 814 q 253 490 253 528 q 256 428 253 453 q 271 369 260 406 q 360 199 299 286 q 454 93 422 113 q 508 69 486 74 q 542 63 531 64 q 553 39 553 61 q 471 0 553 0 q 278 75 382 0 q 54 367 115 194 q 34 469 35 422 q 45 567 33 515 q 81 674 57 619 q 142 781 104 728 q 229 875 179 833 q 493 967 340 967 z "},")":{"ha":556,"x_min":3,"x_max":522,"o":"m 3 39 q 14 63 3 61 q 47 69 25 64 q 101 93 68 74 q 178 174 133 113 q 248 285 222 236 q 285 369 274 333 q 302 474 301 422 q 300 588 303 526 q 281 708 297 650 q 133 896 243 838 q 100 909 117 904 q 69 919 83 914 q 38 949 38 931 q 63 967 38 967 q 414 781 282 967 q 510 567 485 681 q 522 468 521 514 q 502 366 522 422 q 449 257 482 310 q 371 158 415 204 q 278 75 326 111 q 88 0 174 0 q 3 39 3 0 z "},"*":{"ha":476,"x_min":47,"x_max":415,"o":"m 232 735 q 154 681 225 728 l 144 681 q 126 689 133 681 q 118 710 118 697 q 136 735 118 724 l 126 735 q 100 725 111 735 q 76 715 89 715 q 55 724 63 715 q 47 743 47 732 l 49 751 q 69 761 54 754 l 101 776 l 133 792 q 167 813 163 806 q 171 833 171 819 q 165 858 171 847 q 151 878 160 869 q 131 932 132 901 q 165 917 151 932 q 185 892 176 901 q 221 875 204 867 q 232 882 226 878 l 232 961 l 275 961 l 275 874 q 383 918 317 918 q 364 856 383 885 q 415 821 403 843 q 293 786 364 803 q 339 750 307 764 q 388 726 371 736 q 415 700 404 717 q 408 688 415 694 q 399 681 401 681 q 376 688 396 681 q 349 698 356 694 q 330 706 342 701 q 306 715 318 710 q 267 735 276 728 l 267 611 l 232 611 l 232 735 z "},"+":{"ha":638,"x_min":38,"x_max":600,"o":"m 389 249 l 551 258 q 600 236 600 258 q 590 214 590 217 l 375 179 q 374 154 374 167 l 374 117 q 379 29 374 72 q 385 -58 385 -14 q 361 -79 385 -79 q 317 92 319 -78 q 315 171 317 136 l 297 172 l 288 171 l 281 171 q 142 151 207 163 q 65 138 76 139 q 38 167 38 151 q 65 206 38 200 l 306 240 l 315 249 q 329 476 315 425 q 350 492 333 492 q 367 481 367 492 l 367 258 q 389 249 367 249 z "},",":{"ha":297,"x_min":11,"x_max":239,"o":"m 81 -46 l 58 21 q 118 90 58 68 q 149 96 133 96 q 217 67 194 96 q 239 -8 239 39 q 226 -59 239 -44 q 192 -96 214 -74 q 146 -139 171 -118 q 49 -189 86 -189 q 11 -175 11 -189 q 22 -151 11 -161 q 46 -131 32 -142 q 82 -62 82 -103 l 81 -46 z "},"-":{"ha":708,"x_min":76,"x_max":629,"o":"m 594 322 q 336 311 428 311 l 160 311 q 76 343 76 311 q 113 383 76 367 l 382 375 l 582 383 q 615 379 601 383 q 629 357 629 375 q 594 322 629 322 z "},".":{"ha":300,"x_min":56,"x_max":238,"o":"m 64 14 q 56 47 56 28 q 66 81 56 65 q 93 108 76 97 q 163 133 147 133 l 165 133 q 220 110 203 133 q 238 51 238 86 q 213 -8 238 15 q 149 -32 189 -32 q 64 14 93 -32 z "},"/":{"ha":510,"x_min":50,"x_max":464,"o":"m 75 -25 q 50 -1 50 -25 q 176 342 50 25 l 194 388 q 226 482 214 438 q 365 839 271 653 q 435 929 411 928 q 453 922 443 929 q 464 906 464 915 q 446 844 464 896 q 400 718 428 792 l 338 560 l 272 397 l 217 260 l 183 175 l 157 114 q 126 47 142 78 q 75 -25 90 -25 z "},":":{"ha":335,"x_min":76,"x_max":258,"o":"m 114 108 q 185 133 149 133 q 240 110 222 133 q 258 51 258 86 q 233 -8 258 15 q 181 -32 208 -32 q 138 -26 154 -32 q 107 -10 121 -21 q 85 14 93 0 q 76 47 76 28 q 87 81 76 65 q 114 108 97 97 m 88 578 q 114 606 97 594 q 185 631 149 631 q 240 606 222 631 q 258 547 258 582 q 233 488 258 511 q 181 464 208 464 q 138 469 154 464 q 107 485 121 475 q 85 510 93 496 q 76 542 76 524 q 88 578 76 561 z "},";":{"ha":361,"x_min":40,"x_max":279,"o":"m 107 578 q 135 606 118 594 q 206 631 169 631 q 261 606 243 631 q 279 547 279 582 q 254 488 279 511 q 202 464 229 464 q 158 469 175 464 q 128 485 142 475 q 106 510 114 496 q 97 542 97 524 q 107 578 97 561 m 110 -46 l 88 21 q 126 81 88 54 q 179 96 147 96 q 247 67 224 96 q 269 -3 269 39 q 258 -58 269 -44 q 176 -139 213 -110 q 124 -175 151 -160 q 68 -189 96 -189 q 40 -175 40 -189 q 51 -151 40 -161 q 76 -131 63 -142 q 111 -62 113 -103 l 110 -46 z "},"<":{"ha":607,"x_min":40,"x_max":525,"o":"m 497 172 l 454 172 l 118 397 q 92 418 119 403 q 40 461 42 447 q 50 492 40 483 l 497 767 l 501 768 q 514 761 506 769 q 524 746 525 751 q 521 736 524 742 q 511 721 517 728 q 497 699 499 699 l 307 576 l 299 568 l 153 474 l 153 457 l 497 215 q 506 208 504 210 q 507 189 507 206 q 497 172 507 172 z "},"=":{"ha":610,"x_min":85,"x_max":522,"o":"m 172 238 l 85 233 l 85 272 l 113 278 q 329 307 222 297 l 408 307 q 504 289 450 307 q 506 286 506 289 l 506 275 q 469 254 506 264 l 311 254 l 172 238 m 204 515 l 140 514 l 119 514 l 119 569 l 504 569 q 522 543 522 569 l 521 538 l 521 535 l 225 515 l 204 515 z "},">":{"ha":608,"x_min":83,"x_max":568,"o":"m 110 172 q 100 189 100 172 q 101 208 100 206 q 110 215 103 210 l 456 457 l 456 474 l 308 568 l 300 576 l 110 699 q 83 746 83 743 q 94 760 86 753 q 107 768 103 768 l 558 492 q 568 468 568 483 q 556 443 568 453 q 529 425 543 433 q 490 397 490 403 l 154 172 l 110 172 z "},"?":{"ha":732,"x_min":47,"x_max":688,"o":"m 203 51 q 297 156 203 156 q 372 125 342 156 q 401 49 401 94 q 367 -25 401 3 q 294 -53 332 -53 q 242 -43 257 -53 q 219 -19 228 -33 q 203 51 203 6 m 453 224 l 242 214 q 213 229 222 214 q 203 260 203 244 l 203 275 l 376 474 l 453 697 q 456 728 456 703 q 453 771 456 754 q 447 804 451 788 q 419 878 442 828 q 397 898 407 886 q 375 921 386 910 q 328 947 350 947 q 167 853 239 947 q 99 671 100 764 l 100 619 q 189 567 114 567 q 256 681 256 567 q 229 749 251 693 q 235 771 229 765 q 256 776 240 776 l 272 775 q 303 703 290 740 q 332 629 317 665 l 332 625 l 333 619 q 286 533 333 565 q 197 507 246 507 q 122 521 149 507 q 78 558 94 535 q 47 670 47 601 q 71 797 47 739 q 135 903 94 856 q 232 979 176 950 q 346 1008 288 1008 q 464 992 404 1008 q 572 944 522 975 q 688 760 688 872 q 669 643 688 701 q 642 568 651 585 l 453 224 z "},"@":{"ha":978,"x_min":64,"x_max":906,"o":"m 672 346 q 747 539 747 371 l 747 558 l 746 600 l 746 608 q 689 683 740 651 q 595 714 640 714 q 504 693 550 714 q 417 642 458 672 q 274 503 363 601 q 228 417 236 460 q 219 344 219 375 l 219 304 l 222 242 q 444 126 294 151 q 536 119 486 119 q 746 172 651 119 q 772 189 754 178 q 811 214 792 203 q 860 243 858 244 q 885 225 885 243 q 847 167 886 201 q 759 108 813 135 q 664 69 706 81 q 512 49 592 50 q 388 53 432 49 q 301 68 344 57 q 89 256 156 106 q 64 372 64 314 q 85 477 64 429 q 138 581 106 525 q 222 672 171 636 q 332 729 272 708 q 457 761 392 750 l 589 783 l 614 783 q 726 761 656 783 q 819 728 796 739 q 858 690 842 718 q 886 628 875 661 q 906 513 906 567 q 886 415 906 458 q 833 338 867 372 q 675 258 758 258 q 641 269 668 258 q 600 287 614 279 q 580 303 586 294 q 572 311 574 311 l 518 294 q 394 342 436 294 q 378 390 378 361 l 378 396 q 399 443 378 401 q 440 511 419 483 q 546 576 490 575 q 622 522 596 578 q 642 443 642 482 q 634 389 642 404 q 626 357 626 374 l 672 346 m 431 389 q 485 329 431 375 q 551 397 522 331 q 572 469 572 446 q 569 508 572 493 q 544 522 565 522 l 536 521 q 431 389 431 432 z "},"A":{"ha":1176,"x_min":-3,"x_max":1168,"o":"m 506 -7 l 78 -7 q 59 3 65 -7 q 53 29 53 14 q 69 57 53 44 q 108 60 86 58 q 149 63 129 61 q 197 72 193 65 l 340 453 l 342 463 q 229 525 342 517 q 190 526 204 528 q 94 488 135 526 q 53 390 53 450 q 92 350 53 350 q 127 363 119 350 q 135 396 135 375 l 135 429 q 144 444 139 442 q 162 447 150 447 q 182 440 174 447 q 196 424 190 433 q 206 383 207 403 q 197 347 206 364 q 174 317 188 331 q 111 286 140 286 q 27 313 57 286 q -3 387 -3 340 q 11 469 -3 433 q 50 532 25 506 q 181 589 104 589 q 275 580 233 589 q 364 539 317 571 l 367 538 q 374 542 368 538 q 379 549 379 546 l 492 842 l 492 846 q 488 853 492 849 q 482 858 485 858 l 293 858 q 283 870 283 858 q 290 901 283 882 q 308 921 296 921 l 913 933 q 929 922 924 933 q 935 888 935 910 q 921 865 935 865 l 794 865 l 896 564 q 903 543 899 549 q 935 538 907 538 q 1005 551 963 538 q 1094 564 1047 564 q 1118 538 1118 564 q 1106 512 1118 521 q 1078 501 1093 503 l 951 485 q 935 469 935 485 l 1076 60 l 1151 40 q 1168 21 1168 38 q 1160 -6 1168 4 q 1143 -4 1151 -4 l 1126 -4 l 864 -11 q 844 -6 849 -11 q 840 19 840 0 q 860 47 840 39 q 895 58 879 54 q 924 62 911 63 q 953 60 938 61 q 1001 57 983 57 l 1001 74 l 879 453 l 864 453 q 803 403 858 453 l 735 342 q 716 315 721 328 q 690 303 711 303 q 658 315 669 303 q 635 343 646 328 q 613 371 625 358 q 591 383 601 383 q 581 383 581 383 q 579 382 581 382 l 578 382 l 468 79 q 465 66 465 76 q 472 53 465 56 l 490 47 q 508 36 500 43 q 515 11 515 29 q 506 -7 515 -7 m 610 469 l 608 461 q 612 447 608 450 q 625 439 615 444 l 644 424 l 669 407 q 697 389 681 399 l 840 507 q 857 517 857 515 q 856 522 857 519 l 856 525 l 750 825 l 610 469 z "},"B":{"ha":1001,"x_min":15,"x_max":957,"o":"m 108 -75 q 76 -35 76 -75 q 143 33 76 8 q 242 56 172 44 l 250 64 l 250 410 q 240 428 250 424 q 219 435 231 432 q 199 445 208 439 q 189 468 189 451 q 242 513 189 510 q 215 833 242 643 q 164 808 186 833 q 123 751 142 782 q 87 694 104 719 q 53 668 69 668 q 26 681 36 668 q 15 701 15 693 l 15 714 q 17 722 15 719 q 160 886 57 825 q 368 944 257 944 q 378 946 372 946 q 558 931 482 946 q 695 889 639 914 q 788 833 751 864 q 843 772 824 803 q 879 674 879 719 q 878 661 879 664 q 882 614 882 657 q 863 538 882 571 q 801 468 844 504 q 917 388 878 439 q 957 260 957 338 q 933 131 957 182 q 874 47 910 81 q 796 -6 839 13 q 714 -35 753 -25 q 601 -49 658 -49 q 485 -39 544 -49 q 363 -29 425 -29 l 301 -29 q 291 -44 296 -40 q 273 -49 286 -49 q 251 -39 260 -49 q 224 -29 242 -29 q 193 -36 207 -29 l 164 -53 q 108 -75 129 -75 m 550 32 q 588 19 550 19 q 681 30 626 19 q 782 65 735 40 q 896 228 896 125 q 868 365 896 331 q 824 399 851 386 q 749 426 796 411 l 722 426 q 687 421 713 425 q 633 413 661 417 l 578 406 q 544 400 553 401 q 535 388 535 399 l 535 382 q 551 39 535 246 q 550 36 550 38 l 550 32 m 536 475 l 594 478 q 629 481 607 478 q 707 492 676 485 l 722 494 q 792 568 772 525 q 813 642 813 611 q 699 818 813 754 q 610 852 654 843 q 555 861 567 861 q 543 860 543 861 l 515 860 q 522 713 515 803 q 536 475 536 532 z "},"C":{"ha":900,"x_min":25,"x_max":879,"o":"m 456 8 l 524 7 q 722 49 649 7 q 797 128 788 86 q 821 188 808 174 q 846 201 833 201 q 869 194 858 201 q 879 166 879 186 q 868 115 879 146 q 838 58 857 86 q 743 -25 797 0 q 521 -69 649 -69 q 257 19 360 -69 q 106 407 122 138 l 36 407 q 25 424 25 407 q 32 449 25 440 q 49 462 39 457 q 70 469 58 467 q 92 475 82 472 q 143 711 101 606 q 209 824 176 796 q 289 875 242 853 q 385 914 335 899 q 568 943 479 943 l 725 907 q 751 932 733 922 q 792 942 768 942 q 829 876 829 942 l 786 690 q 763 682 786 688 q 725 700 735 682 q 579 869 671 853 q 538 874 556 874 q 451 810 451 874 q 453 796 451 801 l 454 800 l 454 775 l 454 631 q 446 198 454 325 q 438 40 438 71 q 456 8 438 8 z "},"D":{"ha":1060,"x_min":-4,"x_max":1003,"o":"m 494 871 l 496 857 q 490 473 496 671 q 483 167 483 275 q 488 43 483 60 q 501 17 493 25 q 561 3 515 3 q 840 132 738 3 q 935 428 935 251 q 914 588 935 504 q 847 742 893 672 q 729 858 801 813 q 556 904 657 904 q 513 899 532 904 q 494 871 494 893 m 178 957 q 306 936 233 936 q 412 940 379 936 q 469 950 444 944 q 569 964 532 964 q 728 926 650 964 q 867 819 806 889 q 965 649 928 749 q 1003 429 1003 549 q 968 219 1003 310 q 871 69 935 131 q 518 -53 742 -53 q 431 -47 474 -53 q 343 -39 388 -44 q 174 -24 210 -25 l 124 -24 q 93 -25 110 -24 q 83 3 83 -15 q 91 25 83 22 q 131 28 99 28 l 215 28 q 225 42 225 28 q 217 239 225 111 q 208 408 210 367 q 175 428 193 419 l 138 446 q 213 518 196 479 l 213 546 q 206 624 210 571 q 199 713 203 676 q 193 783 196 750 q 186 881 189 849 q 164 890 183 890 q 127 884 144 890 q 95 867 110 878 q 67 844 81 857 l 40 819 q 9 824 22 819 q -4 849 -4 829 l -4 863 q 77 932 35 911 q 178 957 119 953 z "},"E":{"ha":881,"x_min":38,"x_max":879,"o":"m 733 -12 l 690 -14 l 654 -14 q 265 -21 557 -14 l 224 -22 l 169 -22 q 90 -19 126 -22 q 54 6 54 -15 q 74 33 54 26 l 192 31 q 184 222 192 131 q 176 414 176 314 q 152 432 169 426 q 128 444 135 438 q 122 465 122 450 q 129 484 122 481 q 145 488 136 488 q 163 490 154 489 q 176 501 172 492 l 176 521 l 178 583 l 178 604 l 179 719 q 171 838 179 763 q 146 836 165 836 l 81 836 l 47 836 q 38 849 38 838 q 47 894 38 881 q 82 907 56 907 l 249 908 q 393 903 321 908 q 528 897 465 897 q 645 900 592 897 q 749 922 699 903 q 767 935 760 928 q 785 942 775 942 q 803 934 794 942 q 811 915 811 926 l 810 910 l 810 907 l 788 869 q 774 847 779 856 q 749 833 763 833 q 660 836 736 833 q 610 838 638 838 q 433 832 540 838 q 418 503 418 667 q 514 517 479 503 l 563 536 q 593 543 578 543 q 617 533 608 543 q 625 492 625 524 q 610 442 625 460 q 553 425 596 425 q 504 451 511 425 l 418 446 l 417 428 q 410 314 410 336 l 410 275 q 410 233 410 258 q 412 178 411 207 q 414 125 413 150 q 416 83 415 100 q 418 64 417 65 l 426 47 l 496 46 l 585 44 q 813 90 760 44 q 829 99 822 99 q 879 51 879 99 l 876 32 q 871 14 874 14 l 853 -4 l 839 -6 q 733 -12 769 -12 z "},"F":{"ha":933,"x_min":26,"x_max":926,"o":"m 553 -25 q 164 -35 208 -35 q 94 -32 119 -35 q 69 -4 69 -29 q 156 43 69 43 q 187 58 182 43 q 192 99 192 72 l 182 242 l 190 397 l 172 397 q 127 408 142 397 q 113 432 113 418 q 190 467 113 467 q 201 582 201 511 l 201 678 l 200 781 l 200 818 l 190 853 l 44 871 q 28 885 31 874 q 26 906 26 896 q 28 926 26 917 q 44 940 31 935 q 206 928 115 940 q 414 904 375 904 l 482 904 l 510 906 l 785 957 l 914 957 l 922 940 l 926 814 q 917 751 926 779 q 874 722 907 722 l 861 722 q 854 724 857 722 l 724 863 l 708 863 q 538 849 607 863 q 467 828 468 835 q 461 761 463 790 l 458 706 q 457 653 457 681 l 457 501 q 507 483 476 483 l 510 483 q 556 489 542 483 q 605 502 593 497 q 619 521 617 507 l 628 550 q 635 576 631 564 q 656 588 640 588 q 690 526 690 588 q 680 432 690 479 q 658 361 669 385 q 631 338 647 338 l 617 343 q 604 353 604 349 l 604 432 l 467 432 l 457 414 l 457 326 q 467 43 457 150 q 482 35 468 35 l 583 43 q 622 13 622 43 q 553 -25 622 -25 z "},"G":{"ha":1101,"x_min":1,"x_max":1101,"o":"m 781 396 l 901 390 q 991 406 946 390 q 1064 456 1036 422 q 1090 448 1078 456 q 1101 417 1101 440 q 1086 382 1101 394 q 1051 363 1071 369 q 1013 352 1032 357 q 987 331 994 347 q 977 297 979 315 q 974 258 975 278 q 972 221 972 239 q 968 189 972 203 q 561 -87 908 -87 q 258 42 383 -86 q 86 419 128 175 l 11 419 q 1 443 1 419 l 3 457 q 17 463 7 458 l 39 471 q 75 484 71 482 q 85 511 79 486 q 99 568 92 536 q 125 676 115 642 q 279 883 172 806 q 518 961 386 961 q 622 947 558 961 q 720 925 686 932 q 787 918 754 918 q 835 925 819 918 q 861 939 851 932 l 882 954 q 901 961 892 961 q 917 956 911 961 l 940 932 l 940 732 q 926 710 940 717 q 901 703 913 703 q 808 758 853 725 l 719 821 q 626 873 674 851 q 524 894 579 894 l 504 893 q 476 538 476 657 q 504 179 476 324 q 510 143 506 172 q 519 81 514 114 q 533 -8 532 -7 q 557 -26 543 -24 q 581 -29 571 -29 q 609 -24 590 -29 q 651 -12 628 -19 q 742 18 708 4 q 801 76 776 42 q 826 144 826 111 q 819 199 826 178 q 801 240 813 221 q 774 279 789 260 q 742 322 758 299 q 690 303 725 322 q 646 283 656 283 q 622 297 636 283 q 607 329 607 311 q 628 361 607 347 q 676 383 649 375 q 771 396 721 396 q 781 396 775 396 z "},"H":{"ha":1243,"x_min":40,"x_max":1229,"o":"m 225 -10 l 132 -11 q 67 -8 97 -11 q 51 2 54 -3 q 47 17 47 7 l 50 36 q 57 56 54 56 l 232 56 l 240 251 q 207 397 240 397 q 158 383 181 397 q 115 369 135 369 q 82 399 82 369 q 83 413 82 407 q 92 422 83 418 l 213 474 l 213 525 l 161 801 l 57 801 q 40 847 40 840 q 60 868 40 865 q 104 871 79 871 l 143 869 q 156 891 149 885 q 178 897 163 897 q 203 891 193 897 q 263 885 214 885 q 396 899 313 885 q 564 914 479 914 q 610 882 610 914 q 599 852 610 858 q 572 846 588 846 l 538 847 q 503 838 518 847 q 488 801 488 829 q 489 757 488 772 q 493 725 490 742 q 497 653 497 694 q 497 632 497 643 l 496 550 l 506 533 l 651 533 l 971 468 l 971 801 q 965 819 971 807 q 944 843 954 843 l 807 843 q 797 864 797 843 q 1015 913 797 913 q 1076 914 1051 913 q 1106 915 1093 915 q 1118 914 1113 914 q 1151 890 1151 913 q 1126 857 1151 864 q 1085 850 1101 850 l 1057 850 q 1040 851 1046 850 l 1031 843 l 1022 486 q 1041 483 1036 486 q 1050 481 1046 481 q 1103 532 1054 481 q 1203 629 1193 629 q 1221 621 1213 629 q 1229 592 1229 613 q 1206 542 1229 572 q 1149 483 1182 511 q 1022 404 1088 433 q 1024 317 1022 358 l 1024 236 q 1031 60 1025 142 q 1059 51 1042 54 q 1093 42 1076 47 q 1135 4 1135 29 q 1088 -28 1135 -28 q 989 -17 1040 -28 q 885 -7 938 -7 l 858 -8 q 849 18 849 -7 q 924 63 849 63 q 961 60 947 63 l 971 103 l 971 396 l 651 465 l 583 467 q 506 439 522 467 l 496 158 l 496 129 q 506 42 496 51 l 549 42 q 644 6 644 42 q 590 -35 644 -17 q 560 -30 572 -35 q 533 -25 549 -25 q 510 -28 518 -25 q 494 -35 501 -31 q 467 -44 478 -44 l 464 -44 q 461 -43 463 -44 q 225 -10 394 -10 z "},"I":{"ha":635,"x_min":36,"x_max":588,"o":"m 450 -47 l 381 -50 l 354 -50 q 292 -47 314 -50 q 211 -39 240 -39 l 94 -39 q 60 -32 71 -39 q 49 -3 50 -25 q 67 22 47 19 q 110 23 86 25 q 156 21 133 21 q 185 33 178 21 l 188 228 l 190 378 q 189 399 190 393 q 171 396 181 396 q 149 413 161 396 q 136 444 136 431 q 144 463 136 458 q 163 471 153 468 q 181 476 172 474 q 189 486 189 479 q 184 577 185 528 q 182 677 183 626 q 180 778 181 728 q 175 871 179 828 q 163 881 165 881 l 110 881 q 74 881 92 881 q 46 894 56 882 q 36 917 36 906 q 37 933 36 928 q 46 943 38 939 l 183 950 q 232 947 208 947 l 479 953 l 499 953 l 558 951 l 578 951 q 588 923 588 947 q 574 890 588 899 q 522 881 560 881 l 456 883 q 449 611 456 750 q 443 302 443 472 q 458 17 443 132 l 553 10 q 583 -22 582 10 q 565 -37 578 -35 l 450 -47 z "},"J":{"ha":897,"x_min":26,"x_max":783,"o":"m 572 931 l 724 939 q 772 900 760 939 q 783 814 783 861 l 783 706 q 751 306 783 450 q 670 78 719 161 q 560 -53 621 -6 q 297 -132 457 -132 q 292 -132 294 -132 q 26 151 26 -132 q 49 267 26 236 q 78 283 60 283 q 109 277 97 283 q 132 261 121 271 q 156 239 143 251 q 184 215 168 226 q 213 197 200 203 q 232 188 225 192 q 246 160 246 179 q 241 117 246 140 q 230 74 236 94 q 217 37 224 53 q 210 14 211 21 q 210 -6 210 7 q 213 -32 210 -19 q 242 -62 218 -62 q 415 -18 360 -62 q 433 178 433 56 q 436 389 433 300 l 443 550 l 449 689 q 451 840 451 757 l 450 860 l 450 871 l 415 879 l 278 863 q 218 829 243 857 q 174 742 174 781 q 195 690 174 703 q 243 675 217 678 l 292 668 q 313 650 313 665 q 285 617 313 631 q 231 603 258 603 q 181 618 204 603 q 138 656 157 633 q 99 740 99 701 q 146 846 99 785 q 282 932 190 903 q 381 947 332 947 q 452 944 431 947 q 492 939 474 942 l 529 933 q 572 931 547 931 z "},"K":{"ha":1149,"x_min":32,"x_max":1154,"o":"m 883 -24 q 842 0 842 -24 q 856 34 842 24 q 885 49 869 44 q 915 58 901 54 q 929 73 929 61 q 924 88 929 85 q 899 114 918 92 q 850 181 881 136 q 785 264 821 224 q 621 361 699 361 q 517 317 543 361 q 511 209 511 271 q 516 119 511 147 q 538 64 521 90 l 626 83 q 640 71 631 83 q 649 48 649 58 q 638 28 649 38 q 611 14 626 19 q 557 3 586 3 l 83 3 q 83 10 83 7 q 93 46 83 38 q 130 63 107 58 q 170 76 153 67 q 203 86 188 85 l 204 129 q 197 260 204 199 q 181 400 189 321 l 125 400 q 139 444 125 424 q 181 464 153 464 l 181 856 q 140 847 169 853 l 65 833 q 32 876 32 833 l 33 897 q 235 938 107 925 q 278 940 264 940 l 410 939 l 558 938 l 578 938 q 597 939 586 939 l 601 939 q 632 907 632 939 q 601 887 632 894 q 554 873 569 879 q 538 856 539 867 q 515 515 515 760 l 515 500 l 517 457 l 517 443 q 628 542 546 465 l 765 669 q 874 767 824 719 q 1012 888 985 868 q 1049 912 1039 908 q 1077 915 1060 915 q 1105 914 1094 915 q 1121 893 1115 913 q 1022 788 1085 846 l 892 668 l 763 549 q 664 443 700 490 q 851 292 751 406 q 932 195 893 244 q 1008 109 971 146 q 1076 62 1044 72 q 1154 51 1108 51 q 1044 -8 1154 11 q 903 -22 969 -21 l 883 -24 z "},"L":{"ha":1043,"x_min":32,"x_max":1026,"o":"m 601 -3 q 238 -26 425 -26 q 149 -24 189 -26 q 75 -10 110 -21 q 36 10 40 0 q 32 54 32 19 l 179 54 l 178 161 l 178 203 q 181 238 178 222 l 175 404 q 117 419 126 413 q 108 435 108 425 q 117 456 108 446 q 135 478 124 467 q 168 519 165 508 q 176 567 171 531 q 188 649 182 604 l 199 732 q 203 781 204 771 l 200 868 l 90 861 q 61 892 61 861 q 82 907 60 899 q 135 921 118 921 l 165 919 l 583 939 q 643 910 643 939 q 603 875 643 881 q 521 860 533 865 q 513 836 515 844 q 497 778 500 804 l 492 719 q 484 652 488 688 q 477 585 481 617 q 472 532 474 554 q 465 488 469 510 q 457 311 457 443 l 458 144 q 467 90 458 110 q 519 69 476 69 l 621 63 q 671 69 654 63 l 704 86 q 738 103 721 93 q 794 139 783 128 l 835 178 q 890 239 860 207 l 985 340 q 1026 254 1026 325 q 1008 133 1026 201 q 976 39 989 65 q 915 -22 947 -22 q 787 -12 850 -22 q 688 -1 724 -1 l 643 -1 l 610 -3 l 601 -3 z "},"M":{"ha":1560,"x_min":-15,"x_max":1569,"o":"m 319 844 l 229 836 q 173 849 189 836 q 157 878 157 861 q 183 908 157 894 q 447 931 335 929 q 643 932 558 932 q 726 538 646 847 l 768 386 l 779 383 q 910 638 818 383 l 939 719 l 957 768 q 961 789 961 779 l 960 838 l 960 861 q 965 881 960 865 q 985 897 969 897 l 1261 944 q 1329 908 1329 944 q 1315 879 1329 886 q 1282 868 1300 872 q 1249 857 1264 864 q 1235 829 1235 850 q 1244 761 1235 808 q 1268 664 1254 714 q 1326 526 1303 540 q 1349 519 1335 522 q 1374 511 1361 514 q 1403 493 1403 503 q 1394 468 1403 476 q 1376 451 1386 460 q 1350 399 1350 429 l 1350 363 l 1360 333 q 1381 278 1368 308 l 1403 217 l 1424 158 q 1445 113 1433 133 q 1474 82 1457 93 q 1568 51 1496 67 l 1569 36 q 1565 16 1569 29 q 1546 3 1560 3 l 1238 3 l 1169 75 l 1010 646 l 985 625 q 853 333 904 432 q 792 217 803 233 l 765 175 q 726 128 746 150 q 643 72 678 72 q 642 72 643 72 q 592 94 607 74 q 564 147 576 115 l 463 425 q 386 708 413 567 q 353 590 376 681 l 314 439 q 282 321 299 378 q 232 165 244 189 q 216 130 219 140 q 210 108 213 119 q 204 75 204 88 q 215 51 204 63 l 318 51 q 315 38 317 47 q 307 18 313 28 q 254 -7 290 -7 l -15 -7 q -2 33 -15 22 q 29 50 11 44 l 67 60 q 97 86 85 65 q 119 129 106 104 q 143 178 132 154 q 183 273 171 232 q 221 383 194 314 l 271 519 q 310 651 294 586 q 326 760 326 717 q 319 844 326 803 z "},"N":{"ha":1133,"x_min":69,"x_max":1090,"o":"m 319 3 l 96 6 q 75 19 79 6 q 69 51 69 36 q 79 69 69 64 q 102 79 89 75 q 128 89 115 83 q 147 111 142 94 q 190 629 176 299 q 194 757 193 717 l 194 814 q 192 847 194 831 q 94 865 107 847 q 79 921 79 888 q 364 941 229 935 q 524 947 499 947 q 622 913 621 947 q 593 881 622 896 q 564 855 564 867 q 583 809 564 843 q 626 735 601 775 q 718 601 683 646 q 729 604 721 604 q 796 629 771 604 q 800 605 800 621 q 794 581 800 589 q 782 564 790 572 q 763 523 763 542 q 765 504 763 504 q 796 438 771 488 l 838 353 q 871 288 854 318 q 899 233 888 257 q 915 203 911 210 q 928 373 928 258 q 924 569 928 488 q 915 719 921 653 q 894 872 904 872 l 764 861 q 778 917 764 901 q 803 933 792 932 l 833 936 q 868 942 850 939 q 903 944 888 942 q 1008 953 958 953 q 1088 940 1083 953 l 1090 908 q 1055 901 1076 907 q 1018 892 1033 894 q 999 880 1014 889 q 979 868 983 871 q 976 831 978 857 q 974 775 976 806 q 968 685 968 706 l 968 663 q 979 222 972 324 q 986 106 986 121 q 694 0 981 13 q 653 10 667 0 q 640 47 640 21 q 643 78 640 72 l 472 369 l 383 363 q 384 376 383 368 q 391 398 385 383 q 411 422 397 413 q 425 456 425 432 q 407 522 425 481 q 363 611 388 564 q 257 767 310 707 q 250 732 250 756 l 250 707 q 240 508 249 640 q 224 196 224 253 q 232 76 224 86 q 254 69 238 69 q 290 68 271 69 q 323 60 308 67 q 338 28 338 53 q 319 3 338 3 z "},"O":{"ha":1083,"x_min":56,"x_max":1026,"o":"m 711 -3 q 510 -40 615 -40 q 325 -4 406 -40 q 184 91 244 32 q 90 226 124 150 q 56 373 56 303 q 67 508 56 443 q 100 639 78 575 q 367 939 181 867 q 525 967 439 967 q 924 814 794 967 q 1026 504 1026 692 q 878 106 1025 253 q 711 -3 808 36 m 338 494 q 333 398 333 442 q 344 306 333 354 q 372 206 356 256 q 468 18 407 107 q 507 6 472 6 q 564 11 529 6 q 689 103 667 26 q 719 202 704 161 q 744 279 733 243 q 769 419 769 360 q 765 524 769 478 q 751 620 761 569 q 725 722 742 671 q 686 814 711 772 q 554 907 632 906 q 418 811 474 906 q 338 494 354 703 z "},"P":{"ha":894,"x_min":31,"x_max":874,"o":"m 101 -17 q 85 10 85 -17 q 111 36 85 36 l 190 29 l 190 496 l 146 490 q 118 517 118 490 q 148 534 118 526 q 185 542 178 542 q 133 872 185 794 q 100 893 119 893 l 60 890 q 31 917 31 890 q 50 943 31 935 q 165 947 113 947 l 288 947 q 788 836 629 947 q 874 665 874 776 q 826 513 874 582 q 767 455 806 482 q 678 413 728 428 q 582 393 629 399 q 435 386 524 386 l 435 53 l 451 36 q 476 38 460 38 l 513 38 q 583 33 568 38 q 626 1 606 26 l 608 -17 l 101 -17 m 517 450 l 572 451 q 674 528 646 456 q 690 637 690 574 q 685 732 690 700 q 667 790 681 764 q 507 882 629 861 q 397 893 442 893 q 397 871 397 882 q 421 536 397 671 q 437 475 429 492 q 460 454 444 458 q 517 450 475 450 z "},"Q":{"ha":1151,"x_min":15,"x_max":1151,"o":"m 622 943 l 667 944 q 899 847 768 944 q 1000 599 992 778 q 1003 507 1003 551 q 994 401 1003 463 q 969 278 986 339 q 882 69 933 136 q 871 51 871 64 q 886 19 871 38 q 924 -17 901 0 q 1003 -58 976 -57 q 1006 -58 1004 -58 q 1044 -50 1029 -58 q 1072 -25 1061 -39 q 1096 44 1097 6 q 1081 89 1097 65 q 1050 150 1050 132 q 1056 163 1050 151 q 1077 172 1063 174 q 1107 156 1092 169 q 1132 122 1122 142 q 1151 46 1151 82 q 1140 -17 1151 10 q 1108 -67 1128 -44 q 999 -112 1067 -112 q 994 -112 996 -112 q 923 -93 954 -112 q 864 -51 892 -74 l 796 3 l 794 3 q 792 3 793 3 q 790 3 790 4 q 789 3 790 3 l 788 3 q 510 -83 558 -83 l 506 -83 q 335 -31 431 -83 q 103 242 164 63 q 81 386 81 307 q 83 428 81 406 q 69 433 81 429 q 47 442 58 436 q 15 469 15 454 q 26 489 15 482 q 50 497 36 494 q 93 503 68 503 q 260 878 129 717 q 469 1007 365 1007 q 585 978 526 1007 q 594 969 592 975 q 600 957 597 963 q 622 943 607 943 m 356 382 q 386 103 356 247 q 438 28 407 57 q 540 -26 507 -21 q 639 -7 582 -26 q 749 58 749 31 q 697 133 747 92 q 625 172 643 169 q 594 158 608 172 q 549 131 567 131 q 522 143 532 131 q 511 172 511 156 q 542 222 511 204 q 606 240 572 240 q 668 231 640 240 q 719 203 696 221 q 784 142 753 176 q 817 106 815 107 q 819 106 818 106 q 925 361 869 106 q 944 474 944 446 q 883 764 944 671 q 668 867 817 867 q 490 781 567 867 q 364 481 394 672 q 356 382 356 428 z "},"R":{"ha":1044,"x_min":36,"x_max":1063,"o":"m 853 93 l 854 119 q 854 133 854 126 q 844 213 854 186 q 736 322 817 292 q 697 329 717 331 q 615 308 660 321 l 572 296 l 564 288 l 581 29 l 624 29 q 671 27 649 29 q 693 6 693 25 q 602 -33 693 -33 q 417 -23 511 -33 q 228 -12 324 -12 l 185 -14 q 167 13 167 -6 q 182 38 167 32 q 219 46 197 44 q 262 47 240 47 q 296 54 283 47 l 297 107 q 263 804 297 475 q 258 817 261 807 q 254 829 256 826 l 250 831 q 156 744 222 831 q 122 697 139 722 q 100 606 100 664 q 99 569 99 585 q 100 518 99 536 q 111 467 103 489 q 178 378 125 425 q 142 347 178 360 q 58 438 89 347 q 36 576 36 501 q 75 739 36 657 q 193 874 113 821 q 410 918 282 918 q 728 858 608 918 q 849 755 800 822 q 899 575 899 688 q 897 561 899 571 l 894 544 q 890 519 890 517 l 796 374 l 796 364 q 926 86 926 317 l 925 38 q 956 11 951 11 q 974 31 965 19 q 994 50 983 42 q 1035 74 1029 74 q 1056 73 1050 74 q 1063 58 1063 72 q 1056 22 1063 43 q 1036 -17 1049 1 q 967 -58 1007 -58 q 928 -50 943 -58 q 890 -22 914 -42 q 859 27 865 -3 q 853 93 853 57 m 528 856 l 529 829 q 542 610 538 721 q 564 390 546 499 q 581 381 568 381 q 839 563 783 381 q 769 754 839 682 q 719 790 744 779 q 669 811 694 801 q 619 832 644 822 q 556 856 561 856 l 528 856 z "},"S":{"ha":861,"x_min":61,"x_max":793,"o":"m 793 664 q 742 642 793 642 q 714 658 733 642 l 667 703 l 603 758 q 533 815 569 789 q 397 876 433 872 q 231 814 275 876 q 214 762 214 790 q 229 709 214 733 q 282 657 244 685 q 544 535 363 597 q 556 550 547 538 l 574 575 q 608 608 599 608 q 624 601 618 608 q 631 586 631 593 q 627 571 631 579 q 618 553 624 563 q 601 519 603 526 q 739 396 703 449 q 782 238 782 333 q 682 32 782 117 q 422 -56 579 -56 q 269 -30 344 -56 q 146 57 193 -4 l 143 58 q 135 55 140 58 q 129 49 129 51 l 110 -46 q 94 -56 108 -56 q 74 -52 79 -56 q 63 -37 69 -49 l 61 18 q 72 213 61 85 q 103 232 79 232 q 143 210 126 232 q 175 160 160 189 l 206 101 q 242 57 221 72 q 297 28 254 44 q 450 -10 389 -10 q 569 39 524 -10 q 613 157 613 85 q 536 261 613 203 q 408 317 463 317 q 381 306 399 317 q 340 285 349 285 q 342 297 342 292 l 342 307 q 336 338 342 326 q 138 472 181 417 q 106 543 113 506 q 99 628 99 581 q 146 832 99 751 q 240 913 179 889 q 353 938 300 938 q 440 931 407 938 q 504 911 474 924 q 631 840 547 893 l 642 840 l 715 928 l 732 929 q 772 910 767 929 q 793 664 793 735 z "},"T":{"ha":963,"x_min":4,"x_max":968,"o":"m 224 -25 q 206 6 206 -25 q 208 21 206 14 q 224 28 211 28 l 328 28 q 336 113 331 63 q 347 225 342 164 q 361 501 361 378 l 361 839 l 276 826 l 47 679 q 45 673 46 679 q 42 667 44 667 q 15 681 26 667 q 4 710 4 694 l 97 954 l 254 906 q 369 893 293 893 l 476 896 l 611 894 q 778 925 713 894 q 799 936 790 931 q 814 949 806 943 q 849 960 829 960 q 874 951 868 960 l 968 758 q 955 738 968 751 q 942 726 942 725 l 781 794 l 665 839 q 638 831 649 839 q 622 797 628 822 q 611 606 611 756 l 603 233 q 619 36 603 58 q 633 29 625 28 l 708 36 q 739 33 726 36 q 750 19 750 33 q 732 -19 750 -17 l 646 -25 l 224 -25 z "},"U":{"ha":1029,"x_min":25,"x_max":919,"o":"m 872 950 q 891 939 882 950 q 902 900 900 928 q 908 839 904 872 l 914 775 q 919 612 919 704 q 914 421 919 519 q 883 247 906 322 q 703 0 838 97 q 622 -28 688 -11 q 543 -44 556 -44 q 497 -41 531 -44 q 429 -31 464 -37 q 319 14 346 -14 l 276 61 q 247 98 258 81 q 226 136 235 115 q 210 192 218 157 q 165 411 196 247 l 125 429 q 136 458 129 449 q 160 472 143 467 q 172 524 164 482 q 181 569 181 567 l 172 665 l 179 869 q 128 847 143 869 q 104 797 113 824 l 89 747 q 64 724 82 724 q 35 736 46 724 q 25 782 25 749 q 46 851 25 815 q 100 908 67 886 q 257 949 163 949 q 264 949 261 949 l 414 939 q 480 944 449 939 q 535 950 511 950 q 558 932 558 950 q 544 902 558 914 q 511 882 531 890 q 444 863 479 868 q 431 800 436 851 q 426 733 426 749 l 431 465 l 500 472 q 515 444 515 472 q 490 410 515 417 q 435 403 465 404 l 435 376 l 488 26 q 551 17 489 17 q 667 46 613 17 q 758 122 721 75 q 817 228 794 168 q 850 347 839 286 q 868 547 868 436 q 868 563 868 554 l 867 639 q 855 747 867 682 q 838 846 843 811 q 832 915 832 881 q 872 950 832 950 z "},"V":{"ha":918,"x_min":-8,"x_max":939,"o":"m 882 882 l 843 885 l 606 -6 q 589 -28 600 -25 q 545 -32 578 -32 q 464 -19 513 -32 l 365 4 q 340 39 343 19 l 224 411 l 139 411 q 129 431 129 411 q 142 456 129 451 q 169 460 154 460 q 196 464 183 461 q 208 481 208 467 l 138 858 l 1 858 q -8 878 -8 858 q 6 908 -8 899 q 40 921 21 917 q 80 926 60 925 q 117 928 100 926 q 150 931 133 929 q 185 935 167 933 q 249 938 221 938 l 288 938 l 332 936 l 346 936 q 372 906 368 926 q 376 874 375 886 q 388 850 378 861 l 581 124 l 589 124 l 739 731 l 739 739 q 747 779 742 744 q 754 831 751 814 q 757 850 757 847 l 757 860 q 747 881 757 881 l 644 881 q 635 904 635 881 q 642 934 635 928 q 660 943 649 940 q 694 947 671 946 l 744 950 l 793 953 q 824 954 817 954 q 850 953 832 954 q 888 949 868 953 q 939 910 939 938 q 882 882 939 882 z "},"W":{"ha":1236,"x_min":26,"x_max":1243,"o":"m 1215 826 l 1156 835 q 1146 831 1153 835 q 1139 826 1139 828 l 957 0 q 943 -25 954 -14 q 918 -36 932 -36 q 894 -27 904 -36 q 885 -9 885 -18 q 888 8 885 0 l 742 457 l 742 463 l 732 465 q 700 353 725 465 l 631 51 q 639 44 631 46 q 661 38 650 42 q 692 6 692 26 q 686 -22 692 -17 q 658 -26 682 -26 q 578 -23 633 -25 q 462 -17 524 -21 q 345 -12 400 -14 q 268 -8 290 -10 q 250 15 250 -1 q 259 39 250 31 q 281 53 268 47 q 321 60 297 60 q 329 60 325 60 l 329 94 l 131 793 l 121 801 q 96 671 96 749 q 101 632 96 647 q 106 599 106 617 q 100 578 106 582 q 72 575 94 575 q 38 592 50 575 q 26 647 26 610 q 28 715 26 685 q 33 775 28 744 q 88 869 47 847 l 111 881 q 182 913 174 911 l 372 913 q 399 903 382 913 q 415 885 415 894 q 411 871 415 875 q 401 863 407 867 q 388 840 388 851 l 389 826 l 578 164 l 586 156 l 621 240 l 690 611 q 689 622 689 617 l 689 633 q 703 729 689 682 q 717 826 717 776 q 680 838 708 832 q 631 843 651 843 l 625 856 q 622 869 622 863 q 628 885 621 875 q 647 896 635 894 l 776 904 q 821 868 821 904 q 793 810 821 831 q 768 716 778 757 q 758 626 758 675 l 758 594 l 914 103 l 922 94 l 1060 775 l 1060 824 l 982 817 q 963 819 971 817 q 956 835 956 821 q 1099 904 956 904 q 1243 856 1243 904 q 1215 826 1243 826 z "},"X":{"ha":1074,"x_min":-18,"x_max":1094,"o":"m 585 -54 q 542 -22 542 -54 q 611 24 542 14 l 611 40 l 439 333 q 426 343 433 343 q 424 342 425 343 l 422 342 l 192 58 l 310 58 q 323 44 318 58 q 328 21 328 31 q 309 2 328 11 q 262 -12 290 -7 q 200 -22 233 -18 q 133 -26 164 -25 q 51 -29 71 -29 l 8 -28 q -8 -11 1 -22 q -18 3 -18 0 q -1 33 -18 25 q 40 42 17 40 q 83 43 63 43 q 111 50 104 43 l 393 411 l 121 833 q 61 868 99 868 q 38 876 40 868 q 33 889 36 885 q 51 911 33 903 q 76 919 68 919 l 542 919 q 557 906 546 919 q 568 885 568 893 q 558 872 568 878 q 539 861 550 867 q 500 850 514 850 l 638 610 q 650 600 638 604 l 653 600 l 886 850 l 886 867 l 874 867 l 839 868 l 828 868 l 758 860 q 735 874 739 860 q 731 897 731 889 l 731 913 q 732 919 731 919 l 749 929 q 769 932 751 931 l 814 936 q 869 940 839 938 q 925 943 899 942 q 970 946 951 944 q 1000 947 989 947 q 1050 914 1050 947 q 1042 894 1050 903 l 982 868 l 706 550 l 681 532 l 965 40 l 974 32 q 1019 35 988 35 q 1073 27 1051 35 q 1094 -8 1094 19 q 1085 -28 1094 -26 q 1033 -32 1063 -31 l 978 -35 q 931 -36 950 -36 l 904 -36 l 819 -36 q 789 -35 804 -36 q 731 -36 760 -35 q 585 -54 625 -39 z "},"Y":{"ha":985,"x_min":3,"x_max":1026,"o":"m 199 43 l 190 90 l 190 96 q 214 156 199 126 l 246 211 q 283 323 283 281 q 273 374 283 365 q 249 384 263 383 q 226 385 236 385 q 215 395 215 385 q 222 411 215 406 q 239 421 228 417 q 279 432 258 429 q 199 614 243 494 l 139 817 l 139 838 q 28 864 56 839 q 15 897 14 875 l 17 919 l 219 939 q 303 886 303 939 l 301 881 l 301 876 l 219 838 q 218 833 218 835 l 218 829 q 247 703 222 796 q 289 561 272 611 q 342 451 325 451 l 361 451 l 561 846 q 558 885 558 854 q 566 933 558 917 q 600 949 574 949 l 714 946 l 1026 954 q 972 897 1026 914 q 907 888 942 889 q 844 806 896 843 l 865 786 q 842 764 858 781 l 817 738 l 804 725 l 804 706 l 665 472 l 664 460 q 670 447 664 450 q 685 441 676 443 q 699 435 693 439 q 706 417 706 432 q 693 394 706 403 q 664 381 681 386 l 631 371 q 604 351 613 365 q 494 96 529 239 q 493 85 493 93 q 497 64 493 76 l 676 64 l 697 33 q 3 -33 661 -33 q 13 26 3 10 q 29 43 22 43 l 199 43 z "},"Z":{"ha":1068,"x_min":50,"x_max":1058,"o":"m 999 110 q 1018 126 999 126 q 1058 88 1058 126 q 1024 -8 1058 32 q 932 -50 988 -50 q 903 -46 917 -50 l 467 47 l 224 -11 q 172 -43 196 -31 q 128 -56 149 -56 q 85 -29 85 -56 l 86 -19 l 232 332 q 267 393 267 382 q 206 383 239 383 q 168 390 174 383 q 163 410 163 397 q 166 437 163 424 q 189 454 169 450 l 326 481 l 576 824 q 447 867 554 867 q 153 776 239 867 q 118 682 118 740 q 144 617 117 647 l 164 597 q 172 578 172 588 q 164 562 172 568 q 140 556 156 556 q 107 568 125 556 q 76 600 89 581 q 50 682 50 642 q 91 801 50 753 q 192 876 132 849 q 442 928 303 928 l 464 928 l 747 867 q 853 876 806 867 q 954 885 901 885 l 989 885 l 981 850 l 697 481 q 696 478 696 479 l 696 475 q 713 460 696 463 q 752 457 731 458 q 791 452 774 456 q 808 433 808 449 q 783 405 808 410 q 733 400 758 400 l 685 400 q 654 401 661 400 l 636 385 l 507 118 q 506 115 507 117 q 553 101 506 113 q 656 82 635 82 q 663 83 661 82 l 861 22 l 886 21 q 1001 75 1001 21 l 999 110 z "},"[":{"ha":656,"x_min":103,"x_max":638,"o":"m 106 874 l 113 925 q 121 942 113 932 q 132 951 129 951 l 549 917 q 559 928 551 919 q 576 944 567 936 l 594 961 q 606 972 603 969 q 610 974 608 974 l 610 972 l 615 972 l 621 972 q 624 971 624 972 q 638 923 638 947 q 636 881 638 899 q 633 853 635 864 q 629 833 632 842 q 604 813 622 811 q 578 827 586 815 q 561 853 569 839 l 354 888 q 335 876 339 890 q 332 856 332 863 l 332 838 l 382 24 l 504 13 q 521 24 518 11 q 524 51 524 36 q 546 99 524 94 q 621 -50 586 65 l 622 -71 q 578 -58 601 -69 q 501 -37 532 -39 q 474 -36 488 -36 q 436 -37 456 -36 q 363 -44 399 -40 q 251 -51 297 -51 q 161 -39 192 -50 q 135 8 139 -31 l 103 822 l 103 831 q 103 844 103 836 l 106 861 q 106 874 106 869 z "},"\\":{"ha":508,"x_min":46,"x_max":458,"o":"m 433 -25 q 353 114 413 -25 l 328 175 l 292 260 l 236 397 l 172 560 l 110 718 q 46 901 46 888 q 56 922 46 915 q 76 929 65 929 q 106 903 88 929 q 144 839 125 875 q 211 693 165 800 q 274 519 265 554 q 286 468 281 485 q 308 404 296 433 l 333 342 l 392 192 l 425 103 q 458 -4 458 17 q 433 -25 458 -25 z "},"]":{"ha":656,"x_min":18,"x_max":553,"o":"m 325 838 l 324 856 q 320 876 324 863 q 303 888 317 890 l 94 853 q 78 827 86 839 q 56 814 69 815 q 35 819 42 813 q 26 834 29 825 q 23 853 24 843 q 20 881 22 864 q 18 923 18 899 q 32 971 18 947 q 35 972 32 972 l 40 972 l 46 972 l 46 974 q 51 972 49 975 q 63 961 54 969 l 81 944 l 97 928 q 107 917 106 919 l 524 951 q 535 942 526 951 q 544 928 543 932 q 547 903 546 924 q 549 876 549 883 q 550 861 550 869 l 553 844 q 553 831 553 836 l 553 822 l 521 8 q 494 -40 517 -31 q 438 -51 472 -49 q 403 -53 421 -53 q 365 -51 385 -53 q 293 -44 329 -49 q 179 -36 225 -36 q 117 -44 136 -36 q 90 -54 104 -50 q 33 -71 54 -69 l 35 -50 q 110 99 69 65 q 132 51 132 94 q 134 24 132 36 q 151 13 136 11 l 274 24 l 325 838 z "},"^":{"ha":568,"x_min":17,"x_max":543,"o":"m 279 921 l 286 922 q 344 904 333 913 l 526 740 q 536 726 529 738 q 543 706 543 714 q 508 689 543 689 l 328 835 q 316 842 322 840 q 307 844 310 843 q 304 844 304 844 q 303 843 304 843 l 301 843 l 96 619 q 72 599 81 604 q 50 593 64 593 q 30 597 36 593 q 17 611 24 600 q 42 669 25 651 q 96 706 60 688 l 275 921 l 279 921 z "},"_":{"ha":890,"x_min":67,"x_max":818,"o":"m 783 0 q 428 -11 621 -11 l 151 -11 q 67 21 68 -11 q 103 61 67 43 l 472 51 l 771 61 q 804 57 790 61 q 818 35 818 53 q 783 0 818 0 z "},"`":{"ha":336,"x_min":15,"x_max":322,"o":"m 321 979 l 322 972 q 315 951 322 956 q 293 947 308 947 l 283 947 q 278 949 281 947 l 17 1032 q 15 1033 15 1032 l 15 1036 q 26 1060 15 1051 q 43 1068 36 1068 l 44 1067 l 53 1067 l 60 1067 l 321 983 l 321 979 z "},"a":{"ha":749,"x_min":26,"x_max":751,"o":"m 465 433 q 368 543 465 543 q 310 511 326 543 q 301 472 301 493 q 306 444 300 450 q 313 425 313 439 q 283 392 313 400 q 231 386 265 386 q 168 374 206 386 q 125 361 131 361 q 106 376 113 361 q 100 406 100 392 q 133 484 100 431 q 189 556 165 538 q 268 608 232 588 q 343 628 304 628 q 601 521 543 628 q 635 374 635 460 q 625 297 635 336 q 615 222 615 258 q 639 114 615 164 q 692 64 669 71 q 708 69 700 64 q 722 75 715 75 q 751 47 751 75 q 726 -3 751 18 q 631 -44 676 -44 q 565 -39 585 -44 q 531 -24 546 -33 q 504 -3 515 -14 l 482 18 l 461 39 q 451 49 453 49 q 213 -65 357 -65 q 78 -8 131 -65 q 26 99 26 49 q 121 251 26 193 q 415 338 218 310 q 446 347 435 339 q 465 433 465 361 m 272 213 q 257 165 257 188 q 267 68 257 113 q 300 21 276 24 q 360 40 335 21 q 407 110 404 75 l 424 283 q 272 213 315 283 z "},"b":{"ha":797,"x_min":-24,"x_max":753,"o":"m 82 786 q 39 782 74 782 q -10 789 4 782 q -24 812 -24 796 q -19 835 -24 828 q -6 847 -14 843 q 8 853 1 851 l 25 856 q 56 867 33 858 l 103 882 q 204 919 182 908 q 244 939 225 931 q 314 961 292 961 q 317 963 315 963 q 344 951 338 963 q 353 922 353 940 q 344 892 353 903 q 334 865 336 882 q 326 808 332 849 q 313 714 319 767 q 290 501 292 558 l 322 533 q 390 574 354 565 q 480 582 426 582 q 586 558 533 582 q 675 492 639 533 q 753 264 753 403 q 667 85 753 160 q 438 -15 576 7 q 378 -7 401 -15 q 324 19 354 1 q 317 27 319 25 q 307 29 315 29 q 267 6 288 19 q 225 -21 247 -8 q 138 -51 172 -51 q 97 -40 104 -51 q 90 15 90 -28 q 97 114 90 57 q 104 225 104 171 q 103 352 104 279 q 99 503 101 425 q 82 786 92 678 m 494 497 q 457 513 478 513 q 407 503 436 513 q 353 475 378 492 q 290 381 292 433 l 290 176 q 331 89 290 131 q 422 46 388 51 q 510 139 475 47 q 542 329 542 225 q 494 497 542 453 z "},"c":{"ha":760,"x_min":46,"x_max":724,"o":"m 656 607 q 690 595 674 607 q 706 582 706 583 l 706 424 q 689 400 706 410 q 658 390 672 390 q 623 410 643 390 q 575 456 603 431 q 422 519 501 519 q 370 489 393 519 q 333 424 347 458 q 314 356 319 389 q 306 253 306 308 q 304 246 304 249 q 314 156 304 194 q 342 83 325 117 q 435 8 394 19 q 619 93 532 8 q 632 114 628 103 q 642 136 636 125 q 681 160 654 160 q 715 147 707 161 q 724 119 724 133 q 683 65 711 94 q 624 15 654 36 q 561 -18 594 -6 q 416 -40 501 -40 q 264 -25 331 -40 q 150 28 199 -8 q 46 283 46 107 q 133 489 47 406 q 393 585 232 583 q 470 577 435 585 q 557 569 506 569 q 656 607 608 569 z "},"d":{"ha":924,"x_min":46,"x_max":919,"o":"m 581 799 q 535 788 556 799 q 493 776 515 776 q 463 786 471 776 q 456 808 456 796 q 465 833 456 821 q 486 848 475 846 q 535 860 497 850 q 615 882 572 869 l 696 906 q 740 917 735 914 q 774 932 763 924 q 789 942 783 939 q 822 947 801 947 q 850 938 843 947 q 857 909 857 929 q 847 876 857 889 q 833 822 838 864 l 819 707 l 800 557 q 774 311 779 389 q 767 213 769 233 l 761 172 q 754 92 754 122 q 760 39 754 63 q 829 61 800 42 q 886 108 858 81 q 919 76 919 106 q 900 26 919 46 q 853 -7 881 6 q 758 -31 800 -31 q 693 -18 715 -31 q 651 14 671 -6 q 593 100 619 46 q 460 -10 540 33 q 299 -54 379 -54 q 174 -29 219 -54 q 99 39 126 -3 q 46 264 46 119 q 83 383 46 326 q 173 481 121 439 q 278 549 225 524 q 376 574 332 574 q 456 566 421 574 q 512 549 490 558 q 546 529 533 539 q 569 515 558 519 q 592 597 589 553 q 596 719 596 640 q 581 799 596 799 m 282 228 q 299 136 285 181 q 394 32 346 49 q 397 32 396 32 q 514 103 468 32 q 571 250 551 158 q 585 354 585 314 q 574 417 585 394 q 543 458 563 439 q 454 503 499 503 q 453 503 453 503 q 376 487 407 501 q 324 447 346 472 q 289 386 301 421 q 276 314 276 351 q 282 228 276 276 z "},"e":{"ha":767,"x_min":39,"x_max":754,"o":"m 343 179 l 342 161 q 372 54 342 100 q 392 34 383 39 q 414 29 400 29 l 433 29 q 614 75 531 29 q 644 100 629 83 l 678 136 q 707 166 693 153 q 732 179 721 179 q 749 167 743 179 q 754 147 754 154 q 719 96 753 133 q 640 32 683 57 q 547 -8 597 8 q 356 -39 451 -39 q 353 -40 354 -40 q 193 7 258 -40 q 74 126 126 54 q 43 203 47 163 q 39 297 39 244 q 82 410 39 349 q 188 520 125 471 q 322 600 250 569 q 440 631 393 631 q 532 622 488 631 q 614 597 575 617 q 706 464 706 553 q 581 264 706 347 q 343 179 475 192 m 325 282 q 339 258 325 268 q 378 249 353 249 q 379 249 379 249 q 481 331 426 249 q 532 467 532 407 q 517 524 532 503 q 458 561 489 561 q 403 531 426 561 q 361 458 378 500 q 325 282 325 367 z "},"f":{"ha":599,"x_min":44,"x_max":699,"o":"m 547 26 q 492 -7 547 -7 q 458 -6 489 -7 q 374 -3 428 -4 q 243 -1 319 -3 q 75 0 167 0 q 54 7 64 0 q 44 33 44 14 q 58 63 44 53 q 90 75 71 72 q 128 79 108 78 q 164 92 149 81 l 165 121 q 153 238 165 172 q 129 421 129 360 q 76 428 101 424 q 50 451 50 432 q 97 485 50 479 q 119 490 108 486 q 131 733 119 674 q 156 821 143 793 q 189 872 169 849 q 282 942 243 926 q 392 961 335 961 q 492 942 449 961 q 576 907 536 922 q 607 917 596 907 q 644 935 628 935 q 681 926 660 935 l 699 708 q 694 672 699 689 q 672 654 690 654 q 560 743 643 654 q 533 785 543 761 q 511 831 522 808 q 485 868 500 853 q 451 883 471 883 q 413 881 432 883 q 388 861 394 879 q 378 830 382 843 q 373 803 375 817 q 371 774 371 790 l 371 732 q 415 500 371 500 q 460 503 438 500 q 504 510 499 508 q 538 481 538 510 q 442 433 538 447 q 415 431 422 431 q 476 74 451 335 q 492 61 481 63 q 515 58 503 60 q 538 51 528 57 q 547 26 547 46 z "},"g":{"ha":832,"x_min":49,"x_max":775,"o":"m 725 507 q 736 309 736 389 q 731 162 736 229 q 711 31 726 94 q 525 -278 669 -142 q 242 -381 417 -381 q 104 -325 160 -381 q 51 -181 51 -272 q 68 -92 51 -111 q 161 -44 96 -58 l 196 -43 q 247 -40 229 -43 q 282 -103 282 -58 l 271 -215 q 279 -254 271 -222 q 303 -314 296 -311 q 411 -251 367 -301 q 482 -133 456 -200 q 532 142 532 -6 q 417 53 497 86 q 282 24 347 24 q 189 40 233 24 q 65 156 99 72 q 49 251 49 197 q 67 360 49 304 q 122 464 86 417 q 332 569 204 569 q 414 543 363 569 q 528 467 500 499 q 522 518 522 483 l 522 557 q 549 599 522 592 q 606 607 575 607 q 665 606 636 607 q 718 603 693 606 q 775 567 775 594 q 760 540 775 553 q 738 522 746 528 q 725 507 729 515 m 424 114 q 468 143 449 121 q 514 304 514 193 q 481 428 514 390 q 392 465 447 465 q 329 397 351 465 q 313 265 313 347 q 333 144 313 182 q 376 106 353 106 q 424 114 399 106 z "},"h":{"ha":917,"x_min":-15,"x_max":924,"o":"m 379 35 q 419 0 411 35 q 404 -30 419 -25 q 366 -35 389 -35 q 329 -33 343 -35 q 299 -31 313 -33 q 219 -25 265 -25 q 152 -27 172 -25 q 114 -33 132 -29 q 78 -42 96 -37 l 38 -53 l 29 -53 q -15 -12 -15 -53 q 25 22 -15 14 q 95 58 71 31 q 129 111 119 86 q 142 225 142 144 q 158 776 158 558 l 129 775 q 99 782 108 775 q 89 811 89 789 q 107 836 89 833 q 156 847 125 839 q 343 919 271 876 q 378 947 365 947 q 397 934 390 947 q 403 904 403 921 q 391 867 403 888 q 376 822 379 846 q 367 758 372 799 q 358 678 363 717 q 349 580 349 586 q 349 558 349 574 q 350 538 350 543 q 416 590 375 563 q 479 623 457 618 q 544 628 501 628 q 714 556 642 628 q 800 310 794 475 q 801 224 801 265 l 801 206 q 828 96 811 108 l 857 97 q 912 90 900 97 q 924 51 924 82 q 790 -4 907 18 q 740 -10 761 -10 q 627 19 669 -10 q 560 114 585 49 l 553 133 q 543 156 547 144 l 536 178 q 532 190 532 188 l 532 443 q 515 495 532 475 q 473 515 499 515 q 427 496 447 515 q 390 446 407 476 q 338 271 349 374 l 332 218 q 324 147 324 160 l 332 43 q 356 33 342 33 l 379 35 m 575 565 q 572 569 575 569 q 567 567 567 569 q 572 561 567 561 q 575 565 575 561 z "},"i":{"ha":554,"x_min":15,"x_max":547,"o":"m 293 -11 q 103 -31 219 -11 q 68 6 68 -31 q 83 39 68 32 q 117 47 97 46 q 155 49 136 47 q 181 64 174 50 l 181 78 l 182 121 l 182 135 q 154 422 182 301 q 114 451 138 447 q 69 456 90 456 q 31 462 47 457 q 15 486 15 467 q 35 517 15 506 q 83 536 56 528 q 135 551 110 544 q 193 569 161 557 l 281 601 q 376 622 338 622 q 420 615 415 622 q 425 579 425 607 q 417 535 425 551 l 415 294 q 419 196 415 218 q 437 125 425 167 q 465 69 449 83 q 500 42 482 54 l 533 22 q 547 6 547 13 q 531 -24 547 -18 q 493 -31 514 -31 l 476 -29 q 293 -11 418 -11 m 204 672 q 111 781 111 672 q 233 951 111 890 q 327 919 292 951 q 363 829 363 886 q 310 722 363 772 q 204 672 257 672 z "},"j":{"ha":643,"x_min":-24,"x_max":560,"o":"m 221 446 l 260 444 q 290 449 285 444 q 303 456 294 453 q 336 464 311 460 q 533 481 392 474 q 548 472 536 481 q 560 454 560 464 l 560 357 q 547 -9 560 90 q 517 -160 535 -108 q 479 -242 500 -211 q 439 -293 458 -272 q 392 -329 419 -314 q 249 -364 331 -364 q 103 -335 181 -364 q 82 -328 83 -328 l 14 -260 q -19 -202 -15 -231 q -24 -146 -24 -174 l -22 -33 l 4 -6 q 150 -31 139 -6 q 161 -60 156 -40 q 151 -104 151 -60 l 151 -154 q 165 -222 151 -190 q 204 -268 178 -254 q 285 -240 260 -268 q 319 -150 311 -211 q 344 154 344 26 q 333 269 344 233 q 306 326 321 304 q 275 356 292 347 l 243 369 q 220 387 229 376 q 211 419 211 397 q 221 446 211 442 m 264 611 l 265 644 q 300 701 271 674 q 386 749 351 749 q 432 724 400 749 q 492 653 492 676 q 458 558 492 594 q 370 522 425 522 q 290 539 315 522 q 264 611 264 556 z "},"k":{"ha":858,"x_min":13,"x_max":867,"o":"m 867 17 q 739 -15 867 -15 q 652 -11 671 -15 q 608 0 633 -7 q 560 33 583 7 q 520 91 538 58 q 489 160 503 124 q 457 225 474 194 q 365 294 418 293 q 336 292 342 294 l 318 275 q 314 239 315 253 q 311 213 313 225 q 310 194 310 200 q 311 169 310 189 q 314 131 314 151 q 318 65 315 82 q 339 49 322 51 l 375 43 q 410 32 394 40 q 425 1 425 24 q 407 -21 425 -21 q 371 -22 396 -21 q 314 -25 346 -24 q 247 -28 282 -26 l 178 -33 q 121 -36 146 -35 q 83 -39 96 -37 q 39 -4 39 -39 q 50 24 39 14 q 74 45 61 35 q 99 69 88 56 q 110 110 110 83 q 129 310 129 250 l 129 418 q 110 710 129 582 q 69 753 103 747 q 40 759 56 756 q 14 778 25 763 l 13 783 q 31 813 13 803 q 67 822 49 822 l 75 821 q 149 853 96 829 l 228 890 q 264 906 256 903 q 281 917 272 910 l 297 933 q 338 953 321 953 q 363 915 363 953 q 353 857 363 878 q 339 597 343 744 q 335 444 335 450 l 335 428 l 336 383 l 336 369 q 581 551 478 451 q 541 560 561 554 q 521 592 521 567 q 603 629 521 629 q 757 579 757 629 q 667 543 757 543 l 492 406 q 647 247 564 367 l 708 157 q 755 97 738 114 q 790 74 772 81 q 824 60 807 68 q 854 43 842 53 q 867 17 867 33 z "},"l":{"ha":450,"x_min":4,"x_max":446,"o":"m 101 -21 l 81 -22 q 13 0 32 -22 q 4 18 4 8 q 14 40 4 31 q 32 49 22 49 l 144 49 q 151 58 147 49 q 154 73 154 68 q 153 89 154 78 q 150 114 151 100 q 137 219 146 153 q 128 411 128 286 l 138 769 q 129 814 138 793 q 99 810 108 810 q 58 843 58 810 q 124 890 60 865 l 165 907 l 236 939 q 328 971 294 965 q 354 951 346 971 q 363 917 363 932 q 358 878 363 901 q 350 831 354 854 l 340 789 q 336 726 336 771 q 332 614 336 682 q 324 482 329 546 q 310 247 310 308 q 319 118 310 161 q 332 79 322 85 q 376 71 344 71 l 385 71 q 427 68 408 71 q 446 49 446 65 q 418 6 446 10 q 101 -21 269 1 z "},"m":{"ha":1204,"x_min":26,"x_max":1169,"o":"m 332 -11 l 124 -14 q 63 -8 79 -11 q 47 19 46 -4 q 63 47 47 42 q 97 52 78 51 q 131 56 115 53 q 147 75 146 58 l 140 138 q 142 180 140 146 q 144 256 143 214 q 153 386 149 361 l 147 408 l 140 433 q 122 461 132 461 l 43 465 q 31 479 36 465 q 26 497 26 493 q 36 513 26 511 l 194 539 q 239 556 215 543 q 303 579 283 579 q 332 572 324 579 q 344 554 340 565 q 350 506 350 539 q 415 531 382 517 q 479 556 449 544 q 576 583 550 583 q 578 583 578 583 q 622 570 604 582 q 656 542 639 558 q 688 511 674 526 q 713 488 703 496 q 918 582 831 582 q 1076 525 1025 581 q 1099 461 1099 500 l 1090 213 l 1090 138 q 1118 74 1090 81 q 1160 58 1151 65 q 1169 31 1169 51 q 1147 6 1169 11 q 1101 1 1124 1 q 1067 0 1078 1 q 1049 -3 1057 -1 l 1032 -6 q 1011 -7 1024 -7 q 883 38 883 -7 q 897 211 883 124 q 910 386 910 299 q 899 447 910 424 q 853 474 889 471 q 789 449 817 471 q 735 376 735 407 q 747 298 746 344 q 747 221 747 251 q 744 156 747 190 q 735 89 740 122 q 688 1 719 4 q 658 -1 681 0 q 624 -3 635 -3 q 603 -3 614 -4 q 579 -1 593 -3 q 556 7 565 1 q 535 51 535 19 q 544 189 535 124 q 554 321 554 254 q 528 426 554 388 q 471 465 503 465 q 376 415 415 465 q 342 332 343 371 l 329 61 q 350 53 338 54 q 375 49 363 51 q 397 42 388 47 q 406 19 406 36 q 386 -11 406 1 l 332 -11 z "},"n":{"ha":876,"x_min":28,"x_max":854,"o":"m 71 -28 q 32 21 32 -22 q 43 44 35 40 q 65 49 51 49 l 76 47 q 126 81 115 47 q 135 153 135 101 q 133 161 135 157 q 133 169 133 165 q 143 294 133 225 q 153 427 153 367 q 149 533 153 488 l 85 531 l 71 531 q 43 539 58 533 q 28 556 28 544 q 37 576 28 567 q 49 592 46 586 q 64 590 57 590 l 94 590 q 135 592 118 590 q 160 594 151 593 q 178 596 169 594 q 215 597 188 597 q 324 628 256 597 q 352 617 340 625 q 369 607 364 610 l 363 539 q 371 536 365 536 q 413 558 382 536 q 517 602 478 588 q 578 617 556 617 q 622 610 600 617 q 665 589 643 603 q 736 514 717 558 q 768 382 768 435 q 763 324 768 360 q 750 222 751 256 q 757 149 750 171 q 768 110 763 126 q 789 64 781 67 q 807 55 796 57 q 829 50 818 53 q 854 24 854 43 q 788 -7 854 4 q 718 -14 749 -14 q 621 11 656 -14 q 522 306 522 83 q 450 492 522 492 q 382 456 413 492 q 350 389 353 421 l 322 114 q 350 47 322 65 q 424 24 378 28 q 433 10 433 22 q 383 -17 433 -17 q 340 -10 365 -17 q 247 4 290 4 q 71 -28 203 4 z "},"o":{"ha":806,"x_min":43,"x_max":764,"o":"m 79 114 q 47 199 51 154 q 43 301 43 243 q 83 415 43 360 q 186 508 124 469 q 467 592 317 592 q 685 463 596 592 q 744 341 724 407 q 764 207 764 275 q 722 75 764 139 q 564 -36 667 -11 q 478 -52 531 -44 q 417 -60 426 -60 q 229 -22 314 -60 q 79 114 144 15 m 310 254 q 313 185 310 222 q 326 113 317 147 q 394 28 350 28 q 469 61 443 28 q 508 142 496 94 q 525 342 525 206 q 511 443 525 400 q 461 524 478 515 q 458 524 460 524 q 338 425 374 524 q 310 254 310 353 z "},"p":{"ha":828,"x_min":22,"x_max":781,"o":"m 336 -365 q 70 -379 118 -379 q 22 -357 22 -379 q 32 -325 22 -335 q 54 -310 42 -315 q 78 -297 67 -304 q 97 -249 89 -290 q 114 -157 106 -208 q 126 -56 122 -106 q 132 174 132 11 l 132 224 q 128 315 132 269 q 103 392 125 361 q 82 407 96 401 q 57 419 71 414 q 24 461 24 435 q 104 495 24 468 q 215 533 185 522 q 294 574 286 560 l 342 574 l 342 496 q 358 510 354 501 q 371 531 363 519 q 439 585 403 569 q 517 601 475 601 q 607 592 583 601 q 694 542 660 567 q 747 483 728 517 q 781 288 781 425 q 717 147 781 244 q 688 109 701 125 q 643 72 675 93 q 578 36 611 51 q 483 1 501 1 q 447 7 465 1 q 408 19 429 14 q 324 36 340 36 q 318 -31 319 36 q 308 -210 314 -167 l 314 -299 q 364 -336 364 -299 q 356 -356 364 -347 q 336 -365 349 -365 m 328 114 q 485 79 400 79 q 486 79 486 79 q 571 156 543 79 q 593 291 593 217 q 589 399 593 365 q 574 456 585 432 q 485 531 554 494 q 360 372 407 492 q 319 156 319 272 q 324 128 319 133 q 329 120 329 124 q 328 117 329 117 q 328 115 328 117 l 328 114 z "},"q":{"ha":922,"x_min":44,"x_max":899,"o":"m 472 -358 q 436 -328 436 -358 l 436 -322 q 460 -293 449 -299 q 483 -287 471 -287 q 508 -285 494 -286 q 540 -271 522 -285 q 549 -178 549 -237 q 550 -87 549 -118 q 554 -29 551 -56 q 560 51 560 25 q 549 88 560 82 q 322 -8 453 -8 q 124 64 201 -8 q 44 258 46 138 q 81 401 44 317 q 185 539 117 486 q 343 592 253 592 q 489 565 433 592 q 505 552 489 560 q 531 539 521 544 q 549 531 542 533 l 549 539 q 547 547 549 540 l 544 561 l 542 575 q 540 591 540 582 q 548 608 540 600 q 566 619 556 615 q 589 623 576 622 q 624 631 601 624 q 679 647 647 639 q 742 661 711 656 q 865 669 799 669 q 899 635 899 669 q 871 600 899 610 q 793 461 810 549 q 789 418 792 447 l 785 353 l 779 275 l 774 197 q 768 131 771 161 q 765 78 765 103 l 765 58 q 767 11 765 39 q 772 -72 768 -31 q 808 -226 782 -172 q 830 -247 817 -243 q 856 -252 843 -250 q 879 -262 869 -254 q 889 -291 889 -269 q 879 -314 889 -312 q 796 -311 849 -311 q 675 -324 743 -311 l 532 -350 l 472 -358 m 385 504 q 254 211 254 417 q 265 121 254 147 q 342 63 289 63 q 438 90 396 63 q 507 158 479 117 q 563 350 563 243 q 526 469 563 422 q 425 515 490 515 q 403 514 408 515 q 385 504 397 513 z "},"r":{"ha":740,"x_min":28,"x_max":724,"o":"m 372 -11 l 115 -21 q 62 -12 83 -21 q 40 32 40 -4 q 78 53 42 49 q 126 65 118 57 q 157 249 157 99 q 151 403 157 353 q 144 457 146 453 q 120 484 139 479 q 81 492 101 489 q 44 502 60 494 q 28 530 28 510 q 38 553 28 550 q 131 564 65 554 l 233 578 q 300 586 269 581 q 371 597 364 597 q 403 554 403 597 q 388 449 403 492 q 425 493 406 464 q 467 551 444 522 q 561 624 522 624 q 629 607 600 624 q 679 564 658 590 q 724 440 724 507 q 656 308 722 347 q 599 294 631 294 q 551 314 568 294 q 524 361 535 333 q 506 420 514 389 q 488 476 497 451 q 364 242 375 371 q 360 167 361 204 l 361 76 q 372 53 361 58 q 397 44 383 47 q 422 35 411 40 q 433 14 433 31 q 417 -12 433 -3 l 372 -11 z "},"s":{"ha":681,"x_min":33,"x_max":631,"o":"m 392 551 q 276 517 276 551 q 303 440 276 474 q 368 377 329 407 q 453 319 407 347 q 539 261 500 292 q 631 110 631 189 q 522 -24 631 13 q 356 -46 456 -46 q 192 -31 257 -46 q 88 -10 128 -15 q 41 6 49 -6 q 33 33 33 17 q 40 62 33 49 q 57 88 47 75 q 90 140 85 124 q 99 169 96 156 q 107 192 101 181 q 142 217 118 217 q 184 185 167 217 q 224 115 201 153 q 280 44 247 76 q 367 13 313 13 q 460 64 460 13 q 363 181 460 107 q 271 247 321 213 q 179 317 221 282 q 81 456 81 397 q 108 539 81 510 q 179 586 138 569 q 354 619 236 610 l 424 621 l 529 622 q 603 614 590 622 q 621 561 621 600 q 620 493 621 522 q 617 442 619 464 q 589 396 611 396 q 535 420 558 396 q 490 474 511 444 q 445 527 468 503 q 392 551 422 551 z "},"t":{"ha":638,"x_min":-8,"x_max":626,"o":"m 210 647 l 201 726 l 200 726 q 149 718 193 726 q 119 729 133 718 q 106 758 106 740 q 119 785 106 775 q 153 803 132 796 q 254 822 176 811 l 279 821 q 324 836 301 824 l 365 858 q 440 883 410 883 q 474 867 469 883 q 479 829 479 851 l 476 814 q 461 692 461 722 q 461 644 461 661 l 464 611 q 465 581 464 594 q 465 561 465 567 q 528 567 497 561 q 592 572 558 572 q 626 544 626 572 q 618 517 626 526 q 524 510 579 517 q 463 501 468 503 q 440 426 451 494 q 428 337 429 358 q 425 294 428 315 q 418 251 422 274 q 408 140 408 200 q 429 89 408 113 q 479 65 450 65 l 532 68 q 567 63 551 68 q 583 36 583 57 q 582 33 583 35 l 582 32 q 365 -29 538 -29 q 203 50 253 -29 q 165 210 165 108 q 185 431 165 226 l 182 492 l 11 492 q -3 504 1 492 q -8 524 -8 517 q 11 553 -8 544 q 201 571 188 564 q 210 647 210 621 z "},"u":{"ha":896,"x_min":43,"x_max":894,"o":"m 765 -46 q 556 121 629 -46 q 456 17 544 67 q 306 -29 374 -29 q 153 49 218 -29 q 96 199 96 117 l 96 431 q 88 458 96 447 q 69 478 79 468 q 51 501 60 489 q 43 532 43 513 q 179 572 43 572 l 233 572 q 304 569 285 572 l 356 551 q 347 407 356 501 q 329 178 331 226 l 329 163 q 336 110 331 122 q 383 83 350 83 q 426 97 407 83 l 461 121 q 482 150 464 125 q 517 199 517 193 l 517 551 q 669 597 517 594 l 740 597 q 780 591 769 597 q 790 570 790 585 q 789 551 790 556 q 781 543 788 546 q 769 486 776 513 l 758 436 q 746 326 746 381 q 826 57 746 111 q 874 32 854 39 q 894 24 894 25 q 847 -22 894 3 q 768 -46 785 -46 q 767 -46 768 -46 l 765 -46 z "},"v":{"ha":815,"x_min":-4,"x_max":818,"o":"m 818 526 q 760 500 801 500 q 733 497 749 500 q 701 353 731 424 q 529 7 654 238 q 435 -14 518 -14 q 308 0 343 -14 q 251 35 272 14 q 212 101 229 57 q 182 199 194 146 q 157 301 168 251 q 100 482 126 432 q 67 500 90 500 q 25 506 44 500 q 1 517 6 511 q -4 544 -4 522 q 201 599 -4 599 q 272 581 238 599 q 315 531 306 563 l 383 317 q 432 178 414 218 q 457 125 450 138 l 471 100 q 493 68 489 68 q 583 259 542 165 q 633 369 625 353 q 656 453 656 414 q 638 502 656 493 q 598 513 619 511 q 558 518 576 514 q 540 544 540 522 q 545 574 540 567 q 565 588 550 582 q 662 576 614 583 q 760 569 710 569 l 778 571 q 807 564 796 571 q 818 526 818 557 z "},"w":{"ha":1150,"x_min":-8,"x_max":1140,"o":"m 296 1 q 244 36 244 32 l 244 44 q 167 225 186 160 q 113 446 144 296 q 86 485 106 472 q 46 509 67 499 q 8 533 25 519 q -8 565 -8 546 q 3 596 -8 583 q 31 612 14 608 q 80 619 49 615 q 140 625 111 622 q 219 631 199 631 q 304 576 278 631 q 356 415 331 513 q 432 158 410 197 q 435 150 435 153 q 478 256 453 158 q 488 289 483 278 q 520 410 504 335 q 540 500 536 485 q 543 535 543 515 q 545 572 543 556 q 553 599 547 589 q 576 610 560 610 q 688 601 629 610 q 714 565 707 590 q 724 524 721 539 q 731 496 726 508 l 746 450 l 769 381 q 808 265 801 288 q 888 113 868 125 q 992 496 992 383 q 989 528 992 514 q 886 588 886 528 q 949 621 886 621 q 1049 620 1013 621 q 1104 615 1085 619 q 1140 583 1140 608 q 1099 543 1140 553 q 1079 535 1088 540 q 1014 296 1079 514 l 940 44 q 916 -4 931 11 q 857 -19 901 -19 q 714 43 758 -19 q 583 272 668 104 q 565 306 568 303 q 518 181 546 276 q 485 69 490 86 l 479 54 l 479 11 q 460 0 467 6 q 425 -8 450 -8 q 418 -8 422 -8 q 360 -3 394 -8 q 310 1 335 1 q 296 1 303 1 z "},"x":{"ha":929,"x_min":-14,"x_max":924,"o":"m 492 -64 q 455 -53 460 -64 q 450 -23 450 -43 q 459 5 450 -3 q 481 14 468 13 q 504 16 493 15 q 519 28 515 17 q 483 75 499 54 l 456 114 q 394 185 433 143 q 335 153 381 185 l 258 100 l 214 68 l 194 56 q 188 51 190 51 q 215 34 194 36 q 256 31 235 32 q 293 25 276 31 q 310 0 310 19 q 299 -26 310 -19 q 261 -32 289 -32 l 194 -32 q -14 -26 53 -32 q -11 -1 -14 -15 q 19 18 -8 13 q 103 47 86 31 q 150 86 121 64 l 208 131 l 271 175 q 324 217 301 197 l 329 225 q 286 312 314 274 q 240 373 258 350 q 203 424 221 396 q 185 458 192 436 q 142 501 174 494 q 92 519 101 510 q 82 546 82 529 q 104 581 82 581 l 408 581 q 418 586 410 583 q 432 589 426 589 q 448 585 438 589 q 468 575 458 582 q 492 543 492 558 q 485 518 492 528 q 478 503 479 508 l 408 503 q 436 468 408 496 l 482 422 q 513 391 500 403 q 533 369 525 379 q 552 358 540 358 q 589 376 564 358 q 642 419 614 394 q 719 499 714 481 q 681 507 700 500 q 661 538 661 514 q 689 557 661 557 l 707 556 q 867 539 821 547 q 882 511 882 533 q 782 482 882 482 q 635 347 672 386 q 597 305 597 308 q 608 286 597 301 q 631 250 617 269 q 676 193 660 208 l 711 151 q 722 133 714 149 l 743 103 q 763 71 754 86 q 775 51 772 56 q 798 39 775 40 q 849 35 821 38 q 901 26 878 33 q 924 -6 924 18 q 864 -34 899 -28 q 788 -43 829 -40 q 649 -46 747 -46 q 492 -64 550 -46 z "},"y":{"ha":854,"x_min":-4,"x_max":865,"o":"m 603 504 q 544 533 544 504 q 550 547 544 535 q 561 560 556 558 l 831 576 q 832 576 831 576 q 850 564 836 576 l 865 550 q 788 517 865 519 q 753 515 768 517 q 694 278 735 392 l 629 89 q 584 -31 603 14 q 542 -122 565 -75 q 490 -214 518 -168 q 435 -296 463 -260 q 322 -376 371 -376 q 321 -376 321 -376 q 129 -256 233 -376 q 54 -153 74 -192 q 35 -101 35 -114 q 43 -81 35 -89 q 64 -69 51 -74 q 111 -64 81 -64 q 160 -67 142 -64 q 193 -83 178 -69 q 228 -221 228 -117 q 269 -271 257 -258 q 326 -296 297 -296 q 408 -211 358 -294 q 457 -76 457 -128 q 441 15 457 -24 q 401 90 425 53 q 348 166 376 128 q 285 260 319 204 q 203 371 251 317 q 83 456 156 425 q 60 463 74 460 q 31 469 44 464 q -4 506 -4 482 q 15 542 -4 531 q 65 560 35 554 q 133 569 96 567 q 189 574 171 572 q 214 576 207 576 q 231 575 221 576 q 253 572 242 574 q 281 565 265 571 q 321 533 296 558 l 368 475 q 449 360 413 417 l 535 219 q 579 143 554 194 l 588 143 q 619 242 593 156 q 683 490 646 328 l 682 511 l 603 504 z "},"z":{"ha":806,"x_min":40,"x_max":776,"o":"m 394 85 q 435 71 394 79 q 550 90 500 71 q 640 135 600 108 q 701 181 681 161 q 744 201 721 201 q 772 195 768 201 q 776 176 776 189 q 774 147 776 163 q 765 111 771 131 q 748 51 758 81 q 738 10 738 21 q 732 -11 735 -1 q 707 -33 724 -33 q 681 -24 690 -33 q 499 11 558 11 q 389 5 439 11 q 288 -10 339 -1 q 113 -31 160 -31 q 53 -26 65 -31 q 40 -4 40 -22 q 57 43 40 18 q 92 92 71 67 q 135 140 113 117 q 168 175 158 164 l 186 197 q 206 219 196 207 q 236 257 229 250 q 276 325 257 290 q 313 397 293 361 q 401 524 356 479 q 390 524 396 524 q 204 494 271 524 q 110 431 138 467 q 80 414 96 414 q 54 426 64 414 q 44 460 44 439 q 51 509 44 481 q 69 563 58 538 q 116 621 96 621 q 155 615 136 621 q 209 608 174 610 q 307 606 244 607 l 432 603 q 676 595 664 597 q 696 589 688 593 q 718 553 718 579 q 717 538 717 546 q 697 514 711 531 l 667 481 q 560 339 604 406 l 489 233 l 443 163 q 394 85 394 88 z "},"{":{"ha":606,"x_min":7,"x_max":596,"o":"m 568 86 q 596 29 596 71 q 593 11 596 18 q 576 0 590 4 l 550 1 q 456 -8 501 1 q 354 -18 410 -18 q 249 6 299 -18 q 160 69 199 29 q 76 272 76 157 l 86 388 l 86 422 q 51 446 76 438 q 17 460 26 454 q 7 483 7 467 q 16 506 7 499 q 39 515 25 514 q 67 518 53 517 q 90 524 82 519 q 107 533 99 528 q 121 546 115 539 q 138 568 138 565 l 172 801 q 313 925 179 858 q 420 969 365 953 q 507 986 475 986 q 578 956 578 986 q 556 936 578 944 l 508 919 q 456 898 481 911 q 419 851 431 885 q 404 776 407 818 q 401 694 401 735 q 395 613 400 653 q 376 546 390 572 l 353 503 q 343 473 343 486 q 357 439 343 460 q 371 386 371 418 q 362 319 371 354 q 353 250 353 285 q 368 185 353 215 q 408 131 383 153 q 531 81 464 81 q 568 86 551 81 z "},"|":{"ha":307,"x_min":110,"x_max":193,"o":"m 193 178 q 166 25 193 25 q 135 56 139 25 q 126 242 126 114 l 126 388 q 124 451 126 429 q 118 500 121 472 q 110 693 110 581 q 147 879 110 879 q 169 871 156 879 q 182 853 182 863 q 189 333 185 454 q 193 178 193 211 z "},"}":{"ha":606,"x_min":10,"x_max":599,"o":"m 56 1 l 29 0 q 13 11 15 4 q 10 32 10 18 q 38 86 10 71 q 81 81 54 81 q 140 94 108 81 q 197 131 172 108 q 253 249 253 182 q 244 319 253 285 q 235 386 235 354 q 249 439 235 418 q 263 472 263 460 q 253 503 263 486 l 229 546 q 210 613 215 572 q 205 694 206 653 q 201 776 204 735 q 187 851 199 818 q 149 897 175 885 q 97 919 124 910 q 49 935 69 928 q 28 956 28 943 q 99 986 28 986 q 293 925 168 986 q 402 853 374 885 q 433 801 431 822 l 468 568 q 479 551 468 565 q 511 524 499 529 q 538 519 524 519 q 567 517 553 519 q 599 481 599 513 q 589 460 599 467 q 567 450 579 454 q 519 422 529 438 l 519 388 l 529 272 q 446 69 529 157 q 249 -18 363 -18 q 150 -8 196 -18 q 56 1 104 1 z "},"~":{"ha":894,"x_min":58,"x_max":851,"o":"m 89 361 q 58 396 58 361 q 83 453 58 431 l 140 504 q 311 554 196 554 l 361 551 l 618 482 l 631 481 q 739 503 696 481 q 817 578 782 525 q 840 572 833 578 q 851 551 846 565 q 713 429 833 454 q 647 422 679 422 l 628 422 l 326 492 l 310 492 q 169 426 231 492 l 128 381 q 89 361 108 361 z "},"":{"ha":333,"x_min":0,"x_max":0,"o":""},"":{"ha":449,"x_min":69,"x_max":389,"o":"m 96 308 l 94 331 q 158 578 94 500 q 222 611 185 611 q 277 585 258 611 q 301 533 296 560 l 389 119 q 331 17 389 50 q 210 -10 283 -10 q 157 2 183 -10 q 125 35 131 14 q 116 95 119 57 q 108 175 113 133 l 96 308 m 83 764 q 69 824 69 790 q 83 881 69 857 q 119 921 97 904 q 221 956 164 956 q 336 900 306 956 q 347 859 347 881 q 344 809 347 838 q 331 753 342 781 q 243 688 306 688 q 83 764 124 688 z "},"":{"ha":686,"x_min":49,"x_max":644,"o":"m 553 301 l 558 303 q 576 297 567 303 q 585 272 585 292 q 563 233 585 253 q 514 190 542 213 q 364 144 458 144 l 340 144 q 317 146 328 144 l 282 8 q 272 -3 282 4 q 260 -10 261 -10 q 235 2 240 -10 q 229 22 229 14 q 232 44 229 31 l 239 81 q 257 164 250 136 l 257 167 q 249 181 257 172 q 121 265 156 231 q 49 418 49 335 l 50 439 q 250 778 81 665 q 376 836 306 815 q 408 935 389 897 q 436 982 428 974 q 460 968 456 982 q 464 942 464 954 l 454 856 q 478 842 454 853 q 536 811 503 831 q 643 724 625 760 l 643 717 q 644 711 643 714 q 614 679 644 679 l 600 681 q 529 749 553 735 q 424 776 486 776 q 351 749 356 776 l 239 275 l 238 263 q 249 240 238 244 q 313 212 288 219 q 383 204 339 204 q 550 301 463 204 l 553 301 z "},"":{"ha":935,"x_min":36,"x_max":871,"o":"m 833 199 l 843 201 q 871 175 858 201 q 850 115 865 157 l 828 53 q 813 17 819 32 q 789 -13 806 1 q 753 -36 772 -28 q 675 -53 717 -53 q 583 -36 633 -53 l 492 -1 q 400 33 446 17 q 310 49 354 49 q 226 36 267 49 q 160 24 186 24 q 116 33 135 24 q 79 56 97 42 q 36 121 36 89 q 38 153 36 138 q 56 175 40 168 q 69 164 58 171 q 116 133 100 144 q 135 122 132 122 l 140 122 q 189 185 158 122 q 227 290 215 240 q 246 366 239 340 q 260 422 253 392 l 186 472 l 186 499 q 203 496 193 496 q 275 513 228 496 q 296 522 290 518 q 318 574 304 531 q 346 647 332 618 q 390 733 360 676 q 458 839 422 792 q 638 947 543 947 q 747 928 707 947 q 851 822 821 890 q 858 799 856 815 q 861 773 860 782 q 863 761 863 764 q 819 771 831 761 q 800 792 808 781 q 778 814 792 804 q 731 824 764 824 l 675 824 q 578 728 636 824 q 543 661 556 692 l 521 606 q 490 526 500 556 l 481 499 l 500 472 l 642 472 q 553 419 642 428 q 474 404 497 415 q 447 378 451 393 q 433 333 442 363 q 415 272 424 303 q 389 175 393 189 l 388 149 q 406 100 388 115 q 439 78 422 86 l 472 61 l 508 44 q 556 24 536 33 l 592 22 l 639 21 l 722 24 q 833 199 786 97 z "},"":{"ha":678,"x_min":54,"x_max":592,"o":"m 143 181 l 126 172 l 122 172 q 101 179 111 172 q 90 199 90 186 l 90 204 q 92 207 90 206 l 168 301 l 168 304 q 169 307 168 306 q 153 335 168 307 q 100 431 139 364 q 99 450 99 435 l 99 469 q 108 521 99 494 q 126 594 126 568 q 75 642 83 631 q 54 701 54 668 q 168 638 119 701 l 178 636 q 215 649 199 636 q 248 676 232 661 q 281 703 264 690 q 325 715 297 715 q 381 702 353 715 q 442 689 410 689 l 453 689 l 531 783 q 539 790 532 786 q 552 793 546 793 q 566 785 558 793 q 574 768 574 776 q 563 742 574 758 q 515 675 535 697 l 504 664 q 569 568 547 613 q 592 461 592 524 q 514 301 592 379 l 514 283 l 574 207 l 574 181 l 531 181 l 453 258 q 403 249 426 258 q 350 240 379 240 q 291 254 321 240 q 228 268 261 268 l 224 267 l 221 267 l 143 181 z "},"":{"ha":889,"x_min":39,"x_max":858,"o":"m 289 0 l 244 -3 q 220 2 229 -3 q 211 22 211 7 q 219 45 211 36 q 238 60 226 54 q 288 69 257 69 q 307 169 307 69 l 307 201 l 306 225 l 306 240 l 203 258 l 168 293 l 186 310 l 315 310 q 325 322 325 311 l 325 336 q 315 353 325 351 q 201 377 235 364 q 168 396 168 390 q 177 419 168 415 q 200 422 186 422 l 324 414 l 324 431 l 194 861 l 168 886 q 141 892 163 892 q 97 894 119 892 q 56 903 74 896 q 39 932 39 911 q 42 939 39 933 q 49 950 46 944 q 65 964 57 967 l 385 964 q 415 974 403 972 q 444 956 440 974 l 542 631 l 633 861 q 667 953 639 933 q 771 967 688 967 l 796 967 q 858 939 858 967 q 763 900 857 908 q 721 896 738 897 l 711 886 l 549 517 l 549 453 l 660 453 q 666 438 663 453 q 669 422 669 424 q 660 400 669 400 l 550 400 l 549 350 q 552 317 549 333 q 557 301 556 301 l 660 301 q 678 281 668 301 q 659 263 678 268 q 617 253 640 257 q 576 248 594 250 q 557 240 557 246 l 557 71 l 660 51 q 669 31 669 49 q 660 8 669 13 l 289 0 z "},"":{"ha":242,"x_min":89,"x_max":160,"o":"m 89 357 q 138 292 129 358 q 140 263 140 275 q 138 224 140 250 q 133 172 136 197 q 124 108 126 111 l 106 90 l 89 108 l 89 357 m 158 747 q 140 561 158 706 l 106 561 l 106 842 q 116 856 106 851 q 135 861 126 861 q 150 851 144 861 q 157 829 154 842 l 160 810 l 158 747 z "},"":{"ha":871,"x_min":36,"x_max":794,"o":"m 726 196 l 724 153 q 664 90 703 128 l 621 49 q 585 29 610 38 q 369 11 449 11 q 267 13 290 11 q 228 24 243 14 q 200 43 213 33 l 174 64 q 132 100 146 86 q 36 39 92 39 q 82 150 36 78 q 167 225 129 225 q 183 222 178 225 q 182 210 182 217 q 189 164 182 192 q 201 119 199 124 q 209 110 203 115 q 224 99 215 104 q 253 82 244 85 l 358 64 l 367 64 q 460 80 421 64 q 517 115 499 96 q 536 163 536 133 q 532 188 535 183 l 522 200 q 479 239 494 233 l 271 310 q 263 317 269 310 l 233 344 q 213 369 222 356 q 192 412 203 382 q 182 467 182 442 q 215 565 182 521 q 288 642 249 608 q 238 691 258 665 q 217 756 217 717 l 217 771 q 218 781 217 776 q 399 919 251 908 q 468 922 440 922 l 510 922 l 568 919 q 652 896 589 919 q 724 868 715 872 q 750 906 731 906 q 778 885 765 906 q 775 868 778 881 q 769 842 772 856 q 760 799 763 807 q 751 789 757 796 q 742 781 744 782 q 658 824 706 801 l 597 853 q 571 863 583 858 q 546 869 558 868 q 521 871 535 871 l 471 871 l 428 868 q 365 849 401 863 q 322 833 328 836 q 435 789 338 806 l 510 778 q 693 692 596 764 q 794 589 746 653 l 794 554 q 780 481 794 507 q 743 435 765 454 q 692 396 721 415 q 638 344 664 376 l 653 331 l 674 310 q 707 274 701 282 q 726 238 725 254 q 726 196 726 221 m 321 507 l 322 483 q 350 453 329 469 q 383 425 371 433 q 467 413 401 411 q 536 483 536 413 q 485 567 536 536 q 385 592 442 592 q 340 589 349 592 q 321 507 321 547 z "},"":{"ha":808,"x_min":175,"x_max":603,"o":"m 206 1089 q 265 1108 235 1108 q 308 1090 294 1108 q 322 1042 322 1071 q 302 995 322 1014 q 260 976 282 976 q 224 981 238 976 q 200 993 211 985 q 182 1013 189 1001 q 175 1038 175 1024 q 183 1067 175 1053 q 206 1089 192 1081 m 486 1089 q 544 1108 514 1108 q 588 1090 574 1108 q 603 1042 603 1071 q 582 995 603 1014 q 533 976 561 976 q 481 993 506 976 q 456 1031 456 1010 q 464 1067 456 1053 q 486 1089 472 1081 z "},"":{"ha":889,"x_min":65,"x_max":818,"o":"m 528 853 q 553 850 550 853 q 740 721 665 814 q 817 511 818 624 q 792 381 817 438 q 728 258 767 324 q 532 169 676 175 q 450 168 493 168 q 357 175 407 168 q 263 200 307 183 q 117 328 168 238 q 65 468 65 421 q 88 564 65 515 q 146 656 110 613 q 335 789 228 756 q 359 797 354 794 q 374 802 364 800 q 397 807 385 804 q 419 813 408 810 q 431 816 429 815 q 467 835 433 817 q 528 853 501 853 m 553 781 l 501 764 l 432 764 q 232 669 314 739 q 133 481 133 586 q 236 267 133 339 q 481 203 326 203 q 590 211 557 203 q 693 275 658 228 l 706 294 l 722 322 l 738 347 q 747 365 744 358 q 754 392 749 371 l 765 435 l 776 476 q 782 500 782 496 q 779 514 782 503 l 769 561 q 759 605 765 581 q 735 658 753 629 q 694 708 718 686 q 571 781 653 747 l 568 781 l 563 782 l 553 781 m 607 379 q 624 352 624 371 q 604 319 624 333 q 557 294 583 306 q 472 274 506 275 q 417 283 439 274 q 378 306 396 292 q 308 379 357 322 q 290 432 290 404 l 290 442 q 297 469 290 449 l 310 508 q 324 551 321 544 q 338 568 328 558 l 358 589 q 401 626 392 622 q 419 633 411 629 q 436 638 428 636 q 449 641 444 640 q 471 644 453 642 q 510 650 489 647 q 549 655 531 653 q 571 658 567 657 l 607 676 q 643 681 615 681 q 629 619 643 653 q 579 553 604 553 q 561 563 564 553 q 558 583 558 572 q 542 586 553 583 q 518 590 529 589 l 511 590 q 483 572 489 590 q 465 420 465 460 q 468 367 465 381 q 483 328 471 353 q 607 379 526 338 z "},"":{"ha":688,"x_min":56,"x_max":639,"o":"m 194 346 l 108 349 q 99 367 99 353 q 110 386 99 382 q 165 393 121 390 l 256 397 q 336 401 303 400 q 464 418 404 407 l 576 443 q 600 438 596 443 q 604 413 604 432 q 585 385 604 394 q 543 375 565 375 q 315 347 376 349 q 232 346 254 346 l 194 346 m 186 921 l 229 919 q 250 922 242 919 q 268 925 260 922 q 331 931 296 931 q 388 927 365 932 q 444 891 410 922 q 497 834 478 860 q 517 788 517 808 q 517 747 517 768 q 521 703 518 726 q 546 624 529 644 q 578 602 563 603 q 606 599 593 601 q 629 589 619 597 q 639 563 639 581 q 631 529 639 533 q 426 493 486 493 q 398 501 407 493 q 378 519 389 508 l 358 539 q 340 558 347 550 q 330 567 332 567 q 324 561 328 567 l 313 550 q 251 507 286 519 q 188 494 217 494 q 128 513 158 494 q 74 589 76 544 q 72 622 72 608 l 74 653 l 135 713 q 204 745 163 738 q 282 757 246 753 l 290 826 q 282 842 290 829 q 264 861 274 856 q 169 817 225 857 q 137 790 154 807 q 100 765 119 772 q 67 778 78 765 q 56 811 56 792 q 104 904 56 904 q 186 921 108 904 m 261 588 q 308 641 308 621 q 298 669 308 661 q 266 678 288 678 q 224 674 244 678 q 183 663 203 671 q 149 641 163 654 q 135 607 135 628 q 153 571 135 586 q 187 556 171 556 q 222 565 203 556 q 261 588 242 574 z "},"":{"ha":589,"x_min":17,"x_max":539,"o":"m 239 715 q 269 725 247 725 q 290 715 290 725 l 290 672 l 118 474 q 110 449 110 468 l 204 303 q 225 242 225 288 l 179 242 l 17 467 l 239 715 m 488 715 q 516 725 493 725 q 539 715 539 725 l 539 672 l 365 474 q 357 449 357 465 l 453 303 q 470 274 468 292 q 472 242 472 257 l 426 242 l 264 467 l 488 715 z "},"":{"ha":808,"x_min":50,"x_max":722,"o":"m 599 329 l 601 432 l 572 432 l 481 433 l 440 433 q 283 420 361 433 q 127 407 204 407 q 50 443 50 407 q 138 494 50 494 q 668 549 560 535 q 721 408 717 549 q 722 318 722 367 l 721 233 l 719 156 l 711 147 l 686 144 q 628 163 640 144 q 620 183 622 171 q 615 208 618 194 q 607 281 615 254 q 599 329 599 307 z "},"":{"ha":708,"x_min":76,"x_max":629,"o":"m 594 322 q 336 311 428 311 l 160 311 q 76 343 76 311 q 113 383 76 367 l 382 375 l 582 383 q 615 379 601 383 q 629 357 629 375 q 594 322 629 322 z "},"":{"ha":1010,"x_min":67,"x_max":944,"o":"m 68 382 l 67 413 l 67 504 l 68 539 q 72 556 67 542 l 81 579 q 86 593 83 588 l 94 611 l 103 628 l 136 664 l 181 708 q 243 767 238 764 q 272 781 250 771 l 322 801 q 412 836 400 833 q 441 842 424 839 q 478 847 458 844 q 535 854 526 854 q 553 853 543 854 l 575 847 q 606 838 596 842 q 638 822 617 833 l 683 796 q 767 749 753 757 q 943 433 943 642 q 811 189 944 271 q 711 136 747 149 l 660 118 l 628 108 q 610 103 614 103 l 550 100 l 508 100 l 453 103 q 411 117 449 103 l 350 142 l 306 158 q 244 192 285 167 q 167 247 204 217 q 68 382 78 319 m 603 797 q 591 803 594 801 q 562 804 588 804 q 494 797 536 804 q 408 776 453 789 q 267 718 304 747 q 201 663 229 689 q 150 606 172 636 q 103 461 103 536 q 121 364 103 393 q 171 311 126 354 q 221 264 215 268 q 233 253 225 258 l 250 243 l 267 232 q 294 217 275 228 l 347 189 q 411 161 381 172 q 536 138 479 138 q 644 153 593 138 q 744 194 696 168 q 889 329 857 256 q 908 374 900 353 l 919 406 q 924 418 924 417 q 916 474 924 436 q 902 540 908 513 q 871 604 896 568 q 811 669 844 640 q 603 797 731 738 m 328 328 l 272 329 l 260 329 l 243 347 q 275 372 251 365 q 313 382 299 379 l 313 610 q 225 557 278 594 q 215 564 222 557 q 208 578 208 571 q 217 597 208 586 q 236 618 225 608 q 269 642 257 636 q 296 650 282 644 l 326 661 l 358 672 l 383 679 q 414 688 392 682 l 458 699 q 499 708 481 704 q 522 714 517 713 l 549 715 q 621 688 593 715 q 649 617 649 661 q 644 574 649 578 q 619 544 642 564 q 593 522 597 524 q 603 508 594 518 l 619 488 q 651 439 647 450 q 658 422 656 428 q 679 400 665 408 q 708 420 686 418 q 743 422 729 422 q 711 339 744 365 q 678 329 700 329 q 644 349 657 329 q 618 393 631 368 q 589 440 606 418 q 532 469 567 469 q 517 468 525 469 q 494 465 500 465 q 492 444 494 456 q 486 419 488 431 l 486 413 q 504 382 486 389 q 535 374 518 378 q 561 367 551 369 q 575 364 571 364 l 575 347 q 531 336 575 342 q 467 329 483 329 l 386 328 l 328 328 m 542 665 l 504 663 q 503 653 506 661 q 493 617 497 633 q 486 583 486 589 l 486 572 q 503 539 486 539 q 539 547 519 539 q 572 567 556 554 q 611 626 611 597 q 568 665 611 665 l 542 665 z "},"":{"ha":322,"x_min":32,"x_max":292,"o":"m 103 947 l 150 950 q 235 929 203 950 q 292 838 292 890 q 249 744 290 789 q 160 697 206 697 q 119 707 128 697 l 43 801 q 32 843 32 813 q 52 904 32 874 q 103 947 72 935 z "},"":{"ha":601,"x_min":79,"x_max":522,"o":"m 197 76 l 122 78 l 99 78 q 79 110 79 89 q 99 131 79 131 l 168 113 l 185 113 q 439 149 285 113 l 518 167 q 522 139 522 158 q 519 114 522 117 q 466 96 511 103 q 401 86 421 89 q 365 81 382 83 q 344 78 349 78 l 325 78 l 253 76 l 197 76 m 321 794 l 325 707 l 328 682 q 334 653 331 667 q 340 629 338 639 q 343 619 342 619 l 500 619 l 500 585 q 325 550 378 575 q 314 489 319 526 q 308 447 308 451 l 308 376 q 301 365 307 372 q 290 357 294 358 l 274 376 l 274 528 l 221 532 l 150 515 q 99 511 133 511 l 99 550 l 274 603 l 272 646 l 274 689 q 281 751 274 708 q 290 794 289 794 l 321 794 z "},"":{"ha":532,"x_min":51,"x_max":493,"o":"m 121 525 l 86 525 q 69 540 83 526 q 51 560 56 553 l 51 568 q 69 596 51 589 q 88 594 74 594 l 92 594 q 157 622 128 594 q 207 683 188 653 q 246 815 246 750 q 240 861 246 847 q 196 875 235 875 q 127 847 157 875 q 69 788 97 819 q 53 801 56 792 q 51 822 51 811 l 51 839 q 232 929 108 929 q 359 890 315 929 q 403 764 403 850 q 385 689 403 718 q 340 637 367 660 q 282 592 313 614 q 226 542 251 571 q 334 525 289 525 q 398 544 379 525 q 429 588 417 564 q 454 632 442 613 q 492 651 467 651 q 446 510 493 542 q 384 490 419 492 q 335 489 349 489 l 290 489 l 261 490 q 121 525 260 490 z "},"":{"ha":515,"x_min":32,"x_max":472,"o":"m 67 526 q 113 553 67 553 l 121 553 l 208 465 q 244 614 244 524 l 244 626 l 243 663 l 243 675 l 190 657 l 181 657 q 154 683 154 657 q 158 699 154 694 q 169 708 163 703 q 188 717 178 711 l 224 736 q 243 746 239 744 l 243 861 q 219 863 236 861 q 182 865 201 864 q 135 868 151 868 q 121 867 125 868 l 68 850 q 64 849 65 849 l 58 849 q 40 856 47 849 q 32 878 32 864 q 44 900 32 892 q 74 913 57 908 q 108 918 90 917 q 139 919 126 919 l 278 938 q 350 929 308 938 q 400 919 392 921 q 418 897 418 917 l 418 865 q 382 786 418 825 q 357 760 368 772 q 346 736 346 747 l 346 732 q 347 728 346 731 q 435 641 397 689 q 472 540 472 593 q 471 483 472 486 q 451 465 468 475 q 268 411 360 411 l 218 411 q 174 431 196 411 q 147 456 167 433 q 117 489 128 478 l 103 501 q 85 508 100 503 q 67 522 67 515 l 67 526 z "},"":{"ha":336,"x_min":15,"x_max":322,"o":"m 281 1067 l 286 1068 q 311 1060 300 1068 q 322 1043 322 1051 q 322 1035 322 1035 q 321 1033 321 1035 l 321 1032 l 60 949 q 54 947 57 947 l 44 947 q 22 951 29 947 q 15 972 15 956 l 15 979 q 17 983 15 982 l 278 1067 l 281 1067 z "},"":{"ha":999,"x_min":53,"x_max":960,"o":"m 857 -47 l 839 -46 q 807 -42 826 -44 l 767 -36 q 715 -28 717 -29 q 708 -22 714 -28 l 693 -7 q 667 21 672 14 q 655 42 661 28 q 646 60 649 57 l 639 60 q 593 47 618 61 q 529 21 535 21 q 489 25 493 21 q 441 58 475 28 q 403 94 407 89 l 385 60 l 385 -150 l 438 -203 l 385 -272 l 53 -272 l 53 -229 l 158 -229 l 158 -168 q 160 -102 158 -153 q 163 16 161 -51 q 167 161 164 83 q 169 306 168 239 q 175 489 172 464 l 175 507 l 150 531 q 132 549 139 542 q 122 558 125 556 q 193 593 136 582 q 403 611 338 611 q 413 604 406 611 q 419 593 419 597 q 413 575 419 589 q 403 558 406 561 l 400 408 l 401 338 l 403 286 q 406 272 403 283 q 408 247 406 261 q 422 185 414 211 q 507 60 447 96 q 524 57 507 57 q 542 60 542 57 q 644 258 635 122 q 647 332 647 297 l 647 389 q 644 436 646 414 q 629 539 643 460 q 619 556 628 542 q 611 574 611 571 q 622 588 611 578 q 664 608 651 608 l 856 608 l 874 590 q 821 556 860 569 l 821 333 q 839 336 829 333 l 856 336 q 875 311 875 335 q 867 297 875 300 q 847 294 858 294 q 821 279 819 293 l 821 269 q 825 226 822 254 l 831 171 l 836 121 q 840 92 839 99 q 842 70 840 85 q 847 42 844 56 q 853 17 850 28 q 856 6 856 7 q 872 4 858 4 l 943 6 q 953 -1 946 6 q 960 -11 960 -7 q 857 -47 947 -47 z "},"":{"ha":968,"x_min":42,"x_max":922,"o":"m 439 -1 l 339 0 l 306 0 q 288 30 288 8 q 306 51 288 51 l 446 51 l 446 326 q 315 340 386 332 q 184 373 244 349 q 83 443 124 397 q 42 558 42 489 q 64 674 42 626 q 124 758 86 719 q 306 868 199 835 q 469 911 369 888 q 582 936 569 935 q 601 939 594 938 l 626 940 q 751 929 693 940 q 882 903 810 918 q 907 882 892 897 q 922 850 922 867 l 760 850 q 767 764 760 807 q 778 676 775 721 l 794 88 l 811 83 q 835 75 822 81 q 865 45 865 63 q 847 17 865 28 q 806 13 836 15 q 742 8 776 11 q 678 3 708 6 q 642 0 649 0 l 615 0 l 515 -1 l 439 -1 m 358 789 l 357 711 l 357 614 q 376 414 357 501 q 400 390 383 403 q 424 378 417 378 q 439 385 432 378 q 446 399 446 392 l 446 426 l 447 515 l 447 544 q 446 690 447 624 q 428 833 444 756 l 411 833 l 358 815 l 358 789 z "},"":{"ha":314,"x_min":64,"x_max":246,"o":"m 101 467 q 171 492 156 492 l 172 492 q 228 469 210 492 q 246 410 246 446 q 221 351 246 375 q 169 328 196 328 q 125 333 142 328 q 95 349 108 339 q 73 374 82 360 q 64 406 64 388 q 74 440 64 424 q 101 467 85 456 z "},"":{"ha":267,"x_min":26,"x_max":233,"o":"m 111 8 q 139 22 122 22 q 156 0 156 22 q 146 -41 156 -22 q 136 -74 136 -60 q 138 -90 136 -87 l 225 -176 q 233 -215 233 -187 q 225 -267 233 -243 q 203 -311 217 -292 q 125 -358 168 -358 q 36 -319 61 -358 q 27 -289 28 -306 q 35 -272 26 -272 q 63 -284 47 -272 q 88 -301 79 -296 q 110 -307 96 -307 q 138 -297 124 -307 q 161 -272 153 -286 q 181 -216 181 -240 q 168 -181 181 -192 q 139 -164 156 -171 l 107 -150 q 86 -133 92 -144 l 86 -99 q 111 8 86 -28 z "},"":{"ha":464,"x_min":43,"x_max":428,"o":"m 428 532 q 375 515 394 515 q 72 493 233 493 q 90 547 72 542 q 109 547 99 550 q 128 549 119 544 q 151 567 138 554 q 165 585 165 581 l 165 794 q 138 763 149 782 q 113 725 125 742 q 43 682 81 681 l 43 707 q 90 770 54 718 q 129 827 126 822 q 137 842 132 832 q 148 864 142 853 q 159 885 154 875 q 165 899 164 896 q 213 931 182 926 q 264 936 244 936 l 296 936 q 301 938 299 936 q 318 935 311 938 q 340 896 340 928 q 331 830 340 864 q 322 760 322 796 l 322 742 l 340 567 q 383 572 365 572 q 428 540 428 572 l 428 532 z "},"":{"ha":669,"x_min":44,"x_max":619,"o":"m 201 285 l 154 283 q 133 288 142 283 q 124 308 124 292 q 135 331 124 325 q 167 338 147 336 q 236 342 186 339 l 344 350 q 452 358 401 354 q 521 363 503 363 q 558 360 539 364 q 576 332 576 356 q 536 304 578 311 q 522 303 528 303 l 201 285 m 321 422 l 236 424 q 103 515 178 436 q 63 563 81 539 q 47 606 49 585 q 44 653 44 626 q 146 853 44 764 q 232 909 188 889 q 304 929 276 929 q 413 915 368 929 q 482 881 458 901 q 531 835 506 861 q 575 781 556 810 q 619 652 619 714 q 592 547 619 590 q 519 476 564 504 q 321 422 433 422 m 292 597 q 367 526 328 526 q 428 578 403 526 q 453 658 443 608 q 413 819 453 769 q 369 842 394 842 q 324 827 343 842 q 292 792 306 813 q 269 747 278 771 q 261 703 261 722 q 269 656 261 685 q 292 597 278 626 z "},"":{"ha":589,"x_min":50,"x_max":572,"o":"m 50 715 q 67 725 50 725 q 101 715 96 725 l 325 467 l 163 242 l 117 242 q 119 274 117 257 q 136 303 121 292 l 232 449 q 224 474 232 465 l 50 672 l 50 715 m 299 715 q 315 725 299 725 q 350 715 342 725 l 572 467 l 410 242 l 364 242 q 385 303 364 288 l 479 449 q 471 474 479 468 l 299 672 l 299 715 z "},"":{"ha":1156,"x_min":44,"x_max":1117,"o":"m 740 51 l 676 50 l 656 50 l 656 86 q 674 90 661 88 q 700 95 686 92 q 726 101 714 99 q 744 106 739 103 q 779 121 778 117 l 779 236 l 604 236 q 590 249 596 236 q 585 272 585 263 l 586 279 q 639 314 603 296 q 749 467 663 354 q 844 589 836 579 q 864 608 853 599 l 889 629 q 917 650 903 640 l 935 664 q 956 669 940 665 q 975 674 971 674 q 953 367 975 492 q 959 347 951 361 q 971 331 967 333 q 981 329 975 329 l 994 329 l 1024 331 l 1058 350 q 1072 340 1068 350 q 1076 322 1076 329 l 1075 314 q 1019 289 1046 297 q 975 272 994 283 q 935 182 933 250 l 935 157 q 953 121 947 121 l 1115 121 q 1050 72 1117 81 q 1024 69 1033 69 q 979 66 1014 68 q 903 60 944 64 q 821 55 861 57 q 768 52 781 53 q 740 51 756 51 m 901 933 l 900 925 l 885 901 q 813 802 872 882 q 648 565 753 722 q 492 321 543 407 q 428 211 440 236 l 401 158 q 360 69 376 108 q 342 83 344 74 q 340 104 340 93 l 340 114 q 343 122 340 117 l 356 150 q 375 193 364 171 q 463 344 408 258 l 561 500 l 647 636 l 728 761 q 814 890 808 885 l 883 960 q 901 933 901 953 m 690 296 q 740 290 713 290 q 779 296 768 290 q 782 306 779 297 q 788 325 785 314 q 792 348 790 336 q 796 367 794 360 l 796 454 q 787 446 793 453 q 778 435 781 439 l 765 417 q 744 385 756 403 q 701 318 710 336 q 690 296 693 300 m 429 489 q 344 471 367 471 l 289 471 l 168 454 q 144 453 164 453 l 100 453 q 79 454 81 453 l 63 489 q 150 524 122 508 q 153 558 151 533 q 159 611 156 583 q 165 664 163 639 q 168 699 167 689 l 167 711 q 118 700 144 711 q 44 676 67 678 l 44 715 q 65 729 50 719 l 97 750 l 128 772 q 150 786 142 783 l 168 804 q 175 822 168 807 q 185 839 182 836 l 201 839 q 206 838 203 839 q 243 857 232 838 q 265 896 256 878 q 315 943 290 943 q 342 925 338 943 q 361 769 361 847 l 361 761 q 356 627 360 678 q 353 524 353 576 l 429 524 l 429 489 z "},"":{"ha":1138,"x_min":47,"x_max":1097,"o":"m 851 900 q 874 917 854 903 l 903 940 q 919 951 914 949 q 939 957 929 957 l 939 918 q 911 883 939 917 l 864 822 l 822 767 l 781 717 q 751 681 761 692 q 711 638 728 646 l 381 63 l 275 -43 l 254 -43 q 274 0 254 -31 q 310 60 307 54 q 318 76 313 67 q 329 97 324 86 l 339 118 q 346 132 344 128 l 851 900 m 878 -10 l 835 -8 q 822 -2 832 -7 q 799 9 811 3 q 777 20 788 15 q 763 26 767 25 q 744 31 758 28 q 713 36 729 33 l 681 42 q 660 44 665 44 l 658 63 q 672 92 658 85 q 694 102 685 99 q 711 114 703 106 l 744 144 l 792 192 q 872 274 853 253 q 907 396 908 313 q 903 428 907 410 q 883 446 900 446 q 850 439 865 446 q 822 419 836 431 q 785 381 792 393 q 769 352 778 369 q 753 315 761 335 q 731 258 732 265 q 718 251 729 251 q 701 264 707 251 q 694 287 694 276 q 697 313 694 297 q 701 344 699 328 q 710 390 708 383 q 722 406 713 396 q 742 428 731 417 l 764 450 q 853 501 800 486 q 941 517 906 517 q 1003 508 976 517 q 1050 481 1029 497 q 1097 385 1097 442 q 1083 325 1097 354 q 1061 288 1068 296 q 1035 261 1054 281 l 993 219 l 950 178 l 924 151 q 908 139 918 146 q 885 123 897 132 q 864 106 874 114 q 851 97 853 100 q 847 68 847 92 q 851 44 847 44 q 877 32 854 38 q 908 26 900 26 q 933 36 915 26 l 969 61 q 1026 114 1001 85 q 1046 88 1046 104 l 1044 83 l 1044 79 q 878 -10 976 -10 m 328 953 q 364 900 347 940 q 372 718 364 804 q 383 617 381 632 q 389 586 386 603 q 399 533 396 544 q 413 531 403 533 q 433 525 422 528 q 485 499 476 514 q 400 468 446 469 q 328 465 354 467 q 283 460 303 463 q 242 455 264 458 q 199 449 219 451 q 174 447 179 447 q 156 443 169 446 l 128 438 q 83 428 89 431 l 75 428 q 56 435 64 428 q 47 456 47 443 q 62 478 47 469 q 97 492 76 486 q 138 502 117 497 q 171 515 158 507 q 174 544 172 524 q 180 586 176 564 q 185 628 183 608 q 189 654 188 647 l 185 757 q 144 744 167 756 q 88 723 104 722 q 63 726 72 724 q 49 743 53 728 l 65 760 q 114 796 81 774 l 164 831 q 189 847 181 843 q 194 879 185 861 q 205 899 203 897 q 217 904 207 901 q 240 910 228 907 l 263 914 q 277 919 272 917 q 302 933 282 921 q 328 953 322 946 z "},"":{"ha":1235,"x_min":40,"x_max":1188,"o":"m 260 21 q 319 99 261 24 l 436 250 l 561 408 l 683 569 q 878 826 868 810 q 894 853 889 843 q 903 876 899 863 q 915 899 908 889 q 967 919 931 919 q 943 828 967 860 l 385 113 q 331 51 353 86 q 279 -10 310 17 q 260 17 260 0 l 260 21 m 856 96 l 850 200 l 646 200 q 628 225 628 200 l 628 231 q 653 269 628 238 q 681 306 678 301 l 744 369 l 822 449 l 903 528 l 974 600 q 1047 671 1044 671 l 1065 671 q 1076 617 1071 671 q 1082 550 1082 563 l 1065 426 l 1071 278 l 1151 278 q 1172 260 1172 278 q 1132 238 1172 243 q 1117 235 1122 236 q 1103 231 1113 233 q 1082 226 1093 229 q 1061 220 1071 222 q 1047 217 1051 218 l 1047 60 l 1151 78 l 1163 78 q 1176 75 1172 78 q 1188 60 1181 72 q 1047 7 1161 18 l 856 7 l 769 -10 l 683 -14 q 725 38 683 28 q 765 43 743 42 q 806 47 786 44 q 856 96 850 56 m 699 251 q 824 235 793 235 l 839 235 q 861 252 849 238 q 874 269 874 267 l 908 461 l 890 461 l 881 451 q 856 428 869 442 l 828 400 q 748 312 792 364 q 699 251 704 260 m 192 410 l 172 408 q 137 422 157 408 q 103 444 117 436 q 78 458 89 453 q 57 472 65 464 q 40 521 40 488 q 93 506 75 519 q 149 479 126 478 l 157 479 q 189 567 169 504 q 208 633 206 628 q 206 663 211 642 l 124 663 q 128 678 125 671 q 133 694 131 686 q 138 705 135 701 q 150 711 142 708 l 167 717 q 192 724 189 724 q 245 774 228 739 q 263 849 263 808 l 261 857 l 261 863 q 233 876 253 871 q 208 881 214 881 q 186 882 203 882 l 121 882 q 86 881 93 882 q 104 897 103 897 q 208 918 154 918 q 296 917 263 919 q 325 915 310 915 q 367 917 344 915 l 454 933 l 482 933 q 511 930 497 933 q 525 907 525 926 l 524 897 l 419 776 q 394 772 406 783 q 382 753 382 761 q 424 711 382 733 q 480 665 468 688 q 492 610 492 642 q 489 557 492 579 q 478 517 486 536 q 419 444 464 482 q 401 435 415 442 l 385 426 l 192 410 z "},"":{"ha":732,"x_min":44,"x_max":685,"o":"m 529 881 q 433 776 529 776 q 360 807 390 776 q 329 883 329 838 q 365 956 329 928 q 451 983 400 983 q 514 950 494 983 q 529 881 531 925 m 279 708 l 490 717 q 519 701 510 717 q 529 671 529 686 l 528 656 l 356 457 l 279 235 q 276 193 276 229 q 313 53 276 128 q 336 33 325 44 q 356 10 344 21 q 404 -17 381 -17 q 564 78 492 -17 q 632 260 631 167 l 631 311 q 543 364 617 364 q 476 250 476 364 q 503 182 479 242 q 497 160 503 165 q 476 156 492 156 l 458 156 q 427 229 440 192 q 399 303 414 267 l 399 311 q 446 397 399 365 q 534 424 485 424 q 610 410 583 424 q 654 372 638 396 q 685 261 685 329 q 661 134 685 193 q 597 28 638 75 q 500 -47 556 -18 q 386 -76 444 -76 q 268 -61 328 -76 q 158 -14 208 -44 q 44 171 44 58 q 62 284 44 221 q 89 364 79 347 l 279 708 z "},"":{"ha":1176,"x_min":-3,"x_max":1168,"o":"m 506 -7 l 78 -7 q 59 3 65 -7 q 53 29 53 14 q 69 57 53 44 q 108 60 86 58 q 149 63 129 61 q 197 72 193 65 l 340 453 l 342 463 q 229 525 342 517 q 190 526 204 528 q 94 488 135 526 q 53 390 53 450 q 92 350 53 350 q 127 363 119 350 q 135 396 135 375 l 135 429 q 144 444 139 442 q 162 447 150 447 q 182 440 174 447 q 196 424 190 433 q 206 383 207 403 q 197 347 206 364 q 174 317 188 331 q 111 286 140 286 q 27 313 57 286 q -3 387 -3 340 q 11 469 -3 433 q 50 532 25 506 q 181 589 104 589 q 275 580 233 589 q 364 539 317 571 l 367 538 q 374 542 368 538 q 379 549 379 546 l 492 842 l 492 846 q 488 853 492 849 q 482 858 485 858 l 293 858 q 283 870 283 858 q 290 901 283 882 q 308 921 296 921 l 913 933 q 929 922 924 933 q 935 888 935 910 q 921 865 935 865 l 794 865 l 896 564 q 903 543 899 549 q 935 538 907 538 q 1005 551 963 538 q 1094 564 1047 564 q 1118 538 1118 564 q 1106 512 1118 521 q 1078 501 1093 503 l 951 485 q 935 469 935 485 l 1076 60 l 1151 40 q 1168 21 1168 38 q 1160 -6 1168 4 q 1143 -4 1151 -4 l 1126 -4 l 864 -11 q 844 -6 849 -11 q 840 19 840 0 q 860 47 840 39 q 895 58 879 54 q 924 62 911 63 q 953 60 938 61 q 1001 57 983 57 l 1001 74 l 879 453 l 864 453 q 803 403 858 453 l 735 342 q 716 315 721 328 q 690 303 711 303 q 658 315 669 303 q 635 343 646 328 q 613 371 625 358 q 591 383 601 383 q 581 383 581 383 q 579 382 581 382 l 578 382 l 468 79 q 465 66 465 76 q 472 53 465 56 l 490 47 q 508 36 500 43 q 515 11 515 29 q 506 -7 515 -7 m 610 469 l 608 461 q 612 447 608 450 q 625 439 615 444 l 644 424 l 669 407 q 697 389 681 399 l 840 507 q 857 517 857 515 q 856 522 857 519 l 856 525 l 750 825 l 610 469 m 726 1007 l 728 1000 q 721 979 728 983 q 699 975 714 975 l 689 975 q 683 976 686 975 l 422 1060 q 421 1061 421 1060 l 421 1064 q 432 1088 421 1079 q 449 1096 442 1096 l 450 1094 l 458 1094 l 465 1094 l 726 1011 l 726 1007 z "},"":{"ha":1176,"x_min":-3,"x_max":1168,"o":"m 506 -7 l 78 -7 q 59 3 65 -7 q 53 29 53 14 q 69 57 53 44 q 108 60 86 58 q 149 63 129 61 q 197 72 193 65 l 340 453 l 342 463 q 229 525 342 517 q 190 526 204 528 q 94 488 135 526 q 53 390 53 450 q 92 350 53 350 q 127 363 119 350 q 135 396 135 375 l 135 429 q 144 444 139 442 q 162 447 150 447 q 182 440 174 447 q 196 424 190 433 q 206 383 207 403 q 197 347 206 364 q 174 317 188 331 q 111 286 140 286 q 27 313 57 286 q -3 387 -3 340 q 11 469 -3 433 q 50 532 25 506 q 181 589 104 589 q 275 580 233 589 q 364 539 317 571 l 367 538 q 374 542 368 538 q 379 549 379 546 l 492 842 l 492 846 q 488 853 492 849 q 482 858 485 858 l 293 858 q 283 870 283 858 q 290 901 283 882 q 308 921 296 921 l 913 933 q 929 922 924 933 q 935 888 935 910 q 921 865 935 865 l 794 865 l 896 564 q 903 543 899 549 q 935 538 907 538 q 1005 551 963 538 q 1094 564 1047 564 q 1118 538 1118 564 q 1106 512 1118 521 q 1078 501 1093 503 l 951 485 q 935 469 935 485 l 1076 60 l 1151 40 q 1168 21 1168 38 q 1160 -6 1168 4 q 1143 -4 1151 -4 l 1126 -4 l 864 -11 q 844 -6 849 -11 q 840 19 840 0 q 860 47 840 39 q 895 58 879 54 q 924 62 911 63 q 953 60 938 61 q 1001 57 983 57 l 1001 74 l 879 453 l 864 453 q 803 403 858 453 l 735 342 q 716 315 721 328 q 690 303 711 303 q 658 315 669 303 q 635 343 646 328 q 613 371 625 358 q 591 383 601 383 q 581 383 581 383 q 579 382 581 382 l 578 382 l 468 79 q 465 66 465 76 q 472 53 465 56 l 490 47 q 508 36 500 43 q 515 11 515 29 q 506 -7 515 -7 m 610 469 l 608 461 q 612 447 608 450 q 625 439 615 444 l 644 424 l 669 407 q 697 389 681 399 l 840 507 q 857 517 857 515 q 856 522 857 519 l 856 525 l 750 825 l 610 469 m 847 1094 l 853 1096 q 878 1088 867 1096 q 889 1071 889 1079 q 888 1063 889 1063 q 888 1061 888 1063 l 888 1060 l 626 976 q 621 975 624 975 l 611 975 q 589 979 596 975 q 582 1000 582 983 l 582 1007 q 583 1011 582 1010 l 844 1094 l 847 1094 z "},"":{"ha":1176,"x_min":-3,"x_max":1168,"o":"m 506 -7 l 78 -7 q 59 3 65 -7 q 53 29 53 14 q 69 57 53 44 q 108 60 86 58 q 149 63 129 61 q 197 72 193 65 l 340 453 l 342 463 q 229 525 342 517 q 190 526 204 528 q 94 488 135 526 q 53 390 53 450 q 92 350 53 350 q 127 363 119 350 q 135 396 135 375 l 135 429 q 144 444 139 442 q 162 447 150 447 q 182 440 174 447 q 196 424 190 433 q 206 383 207 403 q 197 347 206 364 q 174 317 188 331 q 111 286 140 286 q 27 313 57 286 q -3 387 -3 340 q 11 469 -3 433 q 50 532 25 506 q 181 589 104 589 q 275 580 233 589 q 364 539 317 571 l 367 538 q 374 542 368 538 q 379 549 379 546 l 492 842 l 492 846 q 488 853 492 849 q 482 858 485 858 l 293 858 q 283 870 283 858 q 290 901 283 882 q 308 921 296 921 l 913 933 q 929 922 924 933 q 935 888 935 910 q 921 865 935 865 l 794 865 l 896 564 q 903 543 899 549 q 935 538 907 538 q 1005 551 963 538 q 1094 564 1047 564 q 1118 538 1118 564 q 1106 512 1118 521 q 1078 501 1093 503 l 951 485 q 935 469 935 485 l 1076 60 l 1151 40 q 1168 21 1168 38 q 1160 -6 1168 4 q 1143 -4 1151 -4 l 1126 -4 l 864 -11 q 844 -6 849 -11 q 840 19 840 0 q 860 47 840 39 q 895 58 879 54 q 924 62 911 63 q 953 60 938 61 q 1001 57 983 57 l 1001 74 l 879 453 l 864 453 q 803 403 858 453 l 735 342 q 716 315 721 328 q 690 303 711 303 q 658 315 669 303 q 635 343 646 328 q 613 371 625 358 q 591 383 601 383 q 581 383 581 383 q 579 382 581 382 l 578 382 l 468 79 q 465 66 465 76 q 472 53 465 56 l 490 47 q 508 36 500 43 q 515 11 515 29 q 506 -7 515 -7 m 610 469 l 608 461 q 612 447 608 450 q 625 439 615 444 l 644 424 l 669 407 q 697 389 681 399 l 840 507 q 857 517 857 515 q 856 522 857 519 l 856 525 l 750 825 l 610 469 m 644 1043 q 408 965 464 965 q 380 967 392 965 q 360 985 368 969 q 381 1029 367 1021 q 408 1042 394 1038 q 439 1054 421 1046 l 618 1121 l 622 1121 l 629 1122 q 688 1104 668 1118 l 869 1015 q 879 1000 872 1013 q 886 979 886 988 q 851 963 886 963 l 671 1035 q 659 1042 665 1040 q 650 1044 653 1043 q 647 1044 647 1044 q 646 1043 647 1043 l 644 1043 z "},"":{"ha":1176,"x_min":-3,"x_max":1168,"o":"m 506 -7 l 78 -7 q 59 3 65 -7 q 53 29 53 14 q 69 57 53 44 q 108 60 86 58 q 149 63 129 61 q 197 72 193 65 l 340 453 l 342 463 q 229 525 342 517 q 190 526 204 528 q 94 488 135 526 q 53 390 53 450 q 92 350 53 350 q 127 363 119 350 q 135 396 135 375 l 135 429 q 144 444 139 442 q 162 447 150 447 q 182 440 174 447 q 196 424 190 433 q 206 383 207 403 q 197 347 206 364 q 174 317 188 331 q 111 286 140 286 q 27 313 57 286 q -3 387 -3 340 q 11 469 -3 433 q 50 532 25 506 q 181 589 104 589 q 275 580 233 589 q 364 539 317 571 l 367 538 q 374 542 368 538 q 379 549 379 546 l 492 842 l 492 846 q 488 853 492 849 q 482 858 485 858 l 293 858 q 283 870 283 858 q 290 901 283 882 q 308 921 296 921 l 913 933 q 929 922 924 933 q 935 888 935 910 q 921 865 935 865 l 794 865 l 896 564 q 903 543 899 549 q 935 538 907 538 q 1005 551 963 538 q 1094 564 1047 564 q 1118 538 1118 564 q 1106 512 1118 521 q 1078 501 1093 503 l 951 485 q 935 469 935 485 l 1076 60 l 1151 40 q 1168 21 1168 38 q 1160 -6 1168 4 q 1143 -4 1151 -4 l 1126 -4 l 864 -11 q 844 -6 849 -11 q 840 19 840 0 q 860 47 840 39 q 895 58 879 54 q 924 62 911 63 q 953 60 938 61 q 1001 57 983 57 l 1001 74 l 879 453 l 864 453 q 803 403 858 453 l 735 342 q 716 315 721 328 q 690 303 711 303 q 658 315 669 303 q 635 343 646 328 q 613 371 625 358 q 591 383 601 383 q 581 383 581 383 q 579 382 581 382 l 578 382 l 468 79 q 465 66 465 76 q 472 53 465 56 l 490 47 q 508 36 500 43 q 515 11 515 29 q 506 -7 515 -7 m 610 469 l 608 461 q 612 447 608 450 q 625 439 615 444 l 644 424 l 669 407 q 697 389 681 399 l 840 507 q 857 517 857 515 q 856 522 857 519 l 856 525 l 750 825 l 610 469 m 283 971 q 253 1006 253 971 q 276 1061 253 1042 l 333 1100 q 499 1154 414 1153 q 614 1128 542 1153 l 721 1092 q 775 1079 756 1081 q 883 1101 840 1079 q 961 1176 926 1124 q 984 1170 978 1176 q 996 1150 990 1164 q 914 1050 983 1086 q 779 1019 856 1019 q 679 1044 750 1019 q 498 1092 547 1092 q 415 1073 449 1092 q 357 1031 381 1054 q 317 990 333 1008 q 283 971 300 971 z "},"":{"ha":1176,"x_min":-3,"x_max":1168,"o":"m 506 -7 l 78 -7 q 59 3 65 -7 q 53 29 53 14 q 69 57 53 44 q 108 60 86 58 q 149 63 129 61 q 197 72 193 65 l 340 453 l 342 463 q 229 525 342 517 q 190 526 204 528 q 94 488 135 526 q 53 390 53 450 q 92 350 53 350 q 127 363 119 350 q 135 396 135 375 l 135 429 q 144 444 139 442 q 162 447 150 447 q 182 440 174 447 q 196 424 190 433 q 206 383 207 403 q 197 347 206 364 q 174 317 188 331 q 111 286 140 286 q 27 313 57 286 q -3 387 -3 340 q 11 469 -3 433 q 50 532 25 506 q 181 589 104 589 q 275 580 233 589 q 364 539 317 571 l 367 538 q 374 542 368 538 q 379 549 379 546 l 492 842 l 492 846 q 488 853 492 849 q 482 858 485 858 l 293 858 q 283 870 283 858 q 290 901 283 882 q 308 921 296 921 l 913 933 q 929 922 924 933 q 935 888 935 910 q 921 865 935 865 l 794 865 l 896 564 q 903 543 899 549 q 935 538 907 538 q 1005 551 963 538 q 1094 564 1047 564 q 1118 538 1118 564 q 1106 512 1118 521 q 1078 501 1093 503 l 951 485 q 935 469 935 485 l 1076 60 l 1151 40 q 1168 21 1168 38 q 1160 -6 1168 4 q 1143 -4 1151 -4 l 1126 -4 l 864 -11 q 844 -6 849 -11 q 840 19 840 0 q 860 47 840 39 q 895 58 879 54 q 924 62 911 63 q 953 60 938 61 q 1001 57 983 57 l 1001 74 l 879 453 l 864 453 q 803 403 858 453 l 735 342 q 716 315 721 328 q 690 303 711 303 q 658 315 669 303 q 635 343 646 328 q 613 371 625 358 q 591 383 601 383 q 581 383 581 383 q 579 382 581 382 l 578 382 l 468 79 q 465 66 465 76 q 472 53 465 56 l 490 47 q 508 36 500 43 q 515 11 515 29 q 506 -7 515 -7 m 610 469 l 608 461 q 612 447 608 450 q 625 439 615 444 l 644 424 l 669 407 q 697 389 681 399 l 840 507 q 857 517 857 515 q 856 522 857 519 l 856 525 l 750 825 l 610 469 m 490 1117 q 549 1136 519 1136 q 593 1117 579 1136 q 607 1070 607 1099 q 587 1023 607 1042 q 544 1004 567 1004 q 509 1008 522 1004 q 485 1021 496 1013 q 467 1040 474 1029 q 460 1066 460 1051 q 468 1094 460 1081 q 490 1117 476 1108 m 771 1117 q 828 1136 799 1136 q 873 1117 858 1136 q 888 1070 888 1099 q 867 1023 888 1042 q 818 1004 846 1004 q 765 1021 790 1004 q 740 1059 740 1038 q 749 1094 740 1081 q 771 1117 757 1108 z "},"":{"ha":1176,"x_min":-3,"x_max":1168,"o":"m 506 -7 l 78 -7 q 59 3 65 -7 q 53 29 53 14 q 69 57 53 44 q 108 60 86 58 q 149 63 129 61 q 197 72 193 65 l 340 453 l 342 463 q 229 525 342 517 q 190 526 204 528 q 94 488 135 526 q 53 390 53 450 q 92 350 53 350 q 127 363 119 350 q 135 396 135 375 l 135 429 q 144 444 139 442 q 162 447 150 447 q 182 440 174 447 q 196 424 190 433 q 206 383 207 403 q 197 347 206 364 q 174 317 188 331 q 111 286 140 286 q 27 313 57 286 q -3 387 -3 340 q 11 469 -3 433 q 50 532 25 506 q 181 589 104 589 q 275 580 233 589 q 364 539 317 571 l 367 538 q 374 542 368 538 q 379 549 379 546 l 492 842 l 492 846 q 488 853 492 849 q 482 858 485 858 l 293 858 q 283 870 283 858 q 290 901 283 882 q 308 921 296 921 l 913 933 q 929 922 924 933 q 935 888 935 910 q 921 865 935 865 l 794 865 l 896 564 q 903 543 899 549 q 935 538 907 538 q 1005 551 963 538 q 1094 564 1047 564 q 1118 538 1118 564 q 1106 512 1118 521 q 1078 501 1093 503 l 951 485 q 935 469 935 485 l 1076 60 l 1151 40 q 1168 21 1168 38 q 1160 -6 1168 4 q 1143 -4 1151 -4 l 1126 -4 l 864 -11 q 844 -6 849 -11 q 840 19 840 0 q 860 47 840 39 q 895 58 879 54 q 924 62 911 63 q 953 60 938 61 q 1001 57 983 57 l 1001 74 l 879 453 l 864 453 q 803 403 858 453 l 735 342 q 716 315 721 328 q 690 303 711 303 q 658 315 669 303 q 635 343 646 328 q 613 371 625 358 q 591 383 601 383 q 581 383 581 383 q 579 382 581 382 l 578 382 l 468 79 q 465 66 465 76 q 472 53 465 56 l 490 47 q 508 36 500 43 q 515 11 515 29 q 506 -7 515 -7 m 610 469 l 608 461 q 612 447 608 450 q 625 439 615 444 l 644 424 l 669 407 q 697 389 681 399 l 840 507 q 857 517 857 515 q 856 522 857 519 l 856 525 l 750 825 l 610 469 m 528 1272 l 575 1275 q 660 1254 629 1275 q 717 1163 718 1215 q 674 1069 715 1114 q 585 1022 631 1022 q 544 1032 553 1022 l 467 1126 q 457 1169 457 1139 q 477 1229 457 1199 q 528 1272 497 1260 m 540 1115 q 578 1085 557 1085 q 613 1092 599 1085 q 635 1111 624 1100 q 657 1167 657 1136 q 636 1206 657 1199 q 578 1214 615 1214 q 533 1201 542 1214 q 525 1172 525 1189 q 529 1142 525 1156 q 540 1115 533 1128 z "},"":{"ha":1258,"x_min":-19,"x_max":1229,"o":"m 597 -4 q 578 29 578 -4 l 578 35 q 579 40 578 38 l 597 126 l 597 140 l 599 206 l 599 264 l 597 372 l 597 401 q 551 372 574 385 q 501 358 529 358 l 486 360 l 393 468 l 385 469 q 339 425 361 469 q 222 229 308 383 l 131 65 q 190 0 190 42 l 0 0 q -19 32 -19 0 l -19 39 q -18 42 -19 40 q 132 215 36 60 q 171 274 154 251 l 213 332 l 261 403 q 318 490 318 485 l 318 511 q 279 525 318 519 q 229 532 243 532 l 153 532 q 142 542 149 533 q 135 553 135 550 q 253 597 153 597 l 300 596 l 375 575 q 383 583 376 575 q 397 600 392 589 l 426 650 l 478 731 q 560 864 549 844 l 449 864 l 449 928 q 522 926 469 928 q 632 924 574 925 q 819 918 792 919 l 931 896 l 976 896 q 1088 907 1032 896 q 1199 918 1143 918 q 1229 864 1229 918 l 1226 833 q 1171 725 1197 760 q 1151 722 1165 722 q 1133 724 1136 722 q 1125 736 1131 726 l 1115 757 q 1104 778 1110 768 l 1097 790 q 1088 801 1093 794 q 1076 817 1082 808 q 1060 833 1060 836 l 838 833 l 838 492 q 893 508 868 492 q 972 538 942 538 q 972 524 972 535 q 971 503 971 514 q 968 467 969 471 q 964 453 967 463 q 958 433 961 444 q 949 401 951 408 l 940 401 q 908 413 922 401 q 872 425 893 425 q 838 385 838 425 l 838 360 q 844 299 838 353 q 853 220 850 246 q 856 192 856 194 q 857 183 857 189 l 856 156 q 857 147 856 150 q 910 64 865 78 q 947 58 926 58 l 957 58 q 1001 60 985 60 l 1029 60 l 1081 61 l 1097 61 q 1122 94 1115 72 l 1136 139 q 1156 178 1143 161 q 1196 196 1168 196 q 1194 158 1196 179 q 1191 123 1192 136 q 1190 106 1190 110 q 1187 94 1189 103 q 1181 74 1185 85 q 1175 54 1178 64 q 1167 30 1171 39 q 1160 14 1163 21 q 1151 -4 1157 7 l 597 -4 m 431 553 l 429 542 q 454 500 429 531 q 519 446 500 446 l 522 446 q 553 458 531 446 q 597 490 585 476 l 606 582 q 615 708 614 688 q 617 739 617 729 l 618 781 l 618 794 q 594 789 601 794 q 579 769 589 783 l 551 732 l 515 683 l 485 642 q 460 607 467 619 l 447 583 q 437 564 442 572 q 431 553 432 556 z "},"":{"ha":906,"x_min":31,"x_max":885,"o":"m 461 8 l 529 7 q 728 49 654 7 q 803 128 793 86 q 826 188 814 174 q 851 201 839 201 q 874 194 864 201 q 885 166 885 186 q 874 115 885 146 q 843 58 863 86 q 749 -25 803 0 q 526 -69 654 -69 q 263 19 365 -69 q 111 407 128 138 l 42 407 q 31 424 31 407 q 38 449 31 440 q 54 462 44 457 q 76 469 64 467 q 97 475 88 472 q 149 711 107 606 q 215 824 182 796 q 294 875 247 853 q 390 914 340 899 q 574 943 485 943 l 731 907 q 756 932 739 922 q 797 942 774 942 q 835 876 835 942 l 792 690 q 768 682 792 688 q 731 700 740 682 q 585 869 676 853 q 543 874 561 874 q 457 810 457 874 q 458 796 457 801 l 460 800 l 460 775 l 460 631 q 451 198 460 325 q 443 40 443 71 q 461 8 443 8 m 469 8 q 497 22 481 22 q 514 0 514 22 q 504 -41 514 -22 q 494 -74 494 -60 q 496 -90 494 -87 l 583 -176 q 592 -215 592 -187 q 583 -267 592 -243 q 561 -311 575 -292 q 483 -358 526 -358 q 394 -319 419 -358 q 385 -289 386 -306 q 393 -272 385 -272 q 422 -284 406 -272 q 446 -301 438 -296 q 468 -307 454 -307 q 496 -297 482 -307 q 519 -272 511 -286 q 539 -216 539 -240 q 526 -181 539 -192 q 497 -164 514 -171 l 465 -150 q 444 -133 450 -144 l 444 -99 q 469 8 444 -28 z "},"":{"ha":881,"x_min":38,"x_max":879,"o":"m 733 -12 l 690 -14 l 654 -14 q 265 -21 557 -14 l 224 -22 l 169 -22 q 90 -19 126 -22 q 54 6 54 -15 q 74 33 54 26 l 192 31 q 184 222 192 131 q 176 414 176 314 q 152 432 169 426 q 128 444 135 438 q 122 465 122 450 q 129 484 122 481 q 145 488 136 488 q 163 490 154 489 q 176 501 172 492 l 176 521 l 178 583 l 178 604 l 179 719 q 171 838 179 763 q 146 836 165 836 l 81 836 l 47 836 q 38 849 38 838 q 47 894 38 881 q 82 907 56 907 l 249 908 q 393 903 321 908 q 528 897 465 897 q 645 900 592 897 q 749 922 699 903 q 767 935 760 928 q 785 942 775 942 q 803 934 794 942 q 811 915 811 926 l 810 910 l 810 907 l 788 869 q 774 847 779 856 q 749 833 763 833 q 660 836 736 833 q 610 838 638 838 q 433 832 540 838 q 418 503 418 667 q 514 517 479 503 l 563 536 q 593 543 578 543 q 617 533 608 543 q 625 492 625 524 q 610 442 625 460 q 553 425 596 425 q 504 451 511 425 l 418 446 l 417 428 q 410 314 410 336 l 410 275 q 410 233 410 258 q 412 178 411 207 q 414 125 413 150 q 416 83 415 100 q 418 64 417 65 l 426 47 l 496 46 l 585 44 q 813 90 760 44 q 829 99 822 99 q 879 51 879 99 l 876 32 q 871 14 874 14 l 853 -4 l 839 -6 q 733 -12 769 -12 m 581 1007 l 582 1000 q 575 979 582 983 q 553 975 568 975 l 543 975 q 538 976 540 975 l 276 1060 q 275 1061 275 1060 l 275 1064 q 286 1088 275 1079 q 303 1096 296 1096 l 304 1094 l 313 1094 l 319 1094 l 581 1011 l 581 1007 z "},"":{"ha":881,"x_min":38,"x_max":879,"o":"m 733 -12 l 690 -14 l 654 -14 q 265 -21 557 -14 l 224 -22 l 169 -22 q 90 -19 126 -22 q 54 6 54 -15 q 74 33 54 26 l 192 31 q 184 222 192 131 q 176 414 176 314 q 152 432 169 426 q 128 444 135 438 q 122 465 122 450 q 129 484 122 481 q 145 488 136 488 q 163 490 154 489 q 176 501 172 492 l 176 521 l 178 583 l 178 604 l 179 719 q 171 838 179 763 q 146 836 165 836 l 81 836 l 47 836 q 38 849 38 838 q 47 894 38 881 q 82 907 56 907 l 249 908 q 393 903 321 908 q 528 897 465 897 q 645 900 592 897 q 749 922 699 903 q 767 935 760 928 q 785 942 775 942 q 803 934 794 942 q 811 915 811 926 l 810 910 l 810 907 l 788 869 q 774 847 779 856 q 749 833 763 833 q 660 836 736 833 q 610 838 638 838 q 433 832 540 838 q 418 503 418 667 q 514 517 479 503 l 563 536 q 593 543 578 543 q 617 533 608 543 q 625 492 625 524 q 610 442 625 460 q 553 425 596 425 q 504 451 511 425 l 418 446 l 417 428 q 410 314 410 336 l 410 275 q 410 233 410 258 q 412 178 411 207 q 414 125 413 150 q 416 83 415 100 q 418 64 417 65 l 426 47 l 496 46 l 585 44 q 813 90 760 44 q 829 99 822 99 q 879 51 879 99 l 876 32 q 871 14 874 14 l 853 -4 l 839 -6 q 733 -12 769 -12 m 565 1094 l 571 1096 q 596 1088 585 1096 q 607 1071 607 1079 q 606 1063 607 1063 q 606 1061 606 1063 l 606 1060 l 344 976 q 339 975 342 975 l 329 975 q 307 979 314 975 q 300 1000 300 983 l 300 1007 q 301 1011 300 1010 l 563 1094 l 565 1094 z "},"":{"ha":881,"x_min":38,"x_max":879,"o":"m 733 -12 l 690 -14 l 654 -14 q 265 -21 557 -14 l 224 -22 l 169 -22 q 90 -19 126 -22 q 54 6 54 -15 q 74 33 54 26 l 192 31 q 184 222 192 131 q 176 414 176 314 q 152 432 169 426 q 128 444 135 438 q 122 465 122 450 q 129 484 122 481 q 145 488 136 488 q 163 490 154 489 q 176 501 172 492 l 176 521 l 178 583 l 178 604 l 179 719 q 171 838 179 763 q 146 836 165 836 l 81 836 l 47 836 q 38 849 38 838 q 47 894 38 881 q 82 907 56 907 l 249 908 q 393 903 321 908 q 528 897 465 897 q 645 900 592 897 q 749 922 699 903 q 767 935 760 928 q 785 942 775 942 q 803 934 794 942 q 811 915 811 926 l 810 910 l 810 907 l 788 869 q 774 847 779 856 q 749 833 763 833 q 660 836 736 833 q 610 838 638 838 q 433 832 540 838 q 418 503 418 667 q 514 517 479 503 l 563 536 q 593 543 578 543 q 617 533 608 543 q 625 492 625 524 q 610 442 625 460 q 553 425 596 425 q 504 451 511 425 l 418 446 l 417 428 q 410 314 410 336 l 410 275 q 410 233 410 258 q 412 178 411 207 q 414 125 413 150 q 416 83 415 100 q 418 64 417 65 l 426 47 l 496 46 l 585 44 q 813 90 760 44 q 829 99 822 99 q 879 51 879 99 l 876 32 q 871 14 874 14 l 853 -4 l 839 -6 q 733 -12 769 -12 m 436 1043 q 200 965 256 965 q 172 967 183 965 q 151 985 160 969 q 172 1029 158 1021 q 199 1042 186 1038 q 231 1054 213 1046 l 410 1121 l 414 1121 l 421 1122 q 479 1104 460 1118 l 661 1015 q 671 1000 664 1013 q 678 979 678 988 q 643 963 678 963 l 463 1035 q 451 1042 457 1040 q 442 1044 444 1043 q 439 1044 439 1044 q 438 1043 439 1043 l 436 1043 z "},"":{"ha":881,"x_min":38,"x_max":879,"o":"m 733 -12 l 690 -14 l 654 -14 q 265 -21 557 -14 l 224 -22 l 169 -22 q 90 -19 126 -22 q 54 6 54 -15 q 74 33 54 26 l 192 31 q 184 222 192 131 q 176 414 176 314 q 152 432 169 426 q 128 444 135 438 q 122 465 122 450 q 129 484 122 481 q 145 488 136 488 q 163 490 154 489 q 176 501 172 492 l 176 521 l 178 583 l 178 604 l 179 719 q 171 838 179 763 q 146 836 165 836 l 81 836 l 47 836 q 38 849 38 838 q 47 894 38 881 q 82 907 56 907 l 249 908 q 393 903 321 908 q 528 897 465 897 q 645 900 592 897 q 749 922 699 903 q 767 935 760 928 q 785 942 775 942 q 803 934 794 942 q 811 915 811 926 l 810 910 l 810 907 l 788 869 q 774 847 779 856 q 749 833 763 833 q 660 836 736 833 q 610 838 638 838 q 433 832 540 838 q 418 503 418 667 q 514 517 479 503 l 563 536 q 593 543 578 543 q 617 533 608 543 q 625 492 625 524 q 610 442 625 460 q 553 425 596 425 q 504 451 511 425 l 418 446 l 417 428 q 410 314 410 336 l 410 275 q 410 233 410 258 q 412 178 411 207 q 414 125 413 150 q 416 83 415 100 q 418 64 417 65 l 426 47 l 496 46 l 585 44 q 813 90 760 44 q 829 99 822 99 q 879 51 879 99 l 876 32 q 871 14 874 14 l 853 -4 l 839 -6 q 733 -12 769 -12 m 244 1117 q 303 1136 274 1136 q 347 1117 333 1136 q 361 1070 361 1099 q 341 1023 361 1042 q 299 1004 321 1004 q 263 1008 276 1004 q 239 1021 250 1013 q 221 1040 228 1029 q 214 1066 214 1051 q 222 1094 214 1081 q 244 1117 231 1108 m 525 1117 q 583 1136 553 1136 q 627 1117 613 1136 q 642 1070 642 1099 q 621 1023 642 1042 q 572 1004 600 1004 q 519 1021 544 1004 q 494 1059 494 1038 q 503 1094 494 1081 q 525 1117 511 1108 z "},"":{"ha":633,"x_min":36,"x_max":588,"o":"m 450 -47 l 381 -50 l 354 -50 q 292 -47 314 -50 q 211 -39 240 -39 l 94 -39 q 60 -32 71 -39 q 49 -3 50 -25 q 67 22 47 19 q 110 23 86 25 q 156 21 133 21 q 185 33 178 21 l 188 228 l 190 378 q 189 399 190 393 q 171 396 181 396 q 149 413 161 396 q 136 444 136 431 q 144 463 136 458 q 163 471 153 468 q 181 476 172 474 q 189 486 189 479 q 184 577 185 528 q 182 677 183 626 q 180 778 181 728 q 175 871 179 828 q 163 881 165 881 l 110 881 q 74 881 92 881 q 46 894 56 882 q 36 917 36 906 q 37 933 36 928 q 46 943 38 939 l 183 950 q 232 947 208 947 l 479 953 l 499 953 l 558 951 l 578 951 q 588 923 588 947 q 574 890 588 899 q 522 881 560 881 l 456 883 q 449 611 456 750 q 443 302 443 472 q 458 17 443 132 l 553 10 q 583 -22 582 10 q 565 -37 578 -35 l 450 -47 m 478 1031 l 479 1024 q 472 1003 479 1007 q 450 999 465 999 l 440 999 q 435 1000 438 999 l 174 1083 q 172 1085 172 1083 l 172 1088 q 183 1111 172 1103 q 200 1119 193 1119 l 201 1118 l 210 1118 l 217 1118 l 478 1035 l 478 1031 z "},"":{"ha":635,"x_min":36,"x_max":588,"o":"m 450 -47 l 381 -50 l 354 -50 q 292 -47 314 -50 q 211 -39 240 -39 l 94 -39 q 60 -32 71 -39 q 49 -3 50 -25 q 67 22 47 19 q 110 23 86 25 q 156 21 133 21 q 185 33 178 21 l 188 228 l 190 378 q 189 399 190 393 q 171 396 181 396 q 149 413 161 396 q 136 444 136 431 q 144 463 136 458 q 163 471 153 468 q 181 476 172 474 q 189 486 189 479 q 184 577 185 528 q 182 677 183 626 q 180 778 181 728 q 175 871 179 828 q 163 881 165 881 l 110 881 q 74 881 92 881 q 46 894 56 882 q 36 917 36 906 q 37 933 36 928 q 46 943 38 939 l 183 950 q 232 947 208 947 l 479 953 l 499 953 l 558 951 l 578 951 q 588 923 588 947 q 574 890 588 899 q 522 881 560 881 l 456 883 q 449 611 456 750 q 443 302 443 472 q 458 17 443 132 l 553 10 q 583 -22 582 10 q 565 -37 578 -35 l 450 -47 m 438 1118 l 443 1119 q 468 1111 457 1119 q 479 1094 479 1103 q 478 1086 479 1086 q 478 1085 478 1086 l 478 1083 l 217 1000 q 211 999 214 999 l 201 999 q 179 1003 186 999 q 172 1024 172 1007 l 172 1031 q 174 1035 172 1033 l 435 1118 l 438 1118 z "},"":{"ha":635,"x_min":36,"x_max":589,"o":"m 450 -47 l 381 -50 l 354 -50 q 292 -47 314 -50 q 211 -39 240 -39 l 94 -39 q 60 -32 71 -39 q 49 -3 50 -25 q 67 22 47 19 q 110 23 86 25 q 156 21 133 21 q 185 33 178 21 l 188 228 l 190 378 q 189 399 190 393 q 171 396 181 396 q 149 413 161 396 q 136 444 136 431 q 144 463 136 458 q 163 471 153 468 q 181 476 172 474 q 189 486 189 479 q 184 577 185 528 q 182 677 183 626 q 180 778 181 728 q 175 871 179 828 q 163 881 165 881 l 110 881 q 74 881 92 881 q 46 894 56 882 q 36 917 36 906 q 37 933 36 928 q 46 943 38 939 l 183 950 q 232 947 208 947 l 479 953 l 499 953 l 558 951 l 578 951 q 588 923 588 947 q 574 890 588 899 q 522 881 560 881 l 456 883 q 449 611 456 750 q 443 302 443 472 q 458 17 443 132 l 553 10 q 583 -22 582 10 q 565 -37 578 -35 l 450 -47 m 347 1067 q 111 989 167 989 q 83 991 94 989 q 63 1008 71 993 q 83 1053 69 1044 q 110 1065 97 1061 q 142 1078 124 1069 l 321 1144 l 325 1144 l 332 1146 q 390 1128 371 1142 l 572 1039 q 582 1024 575 1036 q 589 1003 589 1011 q 554 986 589 986 l 374 1058 q 362 1065 368 1064 q 353 1067 356 1067 q 350 1067 350 1068 q 349 1067 350 1067 l 347 1067 z "},"":{"ha":633,"x_min":36,"x_max":588,"o":"m 450 -47 l 381 -50 l 354 -50 q 292 -47 314 -50 q 211 -39 240 -39 l 94 -39 q 60 -32 71 -39 q 49 -3 50 -25 q 67 22 47 19 q 110 23 86 25 q 156 21 133 21 q 185 33 178 21 l 188 228 l 190 378 q 189 399 190 393 q 171 396 181 396 q 149 413 161 396 q 136 444 136 431 q 144 463 136 458 q 163 471 153 468 q 181 476 172 474 q 189 486 189 479 q 184 577 185 528 q 182 677 183 626 q 180 778 181 728 q 175 871 179 828 q 163 881 165 881 l 110 881 q 74 881 92 881 q 46 894 56 882 q 36 917 36 906 q 37 933 36 928 q 46 943 38 939 l 183 950 q 232 947 208 947 l 479 953 l 499 953 l 558 951 l 578 951 q 588 923 588 947 q 574 890 588 899 q 522 881 560 881 l 456 883 q 449 611 456 750 q 443 302 443 472 q 458 17 443 132 l 553 10 q 583 -22 582 10 q 565 -37 578 -35 l 450 -47 m 146 1117 q 205 1136 175 1136 q 249 1117 235 1136 q 263 1070 263 1099 q 242 1023 263 1042 q 200 1004 222 1004 q 165 1008 178 1004 q 140 1021 151 1013 q 122 1040 129 1029 q 115 1066 115 1051 q 124 1094 115 1081 q 146 1117 132 1108 m 426 1117 q 484 1136 454 1136 q 528 1117 514 1136 q 543 1070 543 1099 q 522 1023 543 1042 q 474 1004 501 1004 q 421 1021 446 1004 q 396 1059 396 1038 q 404 1094 396 1081 q 426 1117 413 1108 z "},"":{"ha":1078,"x_min":31,"x_max":1015,"o":"m 244 1 l 60 7 l 40 29 q 182 100 67 100 l 203 335 l 200 407 l 60 407 q 49 415 57 407 q 40 431 42 424 q 36 453 38 439 q 31 513 33 488 l 203 513 l 203 853 q 158 886 190 856 q 121 923 125 917 q 112 949 117 929 q 107 975 107 968 l 142 971 q 156 961 144 969 l 182 946 q 222 922 206 931 q 232 924 224 922 q 244 922 240 925 q 263 911 247 919 q 283 899 278 903 l 708 899 q 871 829 772 899 l 900 806 l 942 772 l 985 736 l 1013 711 l 1014 653 l 1014 594 q 1015 540 1015 564 l 1015 525 q 1014 496 1015 510 q 992 407 1011 450 q 983 395 992 404 q 972 383 974 386 q 972 371 969 381 q 972 356 975 361 l 964 338 l 953 308 l 940 281 l 932 265 q 878 185 903 219 q 850 147 853 150 q 689 53 836 133 q 401 -1 583 -1 q 351 0 376 0 q 244 1 296 3 m 486 454 l 465 125 l 486 75 l 507 81 l 557 94 q 668 125 638 115 q 782 186 729 142 q 936 444 885 272 q 949 491 944 472 q 957 525 953 510 q 964 555 961 540 q 969 581 967 569 q 972 596 972 593 q 969 608 972 597 l 964 631 q 957 651 961 642 q 951 665 953 661 q 721 822 869 797 q 649 831 674 831 l 613 831 l 563 829 l 546 829 q 520 796 533 818 q 505 753 507 774 q 502 695 503 733 q 500 618 501 657 q 497 535 499 579 l 621 535 l 626 514 q 629 493 629 503 q 627 477 629 483 q 617 463 625 471 q 601 453 610 454 q 547 451 593 451 q 486 454 500 451 z "},"":{"ha":1133,"x_min":69,"x_max":1090,"o":"m 319 3 l 96 6 q 75 19 79 6 q 69 51 69 36 q 79 69 69 64 q 102 79 89 75 q 128 89 115 83 q 147 111 142 94 q 190 629 176 299 q 194 757 193 717 l 194 814 q 192 847 194 831 q 94 865 107 847 q 79 921 79 888 q 364 941 229 935 q 524 947 499 947 q 622 913 621 947 q 593 881 622 896 q 564 855 564 867 q 583 809 564 843 q 626 735 601 775 q 718 601 683 646 q 729 604 721 604 q 796 629 771 604 q 800 605 800 621 q 794 581 800 589 q 782 564 790 572 q 763 523 763 542 q 765 504 763 504 q 796 438 771 488 l 838 353 q 871 288 854 318 q 899 233 888 257 q 915 203 911 210 q 928 373 928 258 q 924 569 928 488 q 915 719 921 653 q 894 872 904 872 l 764 861 q 778 917 764 901 q 803 933 792 932 l 833 936 q 868 942 850 939 q 903 944 888 942 q 1008 953 958 953 q 1088 940 1083 953 l 1090 908 q 1055 901 1076 907 q 1018 892 1033 894 q 999 880 1014 889 q 979 868 983 871 q 976 831 978 857 q 974 775 976 806 q 968 685 968 706 l 968 663 q 979 222 972 324 q 986 106 986 121 q 694 0 981 13 q 653 10 667 0 q 640 47 640 21 q 643 78 640 72 l 472 369 l 383 363 q 384 376 383 368 q 391 398 385 383 q 411 422 397 413 q 425 456 425 432 q 407 522 425 481 q 363 611 388 564 q 257 767 310 707 q 250 732 250 756 l 250 707 q 240 508 249 640 q 224 196 224 253 q 232 76 224 86 q 254 69 238 69 q 290 68 271 69 q 323 60 308 67 q 338 28 338 53 q 319 3 338 3 m 238 971 q 207 1006 207 971 q 231 1061 207 1042 l 288 1100 q 453 1154 368 1153 q 568 1128 496 1153 l 675 1092 q 729 1079 710 1081 q 838 1101 794 1079 q 915 1176 881 1124 q 938 1170 932 1176 q 950 1150 944 1164 q 868 1050 938 1086 q 733 1019 810 1019 q 633 1044 704 1019 q 452 1092 501 1092 q 369 1073 403 1092 q 311 1031 335 1054 q 271 990 288 1008 q 238 971 254 971 z "},"":{"ha":1083,"x_min":56,"x_max":1026,"o":"m 711 -3 q 510 -40 615 -40 q 325 -4 406 -40 q 184 91 244 32 q 90 226 124 150 q 56 373 56 303 q 67 508 56 443 q 100 639 78 575 q 367 939 181 867 q 525 967 439 967 q 924 814 794 967 q 1026 504 1026 692 q 878 106 1025 253 q 711 -3 808 36 m 338 494 q 333 398 333 442 q 344 306 333 354 q 372 206 356 256 q 468 18 407 107 q 507 6 472 6 q 564 11 529 6 q 689 103 667 26 q 719 202 704 161 q 744 279 733 243 q 769 419 769 360 q 765 524 769 478 q 751 620 761 569 q 725 722 742 671 q 686 814 711 772 q 554 907 632 906 q 418 811 474 906 q 338 494 354 703 m 646 1043 l 647 1036 q 640 1015 647 1019 q 618 1011 633 1011 l 608 1011 q 603 1013 606 1011 l 342 1096 q 340 1097 340 1096 l 340 1100 q 351 1124 340 1115 q 368 1132 361 1132 l 369 1131 l 378 1131 l 385 1131 l 646 1047 l 646 1043 z "},"":{"ha":1083,"x_min":56,"x_max":1026,"o":"m 711 -3 q 510 -40 615 -40 q 325 -4 406 -40 q 184 91 244 32 q 90 226 124 150 q 56 373 56 303 q 67 508 56 443 q 100 639 78 575 q 367 939 181 867 q 525 967 439 967 q 924 814 794 967 q 1026 504 1026 692 q 878 106 1025 253 q 711 -3 808 36 m 338 494 q 333 398 333 442 q 344 306 333 354 q 372 206 356 256 q 468 18 407 107 q 507 6 472 6 q 564 11 529 6 q 689 103 667 26 q 719 202 704 161 q 744 279 733 243 q 769 419 769 360 q 765 524 769 478 q 751 620 761 569 q 725 722 742 671 q 686 814 711 772 q 554 907 632 906 q 418 811 474 906 q 338 494 354 703 m 668 1131 l 674 1132 q 699 1124 688 1132 q 710 1107 710 1115 q 709 1099 710 1099 q 708 1097 708 1099 l 708 1096 l 447 1013 q 442 1011 444 1011 l 432 1011 q 410 1015 417 1011 q 403 1036 403 1019 l 403 1043 q 404 1047 403 1046 l 665 1131 l 668 1131 z "},"":{"ha":1083,"x_min":56,"x_max":1026,"o":"m 711 -3 q 510 -40 615 -40 q 325 -4 406 -40 q 184 91 244 32 q 90 226 124 150 q 56 373 56 303 q 67 508 56 443 q 100 639 78 575 q 367 939 181 867 q 525 967 439 967 q 924 814 794 967 q 1026 504 1026 692 q 878 106 1025 253 q 711 -3 808 36 m 338 494 q 333 398 333 442 q 344 306 333 354 q 372 206 356 256 q 468 18 407 107 q 507 6 472 6 q 564 11 529 6 q 689 103 667 26 q 719 202 704 161 q 744 279 733 243 q 769 419 769 360 q 765 524 769 478 q 751 620 761 569 q 725 722 742 671 q 686 814 711 772 q 554 907 632 906 q 418 811 474 906 q 338 494 354 703 m 539 1079 q 303 1001 358 1001 q 274 1003 286 1001 q 254 1021 263 1006 q 275 1065 261 1057 q 302 1078 289 1074 q 333 1090 315 1082 l 513 1157 l 517 1157 l 524 1158 q 582 1140 563 1154 l 764 1051 q 774 1036 767 1049 q 781 1015 781 1024 q 746 999 781 999 l 565 1071 q 553 1078 560 1076 q 544 1080 547 1079 q 542 1080 542 1081 q 540 1079 542 1079 l 539 1079 z "},"":{"ha":1083,"x_min":56,"x_max":1026,"o":"m 711 -3 q 510 -40 615 -40 q 325 -4 406 -40 q 184 91 244 32 q 90 226 124 150 q 56 373 56 303 q 67 508 56 443 q 100 639 78 575 q 367 939 181 867 q 525 967 439 967 q 924 814 794 967 q 1026 504 1026 692 q 878 106 1025 253 q 711 -3 808 36 m 338 494 q 333 398 333 442 q 344 306 333 354 q 372 206 356 256 q 468 18 407 107 q 507 6 472 6 q 564 11 529 6 q 689 103 667 26 q 719 202 704 161 q 744 279 733 243 q 769 419 769 360 q 765 524 769 478 q 751 620 761 569 q 725 722 742 671 q 686 814 711 772 q 554 907 632 906 q 418 811 474 906 q 338 494 354 703 m 190 983 q 160 1019 160 983 q 183 1074 160 1054 l 240 1113 q 406 1167 321 1165 q 521 1140 449 1165 l 628 1104 q 682 1092 663 1093 q 790 1114 747 1092 q 868 1189 833 1136 q 891 1183 885 1189 q 903 1163 897 1176 q 821 1063 890 1099 q 686 1032 763 1032 q 586 1057 657 1032 q 405 1104 454 1104 q 322 1085 356 1104 q 264 1044 288 1067 q 224 1002 240 1021 q 190 983 207 983 z "},"":{"ha":1083,"x_min":56,"x_max":1026,"o":"m 711 -3 q 510 -40 615 -40 q 325 -4 406 -40 q 184 91 244 32 q 90 226 124 150 q 56 373 56 303 q 67 508 56 443 q 100 639 78 575 q 367 939 181 867 q 525 967 439 967 q 924 814 794 967 q 1026 504 1026 692 q 878 106 1025 253 q 711 -3 808 36 m 338 494 q 333 398 333 442 q 344 306 333 354 q 372 206 356 256 q 468 18 407 107 q 507 6 472 6 q 564 11 529 6 q 689 103 667 26 q 719 202 704 161 q 744 279 733 243 q 769 419 769 360 q 765 524 769 478 q 751 620 761 569 q 725 722 742 671 q 686 814 711 772 q 554 907 632 906 q 418 811 474 906 q 338 494 354 703 m 349 1129 q 408 1149 378 1149 q 451 1130 438 1149 q 465 1083 465 1111 q 445 1035 465 1054 q 403 1017 425 1017 q 367 1021 381 1017 q 343 1033 354 1025 q 325 1053 332 1042 q 318 1078 318 1064 q 326 1107 318 1093 q 349 1129 335 1121 m 629 1129 q 687 1149 657 1149 q 731 1130 717 1149 q 746 1083 746 1111 q 725 1035 746 1054 q 676 1017 704 1017 q 624 1033 649 1017 q 599 1072 599 1050 q 607 1107 599 1093 q 629 1129 615 1121 z "},"":{"ha":619,"x_min":56,"x_max":550,"o":"m 317 340 l 311 340 q 304 342 310 340 q 294 338 297 342 l 283 324 l 250 283 q 196 217 226 253 l 106 108 q 87 94 94 97 q 56 90 79 90 l 56 131 l 272 401 l 74 672 q 77 682 71 675 q 90 689 83 689 q 109 682 96 689 q 125 672 122 675 l 300 446 l 510 672 l 532 672 q 510 603 532 631 q 353 411 458 535 l 351 401 q 371 356 351 376 q 402 324 390 335 q 420 308 414 314 q 436 289 426 301 l 457 263 l 492 218 q 465 200 485 200 l 461 200 q 457 201 460 200 l 317 340 m 492 183 q 504 197 492 190 q 524 204 517 204 q 532 175 524 188 q 550 126 549 153 q 511 144 531 126 q 492 183 492 161 z "},"":{"ha":1154,"x_min":-21,"x_max":1163,"o":"m 1163 879 l 1160 863 l 988 724 q 993 638 988 679 q 999 569 999 596 l 999 531 l 997 483 l 997 474 l 928 249 q 906 213 925 240 l 876 169 q 738 53 819 89 q 592 17 656 17 q 474 24 528 17 q 368 47 419 31 q 197 164 250 85 l 25 17 l 10 17 q -15 22 -10 17 q -21 46 -21 26 l -21 56 q -19 61 -21 58 l 153 225 q 154 231 154 225 l 154 238 q 140 317 154 275 q 117 431 115 394 q 136 568 117 524 l 247 818 q 369 922 281 872 q 546 974 464 975 q 571 961 571 974 l 568 932 l 685 940 l 699 940 l 732 939 l 739 939 q 824 912 793 925 q 858 896 856 899 l 954 783 l 1126 913 l 1132 913 l 1138 914 q 1160 906 1157 914 q 1163 879 1163 897 m 557 67 l 592 68 q 744 122 657 67 q 858 242 833 178 l 938 447 l 938 674 q 911 664 921 674 l 394 242 l 464 103 q 557 67 481 67 m 700 878 l 693 879 q 549 836 589 879 q 524 806 539 825 l 492 769 q 454 724 454 726 l 368 404 l 368 311 l 903 740 l 903 743 l 904 749 q 885 785 904 760 q 833 836 847 831 l 704 878 l 700 878 z "},"":{"ha":1029,"x_min":25,"x_max":919,"o":"m 872 950 q 891 939 882 950 q 902 900 900 928 q 908 839 904 872 l 914 775 q 919 612 919 704 q 914 421 919 519 q 883 247 906 322 q 703 0 838 97 q 622 -28 688 -11 q 543 -44 556 -44 q 497 -41 531 -44 q 429 -31 464 -37 q 319 14 346 -14 l 276 61 q 247 98 258 81 q 226 136 235 115 q 210 192 218 157 q 165 411 196 247 l 125 429 q 136 458 129 449 q 160 472 143 467 q 172 524 164 482 q 181 569 181 567 l 172 665 l 179 869 q 128 847 143 869 q 104 797 113 824 l 89 747 q 64 724 82 724 q 35 736 46 724 q 25 782 25 749 q 46 851 25 815 q 100 908 67 886 q 257 949 163 949 q 264 949 261 949 l 414 939 q 480 944 449 939 q 535 950 511 950 q 558 932 558 950 q 544 902 558 914 q 511 882 531 890 q 444 863 479 868 q 431 800 436 851 q 426 733 426 749 l 431 465 l 500 472 q 515 444 515 472 q 490 410 515 417 q 435 403 465 404 l 435 376 l 488 26 q 551 17 489 17 q 667 46 613 17 q 758 122 721 75 q 817 228 794 168 q 850 347 839 286 q 868 547 868 436 q 868 563 868 554 l 867 639 q 855 747 867 682 q 838 846 843 811 q 832 915 832 881 q 872 950 832 950 m 675 1043 l 676 1036 q 669 1015 676 1019 q 647 1011 663 1011 l 638 1011 q 632 1013 635 1011 l 371 1096 q 369 1097 369 1096 l 369 1100 q 381 1124 369 1115 q 397 1132 390 1132 l 399 1131 l 407 1131 l 414 1131 l 675 1047 l 675 1043 z "},"":{"ha":1029,"x_min":25,"x_max":919,"o":"m 872 950 q 891 939 882 950 q 902 900 900 928 q 908 839 904 872 l 914 775 q 919 612 919 704 q 914 421 919 519 q 883 247 906 322 q 703 0 838 97 q 622 -28 688 -11 q 543 -44 556 -44 q 497 -41 531 -44 q 429 -31 464 -37 q 319 14 346 -14 l 276 61 q 247 98 258 81 q 226 136 235 115 q 210 192 218 157 q 165 411 196 247 l 125 429 q 136 458 129 449 q 160 472 143 467 q 172 524 164 482 q 181 569 181 567 l 172 665 l 179 869 q 128 847 143 869 q 104 797 113 824 l 89 747 q 64 724 82 724 q 35 736 46 724 q 25 782 25 749 q 46 851 25 815 q 100 908 67 886 q 257 949 163 949 q 264 949 261 949 l 414 939 q 480 944 449 939 q 535 950 511 950 q 558 932 558 950 q 544 902 558 914 q 511 882 531 890 q 444 863 479 868 q 431 800 436 851 q 426 733 426 749 l 431 465 l 500 472 q 515 444 515 472 q 490 410 515 417 q 435 403 465 404 l 435 376 l 488 26 q 551 17 489 17 q 667 46 613 17 q 758 122 721 75 q 817 228 794 168 q 850 347 839 286 q 868 547 868 436 q 868 563 868 554 l 867 639 q 855 747 867 682 q 838 846 843 811 q 832 915 832 881 q 872 950 832 950 m 685 1118 l 690 1119 q 715 1111 704 1119 q 726 1094 726 1103 q 726 1086 726 1086 q 725 1085 725 1086 l 725 1083 l 464 1000 q 458 999 461 999 l 449 999 q 426 1003 433 999 q 419 1024 419 1007 l 419 1031 q 421 1035 419 1033 l 682 1118 l 685 1118 z "},"":{"ha":1029,"x_min":25,"x_max":919,"o":"m 872 950 q 891 939 882 950 q 902 900 900 928 q 908 839 904 872 l 914 775 q 919 612 919 704 q 914 421 919 519 q 883 247 906 322 q 703 0 838 97 q 622 -28 688 -11 q 543 -44 556 -44 q 497 -41 531 -44 q 429 -31 464 -37 q 319 14 346 -14 l 276 61 q 247 98 258 81 q 226 136 235 115 q 210 192 218 157 q 165 411 196 247 l 125 429 q 136 458 129 449 q 160 472 143 467 q 172 524 164 482 q 181 569 181 567 l 172 665 l 179 869 q 128 847 143 869 q 104 797 113 824 l 89 747 q 64 724 82 724 q 35 736 46 724 q 25 782 25 749 q 46 851 25 815 q 100 908 67 886 q 257 949 163 949 q 264 949 261 949 l 414 939 q 480 944 449 939 q 535 950 511 950 q 558 932 558 950 q 544 902 558 914 q 511 882 531 890 q 444 863 479 868 q 431 800 436 851 q 426 733 426 749 l 431 465 l 500 472 q 515 444 515 472 q 490 410 515 417 q 435 403 465 404 l 435 376 l 488 26 q 551 17 489 17 q 667 46 613 17 q 758 122 721 75 q 817 228 794 168 q 850 347 839 286 q 868 547 868 436 q 868 563 868 554 l 867 639 q 855 747 867 682 q 838 846 843 811 q 832 915 832 881 q 872 950 832 950 m 544 1092 q 308 1014 364 1014 q 280 1016 292 1014 q 260 1033 268 1018 q 281 1078 267 1069 q 308 1090 294 1086 q 339 1103 321 1094 l 518 1169 l 522 1169 l 529 1171 q 588 1153 568 1167 l 769 1064 q 779 1049 772 1061 q 786 1028 786 1036 q 751 1011 786 1011 l 571 1083 q 559 1090 565 1089 q 550 1092 553 1092 q 547 1092 547 1093 q 546 1092 547 1092 l 544 1092 z "},"":{"ha":1029,"x_min":25,"x_max":919,"o":"m 872 950 q 891 939 882 950 q 902 900 900 928 q 908 839 904 872 l 914 775 q 919 612 919 704 q 914 421 919 519 q 883 247 906 322 q 703 0 838 97 q 622 -28 688 -11 q 543 -44 556 -44 q 497 -41 531 -44 q 429 -31 464 -37 q 319 14 346 -14 l 276 61 q 247 98 258 81 q 226 136 235 115 q 210 192 218 157 q 165 411 196 247 l 125 429 q 136 458 129 449 q 160 472 143 467 q 172 524 164 482 q 181 569 181 567 l 172 665 l 179 869 q 128 847 143 869 q 104 797 113 824 l 89 747 q 64 724 82 724 q 35 736 46 724 q 25 782 25 749 q 46 851 25 815 q 100 908 67 886 q 257 949 163 949 q 264 949 261 949 l 414 939 q 480 944 449 939 q 535 950 511 950 q 558 932 558 950 q 544 902 558 914 q 511 882 531 890 q 444 863 479 868 q 431 800 436 851 q 426 733 426 749 l 431 465 l 500 472 q 515 444 515 472 q 490 410 515 417 q 435 403 465 404 l 435 376 l 488 26 q 551 17 489 17 q 667 46 613 17 q 758 122 721 75 q 817 228 794 168 q 850 347 839 286 q 868 547 868 436 q 868 563 868 554 l 867 639 q 855 747 867 682 q 838 846 843 811 q 832 915 832 881 q 872 950 832 950 m 328 1140 q 387 1160 357 1160 q 431 1141 417 1160 q 444 1094 444 1122 q 424 1047 444 1065 q 382 1028 404 1028 q 347 1032 360 1028 q 322 1044 333 1036 q 304 1064 311 1053 q 297 1090 297 1075 q 306 1118 297 1104 q 328 1140 314 1132 m 608 1140 q 666 1160 636 1160 q 710 1141 696 1160 q 725 1094 725 1122 q 704 1047 725 1065 q 656 1028 683 1028 q 603 1044 628 1028 q 578 1083 578 1061 q 586 1118 578 1104 q 608 1140 594 1132 z "},"":{"ha":985,"x_min":3,"x_max":1026,"o":"m 199 43 l 190 90 l 190 96 q 214 156 199 126 l 246 211 q 283 323 283 281 q 273 374 283 365 q 249 384 263 383 q 226 385 236 385 q 215 395 215 385 q 222 411 215 406 q 239 421 228 417 q 279 432 258 429 q 199 614 243 494 l 139 817 l 139 838 q 28 864 56 839 q 15 897 14 875 l 17 919 l 219 939 q 303 886 303 939 l 301 881 l 301 876 l 219 838 q 218 833 218 835 l 218 829 q 247 703 222 796 q 289 561 272 611 q 342 451 325 451 l 361 451 l 561 846 q 558 885 558 854 q 566 933 558 917 q 600 949 574 949 l 714 946 l 1026 954 q 972 897 1026 914 q 907 888 942 889 q 844 806 896 843 l 865 786 q 842 764 858 781 l 817 738 l 804 725 l 804 706 l 665 472 l 664 460 q 670 447 664 450 q 685 441 676 443 q 699 435 693 439 q 706 417 706 432 q 693 394 706 403 q 664 381 681 386 l 631 371 q 604 351 613 365 q 494 96 529 239 q 493 85 493 93 q 497 64 493 76 l 676 64 l 697 33 q 3 -33 661 -33 q 13 26 3 10 q 29 43 22 43 l 199 43 m 619 1118 l 625 1119 q 650 1111 639 1119 q 661 1094 661 1103 q 660 1086 661 1086 q 660 1085 660 1086 l 660 1083 l 399 1000 q 393 999 396 999 l 383 999 q 361 1003 368 999 q 354 1024 354 1007 l 354 1031 q 356 1035 354 1033 l 617 1118 l 619 1118 z "},"":{"ha":976,"x_min":31,"x_max":958,"o":"m 544 47 q 553 25 553 47 l 553 10 q 544 -8 553 -6 l 457 -26 l 131 -26 q 110 -15 117 -26 q 104 8 104 -3 q 121 39 104 39 l 225 39 l 225 206 l 106 206 q 83 217 96 206 q 61 246 61 236 q 88 267 61 257 q 108 265 94 265 l 139 265 q 205 273 190 265 q 219 300 219 281 l 217 344 q 211 528 217 463 q 200 594 206 593 q 158 597 181 597 l 147 597 q 138 596 143 597 q 92 600 114 596 q 31 665 31 610 q 114 660 72 665 q 199 654 156 654 l 200 697 l 190 851 l 174 851 l 113 843 q 90 855 101 843 q 78 881 78 867 q 90 902 78 896 q 119 910 103 908 q 153 912 136 911 q 181 919 171 913 q 192 932 190 926 q 194 940 193 938 q 211 947 197 947 q 231 944 225 947 q 240 939 236 942 q 261 931 253 931 l 510 940 q 535 923 535 940 q 532 897 535 906 q 523 884 529 889 q 507 876 517 879 l 483 869 q 475 764 475 800 q 475 717 475 728 q 483 689 475 706 q 560 693 513 693 q 793 638 631 693 q 944 506 906 600 q 958 433 958 475 q 942 342 958 390 q 881 267 925 294 q 803 230 844 246 q 758 214 763 214 l 500 199 l 483 190 q 478 165 479 186 l 475 135 q 475 119 475 125 l 475 99 q 475 72 475 85 q 478 47 475 60 l 544 47 m 485 631 q 479 458 485 543 q 474 288 474 374 q 651 313 592 288 q 739 374 710 339 q 768 468 768 410 q 758 515 768 507 l 664 603 q 543 632 632 632 q 526 631 535 631 l 485 631 z "},"":{"ha":853,"x_min":13,"x_max":808,"o":"m 488 -137 l 204 -137 q 171 -147 185 -137 q 124 -165 133 -165 q 89 -159 104 -165 q 49 -137 74 -153 q 47 -128 47 -133 l 47 -121 q 69 -79 47 -87 q 117 -70 90 -71 q 165 -68 143 -69 q 186 -53 186 -67 q 176 106 186 22 q 163 238 167 189 q 157 308 160 286 q 149 350 154 331 q 106 394 135 394 q 24 367 56 394 q 13 413 13 396 q 32 461 13 461 l 143 461 l 151 469 l 151 521 q 333 901 151 794 l 357 914 q 406 934 378 925 q 436 943 433 943 l 592 943 q 678 894 619 943 q 738 824 738 846 l 738 738 q 711 677 738 728 q 678 617 685 626 q 663 597 672 608 q 640 572 651 583 q 615 538 615 543 q 634 517 615 528 q 685 478 653 506 q 743 414 715 450 q 808 260 807 329 q 799 151 808 190 q 729 51 779 69 l 506 -26 q 503 -28 504 -28 l 500 -28 q 477 -9 485 -28 q 469 22 469 10 q 490 40 469 33 q 541 55 510 47 q 607 74 572 63 q 674 103 643 83 q 746 231 746 146 q 699 378 746 307 q 582 479 651 449 q 553 507 558 497 q 547 533 547 517 q 557 583 547 564 l 597 625 q 633 669 617 646 q 671 772 671 722 q 640 858 671 822 q 557 893 608 893 q 471 869 507 893 q 453 850 457 861 l 410 746 l 410 738 q 383 472 383 546 q 385 339 383 397 q 390 217 388 281 q 410 -26 396 72 q 424 -63 410 -54 q 454 -77 438 -72 q 485 -88 471 -82 q 499 -116 499 -94 q 488 -137 499 -137 z "},"":{"ha":749,"x_min":26,"x_max":751,"o":"m 465 433 q 368 543 465 543 q 310 511 326 543 q 301 472 301 493 q 306 444 300 450 q 313 425 313 439 q 283 392 313 400 q 231 386 265 386 q 168 374 206 386 q 125 361 131 361 q 106 376 113 361 q 100 406 100 392 q 133 484 100 431 q 189 556 165 538 q 268 608 232 588 q 343 628 304 628 q 601 521 543 628 q 635 374 635 460 q 625 297 635 336 q 615 222 615 258 q 639 114 615 164 q 692 64 669 71 q 708 69 700 64 q 722 75 715 75 q 751 47 751 75 q 726 -3 751 18 q 631 -44 676 -44 q 565 -39 585 -44 q 531 -24 546 -33 q 504 -3 515 -14 l 482 18 l 461 39 q 451 49 453 49 q 213 -65 357 -65 q 78 -8 131 -65 q 26 99 26 49 q 121 251 26 193 q 415 338 218 310 q 446 347 435 339 q 465 433 465 361 m 272 213 q 257 165 257 188 q 267 68 257 113 q 300 21 276 24 q 360 40 335 21 q 407 110 404 75 l 424 283 q 272 213 315 283 m 529 821 l 531 814 q 524 793 531 797 q 501 789 517 789 l 492 789 q 486 790 489 789 l 225 874 q 224 875 224 874 l 224 878 q 235 901 224 893 q 251 910 244 910 l 253 908 l 261 908 l 268 908 l 529 825 l 529 821 z "},"":{"ha":749,"x_min":26,"x_max":751,"o":"m 465 433 q 368 543 465 543 q 310 511 326 543 q 301 472 301 493 q 306 444 300 450 q 313 425 313 439 q 283 392 313 400 q 231 386 265 386 q 168 374 206 386 q 125 361 131 361 q 106 376 113 361 q 100 406 100 392 q 133 484 100 431 q 189 556 165 538 q 268 608 232 588 q 343 628 304 628 q 601 521 543 628 q 635 374 635 460 q 625 297 635 336 q 615 222 615 258 q 639 114 615 164 q 692 64 669 71 q 708 69 700 64 q 722 75 715 75 q 751 47 751 75 q 726 -3 751 18 q 631 -44 676 -44 q 565 -39 585 -44 q 531 -24 546 -33 q 504 -3 515 -14 l 482 18 l 461 39 q 451 49 453 49 q 213 -65 357 -65 q 78 -8 131 -65 q 26 99 26 49 q 121 251 26 193 q 415 338 218 310 q 446 347 435 339 q 465 433 465 361 m 272 213 q 257 165 257 188 q 267 68 257 113 q 300 21 276 24 q 360 40 335 21 q 407 110 404 75 l 424 283 q 272 213 315 283 m 489 908 l 494 910 q 519 901 508 910 q 531 885 531 893 q 530 876 531 876 q 529 875 529 876 l 529 874 l 268 790 q 263 789 265 789 l 253 789 q 231 793 238 789 q 224 814 224 797 l 224 821 q 225 825 224 824 l 486 908 l 489 908 z "},"":{"ha":749,"x_min":26,"x_max":751,"o":"m 465 433 q 368 543 465 543 q 310 511 326 543 q 301 472 301 493 q 306 444 300 450 q 313 425 313 439 q 283 392 313 400 q 231 386 265 386 q 168 374 206 386 q 125 361 131 361 q 106 376 113 361 q 100 406 100 392 q 133 484 100 431 q 189 556 165 538 q 268 608 232 588 q 343 628 304 628 q 601 521 543 628 q 635 374 635 460 q 625 297 635 336 q 615 222 615 258 q 639 114 615 164 q 692 64 669 71 q 708 69 700 64 q 722 75 715 75 q 751 47 751 75 q 726 -3 751 18 q 631 -44 676 -44 q 565 -39 585 -44 q 531 -24 546 -33 q 504 -3 515 -14 l 482 18 l 461 39 q 451 49 453 49 q 213 -65 357 -65 q 78 -8 131 -65 q 26 99 26 49 q 121 251 26 193 q 415 338 218 310 q 446 347 435 339 q 465 433 465 361 m 272 213 q 257 165 257 188 q 267 68 257 113 q 300 21 276 24 q 360 40 335 21 q 407 110 404 75 l 424 283 q 272 213 315 283 m 397 869 q 161 792 217 792 q 133 794 144 792 q 113 811 121 796 q 133 856 119 847 q 160 868 147 864 q 192 881 174 872 l 371 947 l 375 947 l 382 949 q 440 931 421 944 l 622 842 q 632 826 625 839 q 639 806 639 814 q 604 789 639 789 l 424 861 q 412 868 418 867 q 403 870 406 869 q 400 870 400 871 q 399 869 400 869 l 397 869 z "},"":{"ha":749,"x_min":7,"x_max":751,"o":"m 465 433 q 368 543 465 543 q 310 511 326 543 q 301 472 301 493 q 306 444 300 450 q 313 425 313 439 q 283 392 313 400 q 231 386 265 386 q 168 374 206 386 q 125 361 131 361 q 106 376 113 361 q 100 406 100 392 q 133 484 100 431 q 189 556 165 538 q 268 608 232 588 q 343 628 304 628 q 601 521 543 628 q 635 374 635 460 q 625 297 635 336 q 615 222 615 258 q 639 114 615 164 q 692 64 669 71 q 708 69 700 64 q 722 75 715 75 q 751 47 751 75 q 726 -3 751 18 q 631 -44 676 -44 q 565 -39 585 -44 q 531 -24 546 -33 q 504 -3 515 -14 l 482 18 l 461 39 q 451 49 453 49 q 213 -65 357 -65 q 78 -8 131 -65 q 26 99 26 49 q 121 251 26 193 q 415 338 218 310 q 446 347 435 339 q 465 433 465 361 m 272 213 q 257 165 257 188 q 267 68 257 113 q 300 21 276 24 q 360 40 335 21 q 407 110 404 75 l 424 283 q 272 213 315 283 m 38 760 q 7 795 7 760 q 31 850 7 831 l 88 889 q 253 943 168 942 q 368 917 296 942 l 475 881 q 529 868 510 869 q 638 890 594 868 q 715 965 681 913 q 738 959 732 965 q 750 939 744 953 q 668 839 738 875 q 533 808 610 808 q 433 833 504 808 q 252 881 301 881 q 169 862 203 881 q 111 820 135 843 q 71 778 88 797 q 38 760 54 760 z "},"":{"ha":749,"x_min":26,"x_max":751,"o":"m 465 433 q 368 543 465 543 q 310 511 326 543 q 301 472 301 493 q 306 444 300 450 q 313 425 313 439 q 283 392 313 400 q 231 386 265 386 q 168 374 206 386 q 125 361 131 361 q 106 376 113 361 q 100 406 100 392 q 133 484 100 431 q 189 556 165 538 q 268 608 232 588 q 343 628 304 628 q 601 521 543 628 q 635 374 635 460 q 625 297 635 336 q 615 222 615 258 q 639 114 615 164 q 692 64 669 71 q 708 69 700 64 q 722 75 715 75 q 751 47 751 75 q 726 -3 751 18 q 631 -44 676 -44 q 565 -39 585 -44 q 531 -24 546 -33 q 504 -3 515 -14 l 482 18 l 461 39 q 451 49 453 49 q 213 -65 357 -65 q 78 -8 131 -65 q 26 99 26 49 q 121 251 26 193 q 415 338 218 310 q 446 347 435 339 q 465 433 465 361 m 272 213 q 257 165 257 188 q 267 68 257 113 q 300 21 276 24 q 360 40 335 21 q 407 110 404 75 l 424 283 q 272 213 315 283 m 196 956 q 255 975 225 975 q 299 956 285 975 q 313 909 313 938 q 292 862 313 881 q 250 843 272 843 q 215 847 228 843 q 190 860 201 851 q 172 879 179 868 q 165 905 165 890 q 174 933 165 919 q 196 956 182 947 m 476 956 q 534 975 504 975 q 578 956 564 975 q 593 909 593 938 q 572 862 593 881 q 524 843 551 843 q 471 860 496 843 q 446 898 446 876 q 454 933 446 919 q 476 956 463 947 z "},"":{"ha":749,"x_min":26,"x_max":751,"o":"m 465 433 q 368 543 465 543 q 310 511 326 543 q 301 472 301 493 q 306 444 300 450 q 313 425 313 439 q 283 392 313 400 q 231 386 265 386 q 168 374 206 386 q 125 361 131 361 q 106 376 113 361 q 100 406 100 392 q 133 484 100 431 q 189 556 165 538 q 268 608 232 588 q 343 628 304 628 q 601 521 543 628 q 635 374 635 460 q 625 297 635 336 q 615 222 615 258 q 639 114 615 164 q 692 64 669 71 q 708 69 700 64 q 722 75 715 75 q 751 47 751 75 q 726 -3 751 18 q 631 -44 676 -44 q 565 -39 585 -44 q 531 -24 546 -33 q 504 -3 515 -14 l 482 18 l 461 39 q 451 49 453 49 q 213 -65 357 -65 q 78 -8 131 -65 q 26 99 26 49 q 121 251 26 193 q 415 338 218 310 q 446 347 435 339 q 465 433 465 361 m 272 213 q 257 165 257 188 q 267 68 257 113 q 300 21 276 24 q 360 40 335 21 q 407 110 404 75 l 424 283 q 272 213 315 283 m 318 986 l 365 989 q 450 968 419 989 q 507 876 508 929 q 464 783 506 828 q 375 736 421 736 q 335 746 343 736 l 257 840 q 247 883 247 853 q 267 943 247 913 q 318 986 288 974 m 331 829 q 368 799 347 799 q 403 806 389 799 q 425 825 414 814 q 447 881 447 850 q 426 920 447 913 q 369 928 406 928 q 324 915 332 928 q 315 886 315 903 q 319 856 315 869 q 331 829 324 842 z "},"":{"ha":1008,"x_min":42,"x_max":963,"o":"m 701 -90 l 688 -89 q 658 -83 678 -89 l 615 -72 q 558 -57 561 -60 q 454 64 504 -31 q 428 36 439 53 l 404 6 q 349 -40 376 -29 q 304 -56 321 -51 q 276 -64 290 -61 q 229 -67 254 -67 q 160 -53 189 -67 q 110 -24 132 -40 q 74 11 85 -8 q 56 103 54 40 q 63 147 57 135 q 101 203 71 165 q 131 222 108 218 q 181 236 153 225 l 240 260 q 301 272 272 272 q 438 281 350 272 q 467 304 461 283 q 472 354 472 325 l 472 481 q 410 544 436 528 q 308 579 368 571 q 299 572 306 579 q 267 459 274 519 q 257 342 260 399 l 249 333 l 226 331 q 176 325 204 328 q 78 317 114 317 q 42 349 42 318 q 58 428 42 364 q 83 512 75 493 q 107 558 90 531 q 143 603 121 583 q 275 642 188 642 q 292 640 286 642 q 319 631 297 638 l 372 614 q 432 589 403 603 q 524 503 492 560 q 593 580 540 547 q 696 613 646 613 q 746 598 707 613 q 807 576 785 583 q 849 559 829 568 q 882 539 868 550 q 943 450 913 517 q 956 414 950 436 q 963 384 963 392 q 955 353 963 376 q 938 306 947 331 q 901 242 914 247 l 842 242 q 782 250 807 242 q 750 252 768 251 q 713 254 732 253 q 644 272 668 257 l 643 246 q 648 210 643 224 q 653 179 653 197 l 651 142 l 653 126 q 669 52 653 90 q 704 -8 686 14 q 748 -29 722 -29 q 787 -14 774 -29 q 807 25 800 1 q 817 75 814 49 q 822 125 819 101 q 846 179 829 179 q 879 167 858 178 l 901 156 q 944 119 928 139 q 963 97 961 100 q 953 47 953 49 l 954 32 q 897 -31 954 4 q 701 -90 801 -90 m 422 219 q 315 164 364 219 q 271 61 271 114 q 274 26 271 32 q 290 13 275 24 q 310 3 304 3 q 343 19 315 3 q 386 68 358 19 q 426 145 414 117 q 438 197 438 174 q 422 219 438 219 m 756 318 q 774 381 761 360 q 740 503 774 447 q 719 519 729 519 q 704 511 710 519 q 660 422 676 464 q 643 328 643 381 q 653 307 643 311 q 682 303 664 303 q 722 303 700 303 q 764 304 743 304 q 758 311 761 306 q 756 318 756 317 z "},"":{"ha":760,"x_min":46,"x_max":724,"o":"m 656 607 q 690 595 674 607 q 706 582 706 583 l 706 424 q 689 400 706 410 q 658 390 672 390 q 623 410 643 390 q 575 456 603 431 q 422 519 501 519 q 370 489 393 519 q 333 424 347 458 q 314 356 319 389 q 306 253 306 308 q 304 246 304 249 q 314 156 304 194 q 342 83 325 117 q 435 8 394 19 q 619 93 532 8 q 632 114 628 103 q 642 136 636 125 q 681 160 654 160 q 715 147 707 161 q 724 119 724 133 q 683 65 711 94 q 624 15 654 36 q 561 -18 594 -6 q 416 -40 501 -40 q 264 -25 331 -40 q 150 28 199 -8 q 46 283 46 107 q 133 489 47 406 q 393 585 232 583 q 470 577 435 585 q 557 569 506 569 q 656 607 608 569 m 344 8 q 372 22 356 22 q 389 0 389 22 q 379 -41 389 -22 q 369 -74 369 -60 q 371 -90 369 -87 l 458 -176 q 467 -215 467 -187 q 458 -267 467 -243 q 436 -311 450 -292 q 358 -358 401 -358 q 269 -319 294 -358 q 260 -289 261 -306 q 268 -272 260 -272 q 297 -284 281 -272 q 321 -301 313 -296 q 343 -307 329 -307 q 371 -297 357 -307 q 394 -272 386 -286 q 414 -216 414 -240 q 401 -181 414 -192 q 372 -164 389 -171 l 340 -150 q 319 -133 325 -144 l 319 -99 q 344 8 319 -28 z "},"":{"ha":767,"x_min":39,"x_max":754,"o":"m 343 179 l 342 161 q 372 54 342 100 q 392 34 383 39 q 414 29 400 29 l 433 29 q 614 75 531 29 q 644 100 629 83 l 678 136 q 707 166 693 153 q 732 179 721 179 q 749 167 743 179 q 754 147 754 154 q 719 96 753 133 q 640 32 683 57 q 547 -8 597 8 q 356 -39 451 -39 q 353 -40 354 -40 q 193 7 258 -40 q 74 126 126 54 q 43 203 47 163 q 39 297 39 244 q 82 410 39 349 q 188 520 125 471 q 322 600 250 569 q 440 631 393 631 q 532 622 488 631 q 614 597 575 617 q 706 464 706 553 q 581 264 706 347 q 343 179 475 192 m 325 282 q 339 258 325 268 q 378 249 353 249 q 379 249 379 249 q 481 331 426 249 q 532 467 532 407 q 517 524 532 503 q 458 561 489 561 q 403 531 426 561 q 361 458 378 500 q 325 282 325 367 m 551 883 l 553 876 q 546 856 553 860 q 524 851 539 851 l 514 851 q 508 853 511 851 l 247 936 q 246 938 246 936 l 246 940 q 257 964 246 956 q 274 972 267 972 l 275 971 l 283 971 l 290 971 l 551 888 l 551 883 z "},"":{"ha":767,"x_min":39,"x_max":754,"o":"m 343 179 l 342 161 q 372 54 342 100 q 392 34 383 39 q 414 29 400 29 l 433 29 q 614 75 531 29 q 644 100 629 83 l 678 136 q 707 166 693 153 q 732 179 721 179 q 749 167 743 179 q 754 147 754 154 q 719 96 753 133 q 640 32 683 57 q 547 -8 597 8 q 356 -39 451 -39 q 353 -40 354 -40 q 193 7 258 -40 q 74 126 126 54 q 43 203 47 163 q 39 297 39 244 q 82 410 39 349 q 188 520 125 471 q 322 600 250 569 q 440 631 393 631 q 532 622 488 631 q 614 597 575 617 q 706 464 706 553 q 581 264 706 347 q 343 179 475 192 m 325 282 q 339 258 325 268 q 378 249 353 249 q 379 249 379 249 q 481 331 426 249 q 532 467 532 407 q 517 524 532 503 q 458 561 489 561 q 403 531 426 561 q 361 458 378 500 q 325 282 325 367 m 511 958 l 517 960 q 542 951 531 960 q 553 935 553 943 q 552 926 553 926 q 551 925 551 926 l 551 924 l 290 840 q 285 839 288 839 l 275 839 q 253 843 260 839 q 246 864 246 847 l 246 871 q 247 875 246 874 l 508 958 l 511 958 z "},"":{"ha":767,"x_min":39,"x_max":754,"o":"m 343 179 l 342 161 q 372 54 342 100 q 392 34 383 39 q 414 29 400 29 l 433 29 q 614 75 531 29 q 644 100 629 83 l 678 136 q 707 166 693 153 q 732 179 721 179 q 749 167 743 179 q 754 147 754 154 q 719 96 753 133 q 640 32 683 57 q 547 -8 597 8 q 356 -39 451 -39 q 353 -40 354 -40 q 193 7 258 -40 q 74 126 126 54 q 43 203 47 163 q 39 297 39 244 q 82 410 39 349 q 188 520 125 471 q 322 600 250 569 q 440 631 393 631 q 532 622 488 631 q 614 597 575 617 q 706 464 706 553 q 581 264 706 347 q 343 179 475 192 m 325 282 q 339 258 325 268 q 378 249 353 249 q 379 249 379 249 q 481 331 426 249 q 532 467 532 407 q 517 524 532 503 q 458 561 489 561 q 403 531 426 561 q 361 458 378 500 q 325 282 325 367 m 421 882 q 185 804 240 804 q 156 806 168 804 q 136 824 144 808 q 157 868 143 860 q 184 881 171 876 q 215 893 197 885 l 394 960 l 399 960 l 406 961 q 464 943 444 957 l 646 854 q 656 839 649 851 q 663 818 663 826 q 628 801 663 801 l 447 874 q 435 881 442 879 q 426 883 429 882 q 424 883 424 883 q 422 882 424 882 l 421 882 z "},"":{"ha":767,"x_min":39,"x_max":754,"o":"m 343 179 l 342 161 q 372 54 342 100 q 392 34 383 39 q 414 29 400 29 l 433 29 q 614 75 531 29 q 644 100 629 83 l 678 136 q 707 166 693 153 q 732 179 721 179 q 749 167 743 179 q 754 147 754 154 q 719 96 753 133 q 640 32 683 57 q 547 -8 597 8 q 356 -39 451 -39 q 353 -40 354 -40 q 193 7 258 -40 q 74 126 126 54 q 43 203 47 163 q 39 297 39 244 q 82 410 39 349 q 188 520 125 471 q 322 600 250 569 q 440 631 393 631 q 532 622 488 631 q 614 597 575 617 q 706 464 706 553 q 581 264 706 347 q 343 179 475 192 m 325 282 q 339 258 325 268 q 378 249 353 249 q 379 249 379 249 q 481 331 426 249 q 532 467 532 407 q 517 524 532 503 q 458 561 489 561 q 403 531 426 561 q 361 458 378 500 q 325 282 325 367 m 218 931 q 277 950 247 950 q 321 931 307 950 q 335 884 335 913 q 315 837 335 856 q 272 818 294 818 q 237 822 250 818 q 213 835 224 826 q 194 854 201 843 q 188 880 188 865 q 196 908 188 894 q 218 931 204 922 m 499 931 q 556 950 526 950 q 601 931 586 950 q 615 884 615 913 q 594 837 615 856 q 546 818 574 818 q 493 835 518 818 q 468 873 468 851 q 476 908 468 894 q 499 931 485 922 z "},"":{"ha":554,"x_min":17,"x_max":549,"o":"m 294 -11 q 104 -31 221 -11 q 69 6 69 -31 q 84 39 69 32 q 118 47 99 46 q 156 49 138 47 q 182 64 175 50 l 182 78 l 183 121 l 183 135 q 156 422 183 301 q 115 451 139 447 q 70 456 92 456 q 33 462 49 457 q 17 486 17 467 q 37 517 17 506 q 84 536 57 528 q 138 550 111 544 q 196 569 163 558 l 283 601 q 378 622 339 622 q 422 615 417 622 q 426 579 426 607 q 418 535 426 551 l 417 294 q 421 192 417 215 q 451 83 426 163 q 473 53 457 64 q 506 36 489 43 q 535 22 522 29 q 549 -1 549 15 q 494 -31 549 -31 l 478 -29 q 294 -11 419 -11 m 439 858 l 440 851 q 433 831 440 835 q 411 826 426 826 l 401 826 q 396 828 399 826 l 135 911 q 133 913 133 911 l 133 915 q 144 939 133 931 q 161 947 154 947 l 163 946 l 171 946 l 178 946 l 439 863 l 439 858 z "},"":{"ha":554,"x_min":17,"x_max":549,"o":"m 294 -11 q 104 -31 221 -11 q 69 6 69 -31 q 84 39 69 32 q 118 47 99 46 q 156 49 138 47 q 182 64 175 50 l 182 78 l 183 121 l 183 135 q 156 422 183 301 q 115 451 139 447 q 70 456 92 456 q 33 462 49 457 q 17 486 17 467 q 37 517 17 506 q 84 536 57 528 q 138 550 111 544 q 196 569 163 558 l 283 601 q 378 622 339 622 q 422 615 417 622 q 426 579 426 607 q 418 535 426 551 l 417 294 q 421 192 417 215 q 451 83 426 163 q 473 53 457 64 q 506 36 489 43 q 535 22 522 29 q 549 -1 549 15 q 494 -31 549 -31 l 478 -29 q 294 -11 419 -11 m 399 933 l 404 935 q 429 926 418 935 q 440 910 440 918 q 440 901 440 901 q 439 900 439 901 l 439 899 l 178 815 q 172 814 175 814 l 163 814 q 140 818 147 814 q 133 839 133 822 l 133 846 q 135 850 133 849 l 396 933 l 399 933 z "},"":{"ha":554,"x_min":17,"x_max":549,"o":"m 294 -11 q 104 -31 221 -11 q 69 6 69 -31 q 84 39 69 32 q 118 47 99 46 q 156 49 138 47 q 182 64 175 50 l 182 78 l 183 121 l 183 135 q 156 422 183 301 q 115 451 139 447 q 70 456 92 456 q 33 462 49 457 q 17 486 17 467 q 37 517 17 506 q 84 536 57 528 q 138 550 111 544 q 196 569 163 558 l 283 601 q 378 622 339 622 q 422 615 417 622 q 426 579 426 607 q 418 535 426 551 l 417 294 q 421 192 417 215 q 451 83 426 163 q 473 53 457 64 q 506 36 489 43 q 535 22 522 29 q 549 -1 549 15 q 494 -31 549 -31 l 478 -29 q 294 -11 419 -11 m 307 857 q 71 779 126 779 q 42 781 54 779 q 22 799 31 783 q 43 843 29 835 q 70 856 57 851 q 101 868 83 860 l 281 935 l 285 935 l 292 936 q 350 918 331 932 l 532 829 q 542 814 535 826 q 549 793 549 801 q 514 776 549 776 l 333 849 q 322 856 328 854 q 313 858 315 857 q 310 858 310 858 q 308 857 310 857 l 307 857 z "},"":{"ha":554,"x_min":17,"x_max":549,"o":"m 294 -11 q 104 -31 221 -11 q 69 6 69 -31 q 84 39 69 32 q 118 47 99 46 q 156 49 138 47 q 182 64 175 50 l 182 78 l 183 121 l 183 135 q 156 422 183 301 q 115 451 139 447 q 70 456 92 456 q 33 462 49 457 q 17 486 17 467 q 37 517 17 506 q 84 536 57 528 q 138 550 111 544 q 196 569 163 558 l 283 601 q 378 622 339 622 q 422 615 417 622 q 426 579 426 607 q 418 535 426 551 l 417 294 q 421 192 417 215 q 451 83 426 163 q 473 53 457 64 q 506 36 489 43 q 535 22 522 29 q 549 -1 549 15 q 494 -31 549 -31 l 478 -29 q 294 -11 419 -11 m 107 918 q 166 938 136 938 q 210 919 196 938 q 224 872 224 900 q 203 824 224 843 q 161 806 183 806 q 126 810 139 806 q 101 822 113 814 q 83 842 90 831 q 76 867 76 853 q 85 896 76 882 q 107 918 93 910 m 388 918 q 445 938 415 938 q 490 919 475 938 q 504 872 504 900 q 483 824 504 843 q 435 806 463 806 q 382 822 407 806 q 357 860 357 839 q 365 896 357 882 q 388 918 374 910 z "},"":{"ha":806,"x_min":43,"x_max":735,"o":"m 299 656 q 268 686 268 656 q 318 736 268 714 l 361 753 l 396 767 q 369 814 385 789 l 336 867 q 317 918 317 897 q 347 949 317 949 q 544 839 453 949 q 624 879 610 879 q 656 847 654 879 q 640 824 656 829 l 582 789 q 725 394 686 624 q 735 296 735 338 q 731 203 735 254 q 705 110 728 153 q 651 36 682 67 q 585 -14 621 3 q 417 -43 521 -43 q 236 -8 314 -43 q 88 111 158 26 q 51 206 58 156 q 43 286 43 256 q 79 406 43 336 q 122 465 103 450 q 182 511 140 481 q 385 585 340 585 l 390 585 q 479 575 435 585 q 426 708 442 676 l 356 675 q 299 656 313 656 m 324 275 q 324 245 324 264 q 328 190 325 226 q 340 119 332 153 q 406 38 363 39 q 476 64 457 38 q 501 125 496 90 q 509 180 506 160 q 515 219 513 200 q 522 299 522 268 q 518 365 522 331 q 504 433 514 400 q 449 517 479 517 q 329 375 350 517 q 324 311 324 336 l 324 275 z "},"":{"ha":876,"x_min":28,"x_max":854,"o":"m 71 -28 q 32 21 32 -22 q 43 44 35 40 q 65 49 51 49 l 76 47 q 126 81 115 47 q 135 153 135 101 q 133 161 135 157 q 133 169 133 165 q 143 294 133 225 q 153 427 153 367 q 149 533 153 488 l 85 531 l 71 531 q 43 539 58 533 q 28 556 28 544 q 37 576 28 567 q 49 592 46 586 q 64 590 57 590 l 94 590 q 135 592 118 590 q 160 594 151 593 q 178 596 169 594 q 215 597 188 597 q 324 628 256 597 q 352 617 340 625 q 369 607 364 610 l 363 539 q 371 536 365 536 q 413 558 382 536 q 517 602 478 588 q 578 617 556 617 q 622 610 600 617 q 665 589 643 603 q 736 514 717 558 q 768 382 768 435 q 763 324 768 360 q 750 222 751 256 q 757 149 750 171 q 768 110 763 126 q 789 64 781 67 q 807 55 796 57 q 829 50 818 53 q 854 24 854 43 q 788 -7 854 4 q 718 -14 749 -14 q 621 11 656 -14 q 522 306 522 83 q 450 492 522 492 q 382 456 413 492 q 350 389 353 421 l 322 114 q 350 47 322 65 q 424 24 378 28 q 433 10 433 22 q 383 -17 433 -17 q 340 -10 365 -17 q 247 4 290 4 q 71 -28 203 4 m 126 772 q 96 808 96 772 q 119 863 96 843 l 176 901 q 342 956 257 954 q 457 929 385 954 l 564 893 q 618 881 599 882 q 726 903 683 881 q 804 978 769 925 q 827 972 821 978 q 839 951 833 965 q 757 851 826 888 q 622 821 699 821 q 522 846 593 821 q 341 893 390 893 q 258 874 292 893 q 200 833 224 856 q 160 791 176 810 q 126 772 143 772 z "},"":{"ha":806,"x_min":43,"x_max":764,"o":"m 79 114 q 47 199 51 154 q 43 301 43 243 q 83 415 43 360 q 186 508 124 469 q 467 592 317 592 q 685 463 596 592 q 744 341 724 407 q 764 207 764 275 q 722 75 764 139 q 564 -36 667 -11 q 478 -52 531 -44 q 417 -60 426 -60 q 229 -22 314 -60 q 79 114 144 15 m 310 254 q 313 185 310 222 q 326 113 317 147 q 394 28 350 28 q 469 61 443 28 q 508 142 496 94 q 525 342 525 206 q 511 443 525 400 q 461 524 478 515 q 458 524 460 524 q 338 425 374 524 q 310 254 310 353 m 556 858 l 557 851 q 550 831 557 835 q 528 826 543 826 l 518 826 q 513 828 515 826 l 251 911 q 250 913 250 911 l 250 915 q 261 939 250 931 q 278 947 271 947 l 279 946 l 288 946 l 294 946 l 556 863 l 556 858 z "},"":{"ha":806,"x_min":43,"x_max":764,"o":"m 79 114 q 47 199 51 154 q 43 301 43 243 q 83 415 43 360 q 186 508 124 469 q 467 592 317 592 q 685 463 596 592 q 744 341 724 407 q 764 207 764 275 q 722 75 764 139 q 564 -36 667 -11 q 478 -52 531 -44 q 417 -60 426 -60 q 229 -22 314 -60 q 79 114 144 15 m 310 254 q 313 185 310 222 q 326 113 317 147 q 394 28 350 28 q 469 61 443 28 q 508 142 496 94 q 525 342 525 206 q 511 443 525 400 q 461 524 478 515 q 458 524 460 524 q 338 425 374 524 q 310 254 310 353 m 515 958 l 521 960 q 546 951 535 960 q 557 935 557 943 q 556 926 557 926 q 556 925 556 926 l 556 924 l 294 840 q 289 839 292 839 l 279 839 q 257 843 264 839 q 250 864 250 847 l 250 871 q 251 875 250 874 l 513 958 l 515 958 z "},"":{"ha":806,"x_min":43,"x_max":764,"o":"m 79 114 q 47 199 51 154 q 43 301 43 243 q 83 415 43 360 q 186 508 124 469 q 467 592 317 592 q 685 463 596 592 q 744 341 724 407 q 764 207 764 275 q 722 75 764 139 q 564 -36 667 -11 q 478 -52 531 -44 q 417 -60 426 -60 q 229 -22 314 -60 q 79 114 144 15 m 310 254 q 313 185 310 222 q 326 113 317 147 q 394 28 350 28 q 469 61 443 28 q 508 142 496 94 q 525 342 525 206 q 511 443 525 400 q 461 524 478 515 q 458 524 460 524 q 338 425 374 524 q 310 254 310 353 m 425 832 q 189 754 244 754 q 160 756 172 754 q 140 774 149 758 q 161 818 147 810 q 188 831 175 826 q 219 843 201 835 l 399 910 l 403 910 l 410 911 q 468 893 449 907 l 650 804 q 660 789 653 801 q 667 768 667 776 q 632 751 667 751 l 451 824 q 440 831 446 829 q 431 833 433 832 q 428 833 428 833 q 426 832 428 832 l 425 832 z "},"":{"ha":806,"x_min":36,"x_max":779,"o":"m 79 114 q 47 199 51 154 q 43 301 43 243 q 83 415 43 360 q 186 508 124 469 q 467 592 317 592 q 685 463 596 592 q 744 341 724 407 q 764 207 764 275 q 722 75 764 139 q 564 -36 667 -11 q 478 -52 531 -44 q 417 -60 426 -60 q 229 -22 314 -60 q 79 114 144 15 m 310 254 q 313 185 310 222 q 326 113 317 147 q 394 28 350 28 q 469 61 443 28 q 508 142 496 94 q 525 342 525 206 q 511 443 525 400 q 461 524 478 515 q 458 524 460 524 q 338 425 374 524 q 310 254 310 353 m 67 722 q 36 758 36 722 q 60 813 36 793 l 117 851 q 282 906 197 904 q 397 879 325 904 l 504 843 q 558 831 539 832 q 667 853 624 831 q 744 928 710 875 q 767 922 761 928 q 779 901 774 915 q 697 801 767 838 q 563 771 639 771 q 463 796 533 771 q 281 843 331 843 q 198 824 232 843 q 140 783 164 806 q 100 741 117 760 q 67 722 83 722 z "},"":{"ha":806,"x_min":43,"x_max":764,"o":"m 79 114 q 47 199 51 154 q 43 301 43 243 q 83 415 43 360 q 186 508 124 469 q 467 592 317 592 q 685 463 596 592 q 744 341 724 407 q 764 207 764 275 q 722 75 764 139 q 564 -36 667 -11 q 478 -52 531 -44 q 417 -60 426 -60 q 229 -22 314 -60 q 79 114 144 15 m 310 254 q 313 185 310 222 q 326 113 317 147 q 394 28 350 28 q 469 61 443 28 q 508 142 496 94 q 525 342 525 206 q 511 443 525 400 q 461 524 478 515 q 458 524 460 524 q 338 425 374 524 q 310 254 310 353 m 222 918 q 281 938 251 938 q 325 919 311 938 q 339 872 339 900 q 319 824 339 843 q 276 806 299 806 q 241 810 254 806 q 217 822 228 814 q 199 842 206 831 q 192 867 192 853 q 200 896 192 882 q 222 918 208 910 m 503 918 q 560 938 531 938 q 605 919 590 938 q 619 872 619 900 q 599 824 619 843 q 550 806 578 806 q 497 822 522 806 q 472 860 472 839 q 481 896 472 882 q 503 918 489 910 z "},"":{"ha":706,"x_min":75,"x_max":635,"o":"m 357 236 q 376 229 363 236 q 393 217 389 222 l 393 210 q 369 158 393 169 q 326 146 344 146 l 292 146 q 271 147 275 146 q 297 210 278 183 q 357 236 315 236 m 131 426 l 75 424 q 96 463 75 451 l 211 481 l 331 497 l 428 513 q 512 524 475 519 q 567 532 549 529 l 635 536 q 629 517 635 532 q 620 498 624 501 q 607 489 617 494 q 586 478 597 483 q 550 462 556 463 q 522 461 544 461 l 472 461 l 393 463 q 131 426 315 453 m 271 654 q 326 700 296 689 q 399 711 356 711 q 375 653 399 672 q 327 635 351 635 q 288 636 303 635 q 271 654 274 638 z "},"":{"ha":808,"x_min":28,"x_max":769,"o":"m 232 -18 q 69 -139 111 -139 q 28 -120 28 -139 q 151 36 28 -101 q 79 114 119 61 q 48 205 53 158 q 43 283 43 251 q 44 324 43 314 q 57 360 44 333 q 82 408 69 386 q 107 446 96 431 q 168 497 121 464 q 435 589 290 582 q 478 608 460 590 q 501 600 496 608 q 528 581 508 592 q 597 542 582 551 q 718 607 675 607 q 751 602 733 607 q 769 590 769 597 q 676 468 769 581 q 744 364 732 404 q 764 204 764 301 q 747 114 764 138 l 713 81 q 672 38 689 58 l 643 6 q 600 -25 614 -25 q 564 -33 589 -28 l 508 -43 q 417 -60 433 -57 q 232 -18 315 -60 m 504 457 q 461 524 485 524 q 343 422 376 522 q 321 247 321 360 l 321 224 q 342 256 335 242 q 364 289 350 269 q 475 424 400 342 l 504 457 m 336 93 q 394 28 354 28 q 467 51 446 28 q 494 110 489 75 q 504 165 500 146 q 511 204 508 185 q 521 293 519 261 l 336 93 z "},"":{"ha":896,"x_min":43,"x_max":894,"o":"m 765 -46 q 556 121 629 -46 q 456 17 544 67 q 306 -29 374 -29 q 153 49 218 -29 q 96 199 96 117 l 96 431 q 88 458 96 447 q 69 478 79 468 q 51 501 60 489 q 43 532 43 513 q 179 572 43 572 l 233 572 q 304 569 285 572 l 356 551 q 347 407 356 501 q 329 178 331 226 l 329 163 q 336 110 331 122 q 383 83 350 83 q 426 97 407 83 l 461 121 q 482 150 464 125 q 517 199 517 193 l 517 551 q 669 597 517 594 l 740 597 q 780 591 769 597 q 790 570 790 585 q 789 551 790 556 q 781 543 788 546 q 769 486 776 513 l 758 436 q 746 326 746 381 q 826 57 746 111 q 874 32 854 39 q 894 24 894 25 q 847 -22 894 3 q 768 -46 785 -46 q 767 -46 768 -46 l 765 -46 m 590 846 l 592 839 q 585 818 592 822 q 563 814 578 814 l 553 814 q 547 815 550 814 l 286 899 q 285 900 285 899 l 285 903 q 296 926 285 918 q 313 935 306 935 l 314 933 l 322 933 l 329 933 l 590 850 l 590 846 z "},"":{"ha":896,"x_min":43,"x_max":894,"o":"m 765 -46 q 556 121 629 -46 q 456 17 544 67 q 306 -29 374 -29 q 153 49 218 -29 q 96 199 96 117 l 96 431 q 88 458 96 447 q 69 478 79 468 q 51 501 60 489 q 43 532 43 513 q 179 572 43 572 l 233 572 q 304 569 285 572 l 356 551 q 347 407 356 501 q 329 178 331 226 l 329 163 q 336 110 331 122 q 383 83 350 83 q 426 97 407 83 l 461 121 q 482 150 464 125 q 517 199 517 193 l 517 551 q 669 597 517 594 l 740 597 q 780 591 769 597 q 790 570 790 585 q 789 551 790 556 q 781 543 788 546 q 769 486 776 513 l 758 436 q 746 326 746 381 q 826 57 746 111 q 874 32 854 39 q 894 24 894 25 q 847 -22 894 3 q 768 -46 785 -46 q 767 -46 768 -46 l 765 -46 m 550 933 l 556 935 q 581 926 569 935 q 592 910 592 918 q 591 901 592 901 q 590 900 590 901 l 590 899 l 329 815 q 324 814 326 814 l 314 814 q 292 818 299 814 q 285 839 285 822 l 285 846 q 286 850 285 849 l 547 933 l 550 933 z "},"":{"ha":896,"x_min":43,"x_max":894,"o":"m 765 -46 q 556 121 629 -46 q 456 17 544 67 q 306 -29 374 -29 q 153 49 218 -29 q 96 199 96 117 l 96 431 q 88 458 96 447 q 69 478 79 468 q 51 501 60 489 q 43 532 43 513 q 179 572 43 572 l 233 572 q 304 569 285 572 l 356 551 q 347 407 356 501 q 329 178 331 226 l 329 163 q 336 110 331 122 q 383 83 350 83 q 426 97 407 83 l 461 121 q 482 150 464 125 q 517 199 517 193 l 517 551 q 669 597 517 594 l 740 597 q 780 591 769 597 q 790 570 790 585 q 789 551 790 556 q 781 543 788 546 q 769 486 776 513 l 758 436 q 746 326 746 381 q 826 57 746 111 q 874 32 854 39 q 894 24 894 25 q 847 -22 894 3 q 768 -46 785 -46 q 767 -46 768 -46 l 765 -46 m 460 882 q 224 804 279 804 q 195 806 207 804 q 175 824 183 808 q 196 868 182 860 q 223 881 210 876 q 254 893 236 885 l 433 960 l 438 960 l 444 961 q 503 943 483 957 l 685 854 q 694 839 688 851 q 701 818 701 826 q 667 801 701 801 l 486 874 q 474 881 481 879 q 465 883 468 882 q 463 883 463 883 q 461 882 463 882 l 460 882 z "},"":{"ha":896,"x_min":43,"x_max":894,"o":"m 765 -46 q 556 121 629 -46 q 456 17 544 67 q 306 -29 374 -29 q 153 49 218 -29 q 96 199 96 117 l 96 431 q 88 458 96 447 q 69 478 79 468 q 51 501 60 489 q 43 532 43 513 q 179 572 43 572 l 233 572 q 304 569 285 572 l 356 551 q 347 407 356 501 q 329 178 331 226 l 329 163 q 336 110 331 122 q 383 83 350 83 q 426 97 407 83 l 461 121 q 482 150 464 125 q 517 199 517 193 l 517 551 q 669 597 517 594 l 740 597 q 780 591 769 597 q 790 570 790 585 q 789 551 790 556 q 781 543 788 546 q 769 486 776 513 l 758 436 q 746 326 746 381 q 826 57 746 111 q 874 32 854 39 q 894 24 894 25 q 847 -22 894 3 q 768 -46 785 -46 q 767 -46 768 -46 l 765 -46 m 256 931 q 315 950 285 950 q 358 931 344 950 q 372 884 372 913 q 352 837 372 856 q 310 818 332 818 q 274 822 288 818 q 250 835 261 826 q 232 854 239 843 q 225 880 225 865 q 233 908 225 894 q 256 931 242 922 m 536 931 q 594 950 564 950 q 638 931 624 950 q 653 884 653 913 q 632 837 653 856 q 583 818 611 818 q 531 835 556 818 q 506 873 506 851 q 514 908 506 894 q 536 931 522 922 z "},"":{"ha":854,"x_min":-4,"x_max":865,"o":"m 603 504 q 544 533 544 504 q 550 547 544 535 q 561 560 556 558 l 831 576 q 832 576 831 576 q 850 564 836 576 l 865 550 q 788 517 865 519 q 753 515 768 517 q 694 278 735 392 l 629 89 q 584 -31 603 14 q 542 -122 565 -75 q 490 -214 518 -168 q 435 -296 463 -260 q 322 -376 371 -376 q 321 -376 321 -376 q 129 -256 233 -376 q 54 -153 74 -192 q 35 -101 35 -114 q 43 -81 35 -89 q 64 -69 51 -74 q 111 -64 81 -64 q 160 -67 142 -64 q 193 -83 178 -69 q 228 -221 228 -117 q 269 -271 257 -258 q 326 -296 297 -296 q 408 -211 358 -294 q 457 -76 457 -128 q 441 15 457 -24 q 401 90 425 53 q 348 166 376 128 q 285 260 319 204 q 203 371 251 317 q 83 456 156 425 q 60 463 74 460 q 31 469 44 464 q -4 506 -4 482 q 15 542 -4 531 q 65 560 35 554 q 133 569 96 567 q 189 574 171 572 q 214 576 207 576 q 231 575 221 576 q 253 572 242 574 q 281 565 265 571 q 321 533 296 558 l 368 475 q 449 360 413 417 l 535 219 q 579 143 554 194 l 588 143 q 619 242 593 156 q 683 490 646 328 l 682 511 l 603 504 m 576 933 l 582 935 q 607 926 596 935 q 618 910 618 918 q 617 901 618 901 q 617 900 617 901 l 617 899 l 356 815 q 350 814 353 814 l 340 814 q 318 818 325 814 q 311 839 311 822 l 311 846 q 313 850 311 849 l 574 933 l 576 933 z "},"":{"ha":986,"x_min":31,"x_max":958,"o":"m 544 -164 q 553 -186 553 -164 l 553 -201 q 544 -219 553 -217 l 457 -237 l 131 -237 q 110 -225 117 -237 q 104 -203 104 -212 q 121 -172 104 -172 l 225 -172 l 225 -6 l 106 -6 q 83 6 96 -6 q 61 35 61 25 q 88 56 61 46 q 108 54 94 54 l 139 54 q 205 62 190 54 q 219 89 219 69 l 217 133 q 211 317 217 251 q 200 383 206 382 q 158 386 181 386 l 147 386 q 138 385 143 386 q 92 389 114 385 q 31 454 31 399 l 199 444 l 200 486 l 190 642 l 174 642 l 113 632 q 90 644 101 632 q 78 671 78 657 q 90 691 78 685 q 119 699 103 697 l 153 701 q 180 710 169 703 q 192 722 190 717 q 194 729 193 726 q 211 736 197 736 q 231 733 225 736 q 240 728 236 731 q 261 719 253 719 l 510 729 q 535 712 535 729 q 532 686 535 694 q 523 673 529 678 q 507 665 517 668 l 483 658 q 475 553 475 589 q 475 506 475 517 q 483 478 475 496 q 560 482 513 482 q 793 426 631 482 q 944 294 906 389 q 958 222 958 264 q 942 131 958 179 q 881 56 925 83 q 807 22 851 39 q 758 4 763 4 l 500 -12 l 483 -21 q 478 -46 479 -25 l 475 -76 q 475 -92 475 -86 l 475 -112 q 475 -139 475 -126 q 478 -164 475 -151 l 544 -164 m 485 419 q 479 248 485 333 q 474 76 474 163 q 651 102 592 76 q 739 163 710 128 q 768 257 768 199 q 758 306 768 296 l 664 392 q 543 421 632 421 q 526 419 535 419 l 485 419 z "},"":{"ha":854,"x_min":-4,"x_max":865,"o":"m 603 504 q 544 533 544 504 q 550 547 544 535 q 561 560 556 558 l 831 576 q 832 576 831 576 q 850 564 836 576 l 865 550 q 788 517 865 519 q 753 515 768 517 q 694 278 735 392 l 629 89 q 584 -31 603 14 q 542 -122 565 -75 q 490 -214 518 -168 q 435 -296 463 -260 q 322 -376 371 -376 q 321 -376 321 -376 q 129 -256 233 -376 q 54 -153 74 -192 q 35 -101 35 -114 q 43 -81 35 -89 q 64 -69 51 -74 q 111 -64 81 -64 q 160 -67 142 -64 q 193 -83 178 -69 q 228 -221 228 -117 q 269 -271 257 -258 q 326 -296 297 -296 q 408 -211 358 -294 q 457 -76 457 -128 q 441 15 457 -24 q 401 90 425 53 q 348 166 376 128 q 285 260 319 204 q 203 371 251 317 q 83 456 156 425 q 60 463 74 460 q 31 469 44 464 q -4 506 -4 482 q 15 542 -4 531 q 65 560 35 554 q 133 569 96 567 q 189 574 171 572 q 214 576 207 576 q 231 575 221 576 q 253 572 242 574 q 281 565 265 571 q 321 533 296 558 l 368 475 q 449 360 413 417 l 535 219 q 579 143 554 194 l 588 143 q 619 242 593 156 q 683 490 646 328 l 682 511 l 603 504 m 282 1089 q 341 1108 311 1108 q 385 1090 371 1108 q 399 1042 399 1071 q 378 995 399 1014 q 336 976 358 976 q 301 981 314 976 q 276 993 288 985 q 258 1013 265 1001 q 251 1038 251 1024 q 260 1067 251 1053 q 282 1089 268 1081 m 563 1089 q 620 1108 590 1108 q 665 1090 650 1108 q 679 1042 679 1071 q 658 995 679 1014 q 610 976 638 976 q 557 993 582 976 q 532 1031 532 1010 q 540 1067 532 1053 q 563 1089 549 1081 z "},"":{"ha":553,"x_min":15,"x_max":547,"o":"m 293 -11 q 103 -31 219 -11 q 68 6 68 -31 q 83 39 68 32 q 117 47 97 46 q 155 49 136 47 q 181 64 174 50 l 181 78 l 182 121 l 182 135 q 154 422 182 301 q 114 451 138 447 q 69 456 90 456 q 31 462 47 457 q 15 486 15 467 q 35 517 15 506 q 83 536 56 528 q 136 550 110 544 q 194 569 161 558 l 282 601 q 376 622 338 622 q 420 615 415 622 q 425 579 425 607 q 417 535 425 551 l 415 294 q 419 192 415 215 q 450 83 425 163 q 472 53 456 64 q 504 36 488 43 q 534 22 521 29 q 547 -1 547 15 q 493 -31 547 -31 l 476 -29 q 293 -11 418 -11 z "},"":{"ha":1140,"x_min":64,"x_max":1128,"o":"m 989 101 l 947 100 q 819 81 883 92 q 683 57 696 60 q 658 47 669 54 l 633 35 q 594 10 600 17 l 318 10 l 289 28 q 103 189 150 103 q 64 397 64 260 q 221 813 64 656 q 339 897 272 864 q 381 917 367 913 q 418 921 394 921 l 438 919 q 546 889 504 903 q 598 873 588 875 q 640 867 608 871 q 706 861 672 864 q 770 856 740 858 q 808 853 800 853 q 831 856 817 853 q 861 861 844 858 q 908 874 899 868 q 939 907 917 879 q 986 965 982 963 q 1010 976 1001 976 q 992 894 1010 947 q 947 796 958 796 l 692 796 l 810 535 l 829 533 q 869 546 853 533 q 899 573 885 558 q 929 600 914 588 q 968 613 944 613 l 967 581 q 956 492 964 536 l 947 442 q 939 430 947 438 q 928 422 931 422 q 889 467 899 461 l 871 467 l 810 444 q 790 215 810 390 q 771 147 790 206 l 819 146 l 878 146 q 1046 192 985 146 q 1067 218 1061 204 l 1078 244 q 1128 274 1090 274 q 1108 185 1128 243 q 1057 76 1072 76 q 1035 85 1044 76 q 989 101 1015 101 m 457 828 q 426 835 457 835 q 371 803 394 835 q 333 725 347 769 q 294 508 307 644 l 289 442 q 281 356 281 369 q 283 315 281 342 q 288 258 285 288 q 294 203 292 229 q 299 169 297 178 q 318 138 301 169 q 339 100 335 107 q 350 88 346 93 q 358 78 354 82 l 515 78 q 536 97 519 78 q 576 151 564 129 q 596 208 588 172 q 608 283 604 244 q 615 431 615 350 q 535 739 615 628 q 485 801 510 776 q 457 828 460 826 z "},"":{"ha":1092,"x_min":43,"x_max":1054,"o":"m 856 -32 l 821 -32 q 772 -25 793 -31 l 738 -15 q 707 -7 724 -11 q 642 17 656 6 l 614 38 q 575 72 583 60 q 534 53 549 69 q 488 16 519 36 q 418 -23 457 -4 q 343 -42 379 -42 q 251 -29 286 -42 q 43 201 57 22 q 61 332 47 314 q 274 556 146 489 q 372 588 319 581 q 519 517 442 589 l 556 481 q 594 497 572 481 l 644 536 q 701 573 672 556 q 758 590 729 590 q 812 580 786 590 q 869 559 838 569 q 932 515 901 549 q 986 444 963 482 q 1026 367 1010 406 l 1054 306 q 996 249 1042 253 q 908 237 971 249 q 821 221 846 225 q 799 217 810 217 q 778 211 786 215 q 758 172 758 201 l 761 136 q 775 81 769 101 q 786 47 781 58 q 833 28 797 28 q 893 33 868 28 q 935 46 918 38 q 965 64 951 54 q 1001 85 979 74 l 1004 85 l 1010 86 q 1037 77 1025 86 q 1049 49 1049 68 q 1023 15 1049 31 q 967 -10 997 0 q 882 -31 900 -31 q 856 -32 864 -32 m 275 239 l 276 233 l 276 225 q 310 117 294 144 q 403 42 343 61 q 464 67 429 44 q 528 135 528 107 q 519 153 526 135 q 506 179 511 171 q 493 246 493 215 q 494 294 493 276 q 499 326 496 311 q 512 377 504 357 q 520 403 519 397 q 525 417 521 410 q 506 460 525 438 q 444 499 468 499 q 367 457 408 499 q 300 358 319 414 q 275 242 289 325 l 275 239 m 856 513 q 767 324 767 503 l 767 303 q 768 285 767 293 l 874 293 q 886 334 886 296 q 882 393 886 372 q 872 433 878 414 q 856 513 857 485 m 938 432 q 933 435 936 435 l 931 435 q 926 426 925 433 q 934 419 929 419 q 939 424 939 419 q 938 432 939 428 z "},"":{"ha":861,"x_min":61,"x_max":793,"o":"m 793 664 q 742 642 793 642 q 714 658 733 642 l 667 703 l 603 758 q 533 815 569 789 q 397 876 433 872 q 231 814 275 876 q 214 762 214 790 q 229 709 214 733 q 282 657 244 685 q 544 535 363 597 q 556 550 547 538 l 574 575 q 608 608 599 608 q 624 601 618 608 q 631 586 631 593 q 627 571 631 579 q 618 553 624 563 q 601 519 603 526 q 739 396 703 449 q 782 238 782 333 q 682 32 782 117 q 422 -56 579 -56 q 269 -30 344 -56 q 146 57 193 -4 l 143 58 q 135 55 140 58 q 129 49 129 51 l 110 -46 q 94 -56 108 -56 q 74 -52 79 -56 q 63 -37 69 -49 l 61 18 q 72 213 61 85 q 103 232 79 232 q 143 210 126 232 q 175 160 160 189 l 206 101 q 242 57 221 72 q 297 28 254 44 q 450 -10 389 -10 q 569 39 524 -10 q 613 157 613 85 q 536 261 613 203 q 408 317 463 317 q 381 306 399 317 q 340 285 349 285 q 342 297 342 292 l 342 307 q 336 338 342 326 q 138 472 181 417 q 106 543 113 506 q 99 628 99 581 q 146 832 99 751 q 240 913 179 889 q 353 938 300 938 q 440 931 407 938 q 504 911 474 924 q 631 840 547 893 l 642 840 l 715 928 l 732 929 q 772 910 767 929 q 793 664 793 735 m 211 1208 l 425 1079 l 642 1235 q 663 1242 649 1242 q 685 1233 678 1242 q 693 1214 693 1225 l 693 1208 l 650 1157 l 443 1010 l 408 1010 l 193 1149 q 177 1163 179 1157 q 175 1185 175 1168 q 181 1205 175 1201 q 211 1208 188 1208 z "},"":{"ha":681,"x_min":33,"x_max":631,"o":"m 392 551 q 276 517 276 551 q 303 440 276 474 q 368 377 329 407 q 453 319 407 347 q 539 261 500 292 q 631 110 631 189 q 522 -24 631 13 q 356 -46 456 -46 q 192 -31 257 -46 q 88 -10 128 -15 q 41 6 49 -6 q 33 33 33 17 q 40 62 33 49 q 57 88 47 75 q 90 140 85 124 q 99 169 96 156 q 107 192 101 181 q 142 217 118 217 q 184 185 167 217 q 224 115 201 153 q 280 44 247 76 q 367 13 313 13 q 460 64 460 13 q 363 181 460 107 q 271 247 321 213 q 179 317 221 282 q 81 456 81 397 q 108 539 81 510 q 179 586 138 569 q 354 619 236 610 l 424 621 l 529 622 q 603 614 590 622 q 621 561 621 600 q 620 493 621 522 q 617 442 619 464 q 589 396 611 396 q 535 420 558 396 q 490 474 511 444 q 445 527 468 503 q 392 551 422 551 m 129 1011 l 343 882 l 560 1038 q 581 1044 567 1044 q 603 1036 596 1044 q 611 1017 611 1028 l 611 1011 l 568 960 l 361 813 l 326 813 l 111 951 q 95 965 97 960 q 93 988 93 971 q 99 1008 93 1004 q 129 1011 106 1011 z "},"":{"ha":985,"x_min":3,"x_max":1026,"o":"m 199 43 l 190 90 l 190 96 q 214 156 199 126 l 246 211 q 283 323 283 281 q 273 374 283 365 q 249 384 263 383 q 226 385 236 385 q 215 395 215 385 q 222 411 215 406 q 239 421 228 417 q 279 432 258 429 q 199 614 243 494 l 139 817 l 139 838 q 28 864 56 839 q 15 897 14 875 l 17 919 l 219 939 q 303 886 303 939 l 301 881 l 301 876 l 219 838 q 218 833 218 835 l 218 829 q 247 703 222 796 q 289 561 272 611 q 342 451 325 451 l 361 451 l 561 846 q 558 885 558 854 q 566 933 558 917 q 600 949 574 949 l 714 946 l 1026 954 q 972 897 1026 914 q 907 888 942 889 q 844 806 896 843 l 865 786 q 842 764 858 781 l 817 738 l 804 725 l 804 706 l 665 472 l 664 460 q 670 447 664 450 q 685 441 676 443 q 699 435 693 439 q 706 417 706 432 q 693 394 706 403 q 664 381 681 386 l 631 371 q 604 351 613 365 q 494 96 529 239 q 493 85 493 93 q 497 64 493 76 l 676 64 l 697 33 q 3 -33 661 -33 q 13 26 3 10 q 29 43 22 43 l 199 43 m 324 1117 q 383 1136 353 1136 q 426 1117 413 1136 q 440 1070 440 1099 q 420 1023 440 1042 q 378 1004 400 1004 q 342 1008 356 1004 q 318 1021 329 1013 q 300 1040 307 1029 q 293 1066 293 1051 q 301 1094 293 1081 q 324 1117 310 1108 m 604 1117 q 662 1136 632 1136 q 706 1117 692 1136 q 721 1070 721 1099 q 700 1023 721 1042 q 651 1004 679 1004 q 599 1021 624 1004 q 574 1059 574 1038 q 582 1094 574 1081 q 604 1117 590 1108 z "},"":{"ha":1068,"x_min":50,"x_max":1058,"o":"m 999 110 q 1018 126 999 126 q 1058 88 1058 126 q 1024 -8 1058 32 q 932 -50 988 -50 q 903 -46 917 -50 l 467 47 l 224 -11 q 172 -43 196 -31 q 128 -56 149 -56 q 85 -29 85 -56 l 86 -19 l 232 332 q 267 393 267 382 q 206 383 239 383 q 168 390 174 383 q 163 410 163 397 q 166 437 163 424 q 189 454 169 450 l 326 481 l 576 824 q 447 867 554 867 q 153 776 239 867 q 118 682 118 740 q 144 617 117 647 l 164 597 q 172 578 172 588 q 164 562 172 568 q 140 556 156 556 q 107 568 125 556 q 76 600 89 581 q 50 682 50 642 q 91 801 50 753 q 192 876 132 849 q 442 928 303 928 l 464 928 l 747 867 q 853 876 806 867 q 954 885 901 885 l 989 885 l 981 850 l 697 481 q 696 478 696 479 l 696 475 q 713 460 696 463 q 752 457 731 458 q 791 452 774 456 q 808 433 808 449 q 783 405 808 410 q 733 400 758 400 l 685 400 q 654 401 661 400 l 636 385 l 507 118 q 506 115 507 117 q 553 101 506 113 q 656 82 635 82 q 663 83 661 82 l 861 22 l 886 21 q 1001 75 1001 21 l 999 110 m 335 1171 l 549 1042 l 765 1197 q 787 1204 772 1204 q 809 1196 801 1204 q 817 1176 817 1188 l 817 1171 l 774 1119 l 567 972 l 532 972 l 317 1111 q 301 1125 303 1119 q 299 1147 299 1131 q 305 1167 299 1164 q 335 1171 311 1171 z "},"":{"ha":806,"x_min":40,"x_max":776,"o":"m 394 85 q 435 71 394 79 q 550 90 500 71 q 640 135 600 108 q 701 181 681 161 q 744 201 721 201 q 772 195 768 201 q 776 176 776 189 q 774 147 776 163 q 765 111 771 131 q 748 51 758 81 q 738 10 738 21 q 732 -11 735 -1 q 707 -33 724 -33 q 681 -24 690 -33 q 499 11 558 11 q 389 5 439 11 q 288 -10 339 -1 q 113 -31 160 -31 q 53 -26 65 -31 q 40 -4 40 -22 q 57 43 40 18 q 92 92 71 67 q 135 140 113 117 q 168 175 158 164 l 186 197 q 206 219 196 207 q 236 257 229 250 q 276 325 257 290 q 313 397 293 361 q 401 524 356 479 q 390 524 396 524 q 204 494 271 524 q 110 431 138 467 q 80 414 96 414 q 54 426 64 414 q 44 460 44 439 q 51 509 44 481 q 69 563 58 538 q 116 621 96 621 q 155 615 136 621 q 209 608 174 610 q 307 606 244 607 l 432 603 q 676 595 664 597 q 696 589 688 593 q 718 553 718 579 q 717 538 717 546 q 697 514 711 531 l 667 481 q 560 339 604 406 l 489 233 l 443 163 q 394 85 394 88 m 189 961 l 403 832 l 619 988 q 641 994 626 994 q 663 986 656 994 q 671 967 671 978 l 671 961 l 628 910 l 421 763 l 386 763 l 171 901 q 155 915 157 910 q 153 938 153 921 q 159 958 153 954 q 189 961 165 961 z "},"":{"ha":761,"x_min":4,"x_max":1024,"o":"m 696 460 q 704 432 704 460 q 688 404 704 404 l 565 404 l 454 121 q 381 26 432 63 q 269 -10 331 -10 q 218 6 243 -10 q 178 26 193 22 q 135 33 164 31 q 76 44 104 38 q 6 108 4 63 q 32 139 6 139 q 85 124 57 139 q 165 94 138 94 q 231 129 213 94 l 343 328 l 360 388 q 327 391 347 392 q 288 392 307 390 q 253 401 268 394 q 239 432 239 407 q 256 456 239 457 l 368 456 q 400 517 393 454 q 401 538 401 531 l 282 538 q 264 568 264 538 q 371 600 265 597 q 419 603 399 600 l 428 611 q 567 847 467 750 q 817 956 678 956 l 876 947 q 950 900 911 926 l 1003 865 q 1019 852 1014 857 q 1024 830 1024 847 q 1015 810 1024 813 q 997 807 1007 807 l 985 807 q 971 810 976 807 l 867 878 l 864 878 l 860 879 q 776 817 832 878 q 657 639 704 733 q 644 603 646 614 l 644 594 q 693 601 671 597 q 740 604 715 604 q 774 572 774 604 q 760 554 774 564 q 739 542 747 544 l 610 526 q 592 499 592 522 l 597 460 l 696 460 z "},"":{"ha":568,"x_min":17,"x_max":543,"o":"m 301 1015 q 65 938 121 938 q 37 940 49 938 q 17 957 25 942 q 38 1001 24 993 q 65 1014 51 1010 q 96 1026 78 1018 l 275 1093 l 279 1093 l 286 1094 q 344 1076 325 1090 l 526 988 q 536 972 529 985 q 543 951 543 960 q 508 935 543 935 l 328 1007 q 316 1014 322 1013 q 307 1016 310 1015 q 304 1016 304 1017 q 303 1015 304 1015 l 301 1015 z "},"":{"ha":576,"x_min":25,"x_max":543,"o":"m 61 1107 l 275 978 l 492 1133 q 513 1140 499 1140 q 535 1132 528 1140 q 543 1113 543 1124 l 543 1107 l 500 1056 l 293 908 l 258 908 l 43 1047 q 27 1061 29 1056 q 25 1083 25 1067 q 31 1103 25 1100 q 61 1107 38 1107 z "},"":{"ha":664,"x_min":25,"x_max":631,"o":"m 631 1128 q 596 1033 631 1074 q 511 964 561 992 q 309 909 408 908 q 143 945 210 910 q 26 1058 76 981 q 25 1061 25 1060 l 25 1071 q 35 1103 25 1092 q 114 1067 85 1103 q 138 1033 126 1051 q 175 997 150 1015 q 285 972 208 972 q 424 990 363 972 q 526 1058 485 1008 q 537 1080 531 1064 q 551 1113 543 1096 q 601 1154 572 1154 q 631 1128 631 1154 z "},"":{"ha":328,"x_min":33,"x_max":294,"o":"m 104 1244 l 151 1247 q 236 1226 206 1247 q 293 1135 294 1188 q 250 1042 292 1086 q 161 994 207 994 q 121 1004 129 994 l 43 1099 q 33 1141 33 1111 q 53 1201 33 1171 q 104 1244 74 1232 m 117 1088 q 154 1057 133 1057 q 189 1064 175 1057 q 211 1083 200 1072 q 233 1140 233 1108 q 213 1178 233 1171 q 155 1186 192 1186 q 110 1174 118 1186 q 101 1144 101 1161 q 106 1114 101 1128 q 117 1088 110 1100 z "},"":{"ha":275,"x_min":25,"x_max":250,"o":"m 250 60 q 114 -18 186 -18 q 47 19 75 -18 q 25 96 25 51 l 26 121 l 103 207 q 106 225 104 211 q 111 256 106 239 q 146 294 124 294 q 163 285 161 294 q 165 247 165 276 q 153 190 165 217 q 125 147 139 164 l 99 115 q 86 78 86 101 q 126 33 86 33 l 133 33 q 138 35 136 33 l 225 76 l 228 76 l 233 78 q 250 60 250 78 z "},"":{"ha":844,"x_min":50,"x_max":793,"o":"m 81 943 q 50 978 50 943 q 74 1033 50 1014 l 131 1072 q 296 1126 211 1125 q 411 1100 339 1125 l 518 1064 q 572 1051 553 1053 q 681 1074 638 1051 q 758 1149 724 1096 q 781 1142 775 1149 q 793 1122 788 1136 q 711 1022 781 1058 q 576 992 653 992 q 476 1017 547 992 q 295 1064 344 1064 q 212 1045 246 1064 q 154 1003 178 1026 q 114 962 131 981 q 81 943 97 943 z "},"":{"ha":638,"x_min":0,"x_max":0,"o":""},"":{"ha":1275,"x_min":0,"x_max":0,"o":""},"":{"ha":638,"x_min":0,"x_max":0,"o":""},"":{"ha":1275,"x_min":0,"x_max":0,"o":""},"":{"ha":425,"x_min":0,"x_max":0,"o":""},"":{"ha":318,"x_min":0,"x_max":0,"o":""},"":{"ha":213,"x_min":0,"x_max":0,"o":""},"":{"ha":213,"x_min":0,"x_max":0,"o":""},"":{"ha":158,"x_min":0,"x_max":0,"o":""},"":{"ha":254,"x_min":0,"x_max":0,"o":""},"":{"ha":71,"x_min":0,"x_max":0,"o":""},"":{"ha":708,"x_min":76,"x_max":629,"o":"m 594 322 q 336 311 428 311 l 160 311 q 76 343 76 311 q 113 383 76 367 l 382 375 l 582 383 q 615 379 601 383 q 629 357 629 375 q 594 322 629 322 z "},"":{"ha":708,"x_min":76,"x_max":629,"o":"m 594 322 q 336 311 428 311 l 160 311 q 76 343 76 311 q 113 383 76 367 l 382 375 l 582 383 q 615 379 601 383 q 629 357 629 375 q 594 322 629 322 z "},"":{"ha":708,"x_min":76,"x_max":629,"o":"m 594 322 q 336 311 428 311 l 160 311 q 76 343 76 311 q 113 383 76 367 l 382 375 l 582 383 q 615 379 601 383 q 629 357 629 375 q 594 322 629 322 z "},"":{"ha":807,"x_min":76,"x_max":728,"o":"m 175 311 q 76 343 76 311 q 113 383 76 367 l 382 375 l 682 383 q 715 379 701 383 q 728 357 728 375 q 693 322 728 322 q 175 311 528 311 z "},"":{"ha":907,"x_min":76,"x_max":828,"o":"m 793 322 q 435 311 626 311 l 160 311 q 76 343 76 311 q 113 383 76 367 l 482 375 l 781 383 q 814 379 800 383 q 828 357 828 375 q 793 322 828 322 z "},"":{"ha":286,"x_min":24,"x_max":253,"o":"m 183 860 l 182 843 q 217 774 181 803 l 242 753 q 253 731 253 744 q 225 717 253 717 q 169 731 197 717 q 117 767 142 747 q 35 847 74 800 q 24 903 24 861 q 47 973 24 944 q 114 1001 69 1001 q 167 986 146 1001 q 206 926 206 960 l 183 860 z "},"":{"ha":285,"x_min":33,"x_max":263,"o":"m 103 860 l 81 926 q 140 996 81 974 q 171 1001 156 1001 q 240 973 217 1001 q 263 897 263 944 q 250 846 263 861 q 215 808 238 831 q 168 767 193 786 q 69 717 106 717 q 33 731 33 717 q 44 753 33 744 q 68 774 54 763 q 104 843 104 803 l 103 860 z "},"":{"ha":297,"x_min":11,"x_max":239,"o":"m 81 -46 l 58 21 q 118 90 58 68 q 149 96 133 96 q 217 67 194 96 q 239 -8 239 39 q 226 -59 239 -44 q 192 -96 214 -74 q 146 -139 171 -118 q 49 -189 86 -189 q 11 -175 11 -189 q 22 -151 11 -161 q 46 -131 32 -142 q 82 -62 82 -103 l 81 -46 z "},"":{"ha":583,"x_min":24,"x_max":550,"o":"m 183 860 l 182 843 q 217 774 181 803 l 242 753 q 253 731 253 744 q 225 717 253 717 q 169 731 197 717 q 117 767 142 747 q 35 847 74 800 q 24 903 24 861 q 47 973 24 944 q 114 1001 69 1001 q 167 986 146 1001 q 206 926 206 960 l 183 860 m 481 860 l 479 843 q 514 774 478 803 l 539 753 q 550 731 550 744 q 522 717 550 717 q 467 731 494 717 q 415 767 440 747 q 333 847 372 801 q 322 903 322 861 q 344 973 322 944 q 413 1001 367 1001 q 464 986 443 1001 q 503 926 503 960 l 481 860 z "},"":{"ha":582,"x_min":33,"x_max":560,"o":"m 103 860 l 81 926 q 140 996 81 974 q 171 1001 156 1001 q 240 973 217 1001 q 263 897 263 944 q 250 846 263 861 q 215 808 238 831 q 168 767 193 786 q 69 717 106 717 q 33 731 33 717 q 44 753 33 744 q 68 774 54 763 q 104 843 104 803 l 103 860 m 401 860 l 379 926 q 409 981 379 961 q 476 1001 439 1001 q 537 973 514 1001 q 560 897 560 944 q 547 846 560 861 q 513 808 535 831 q 465 767 490 786 q 367 717 403 717 q 332 731 332 717 q 343 753 332 744 l 367 774 q 390 800 379 785 q 401 843 401 815 l 401 860 z "},"":{"ha":632,"x_min":11,"x_max":574,"o":"m 81 -46 l 58 21 q 118 90 58 68 q 149 96 133 96 q 217 67 194 96 q 239 -8 239 39 q 226 -59 239 -44 q 192 -96 214 -74 q 146 -139 171 -118 q 49 -189 86 -189 q 11 -175 11 -189 q 22 -151 11 -161 q 46 -131 32 -142 q 82 -62 82 -103 l 81 -46 m 415 -46 l 393 21 q 453 90 393 68 q 483 96 468 96 q 551 67 529 96 q 574 -8 574 39 q 561 -59 574 -44 q 527 -96 549 -74 q 481 -139 506 -118 q 383 -189 421 -189 q 346 -175 346 -189 q 357 -151 346 -161 q 382 -131 368 -142 q 417 -62 418 -103 l 415 -46 z "},"":{"ha":494,"x_min":49,"x_max":439,"o":"m 193 510 q 111 492 121 493 q 49 529 49 492 q 76 562 49 554 q 136 573 103 569 q 197 581 169 576 q 224 603 224 586 q 214 638 224 615 l 211 786 q 243 879 211 879 q 265 871 251 879 q 278 853 278 863 l 278 638 q 319 589 278 596 q 358 588 338 586 q 397 586 379 589 q 439 548 439 583 q 421 513 439 513 l 282 513 l 282 35 q 267 25 282 25 q 244 27 251 25 q 232 43 236 29 q 228 169 231 68 l 224 319 q 222 388 222 368 l 225 447 q 193 510 225 510 z "},"":{"ha":579,"x_min":46,"x_max":531,"o":"m 329 222 l 331 158 l 331 138 q 329 114 331 131 q 328 78 328 97 q 324 24 326 33 q 307 8 321 8 q 279 33 289 8 q 272 72 272 50 l 282 222 q 272 242 282 242 l 99 242 q 64 276 64 242 q 76 306 64 294 q 115 318 89 318 q 165 313 140 318 q 223 308 189 308 q 265 319 257 308 q 272 353 272 331 l 272 375 q 266 511 272 460 q 254 568 260 563 l 246 576 l 64 576 q 54 595 57 588 q 49 609 51 603 q 46 617 46 615 q 54 632 46 618 q 64 646 63 646 l 238 646 q 254 663 254 646 l 244 822 q 269 896 244 892 q 286 897 278 897 q 322 867 322 897 l 313 676 q 328 654 313 654 l 344 656 l 383 656 q 478 664 435 657 q 505 654 489 664 q 521 630 521 644 q 506 607 521 615 q 467 594 490 599 q 417 589 444 590 q 367 586 389 588 q 314 576 314 583 l 314 503 q 317 403 314 439 l 322 328 q 400 318 357 318 l 478 328 q 514 314 497 328 q 531 278 531 300 q 464 242 531 242 l 389 243 l 329 244 l 329 222 z "},"":{"ha":386,"x_min":58,"x_max":322,"o":"m 58 342 q 74 392 58 369 q 113 432 89 415 q 215 467 161 467 q 296 433 269 467 q 322 348 322 399 q 286 263 322 297 q 193 229 250 229 q 104 261 149 231 q 58 342 60 294 z "},"":{"ha":1113,"x_min":56,"x_max":1051,"o":"m 64 14 q 56 47 56 28 q 66 81 56 65 q 93 108 76 97 q 163 133 147 133 l 165 133 q 220 110 203 133 q 238 51 238 86 q 213 -8 238 15 q 149 -32 189 -32 q 64 14 93 -32 m 500 108 q 572 133 535 132 q 626 110 608 133 q 644 51 644 86 q 619 -8 644 15 q 567 -32 594 -32 q 524 -26 540 -32 q 494 -10 507 -21 q 472 14 481 0 q 463 47 463 28 q 473 81 463 65 q 500 108 483 97 m 907 108 q 976 133 961 133 l 978 133 q 1033 110 1015 133 q 1051 51 1051 86 q 1026 -8 1051 15 q 974 -32 1001 -32 q 931 -26 947 -32 q 900 -10 914 -21 q 878 14 886 0 q 869 47 869 28 q 880 81 869 65 q 907 108 890 97 z "},"":{"ha":254,"x_min":0,"x_max":0,"o":""}}}
